<?xml version="1.0" encoding="UTF-8"?>
<svg version="1.1" viewBox="0 0 1600 1600" width="1600" height="1600" xmlns="http://www.w3.org/2000/svg">
<path transform="translate(0)" d="m0 0h1600v1600h-1600z" fill="#533E2B"/>
<path transform="translate(786,119)" d="m0 0h16l16 4 15 8 10 8 10 12 4 7 92 1 35 1 8 4v2h2l4 8v11l-3 6-7 6-4 2h-118l-5 19-7 14-11 12-9 7-13 6-9 2v13l-2 43v16l15 6 12 7 11 9 7 8 9 14 4 8 5 16 1 6v24l-4 16-8 16-7 9-9 9-13 8-12 5-5 1v54l8-7 45-45 7-8 23-23h2l2-4 8-96v-13l-15-8-12-11-9-12-5-11-3-12v-19l3-12 7-13 11-12 13-8 12-4 5-1h19l15 4 14 7 11 9 8 9 6 10 5 15 1 6v16l-3 12-6 12-7 9-8 7-10 6-11 4-5 61 7-6 68-68 1-4 1-71 2-9 6-8 4-2 1-2-5-1-8-6-5-8-2-6v-8l4-10 7-10 9-6 3-1h12l9 3 8 7 3 6 1 9-3 9-7 14-7 6-6 2v2l6 2 6 8 1 3v37l8-2 69-1 9-11 10-6 7-3 5-1h17l13 4 10 7 8 9 5 11 1 5v13l-4 12-6 9-7 7-11 6-10 3h-17l-13-4-10-7-8-9-1-4h-53l-8 7-35 35-1 2 78-1 134-1h30l9 3 5 5 3 4 1 4v8l-4 8-6 5-5 2-11 1-274 2-8 7-92 92-1 2h-2v2h-2v2l-4 4h-2v2h-2v2h-2l-2 4-4 4h-2l-2 4-59 59-1 2-1 50 8-7 12-12 1-2h2l2-4 36-36 7-8 28-28 1-2h2l2-4 33-33 1-2h2l2-4 12-12 4-6 15-15 7-1 184 8 8-16 12-15 13-10 16-8 11-3 7-1h16l16 4 14 7 10 8 8 9 7 12 5 16 1 8v11l-3 17-6 15-9 13-12 12-14 9-16 6-11 2h-14l-15-3-12-5-11-8-5-4-8-10-8-16-2-10-162-7h-8l-8 7-15 15-1 2h-2l-2 4-35 35-7 8-33 33-7 8-30 30-7 8-30 30-1 2h-2v2l-3 3 1 4 30 30h1l3-16 7-19 10-16 9-10 7-8 14-12 18-12 23-12 22-8 22-5 11-2 7-21 7-11 9-10 9-8 12-7 18-6 7-1h19l14 3 12 5 11 6 12 11 7 8 8 14 5 17 1 7v14l-3 14-5 13-6 10-5 7h-2l-2 4-10 8-14 8-12 4-10 2h-19l-14-3-15-6-12-8-8-7-10-13-7-13-11 1-17 4-16 6-21 11-19 14-9 9-8 11-6 12-2 9-1 23v18l2 5 95 95h31l5-3 6-8 8-8 13-8 14-5 5-1h23l12 3 16 8 11 8 10 12 7 14 3 12v16l-4 16-7 12-11 12-13 8-10 4-11 2v38l-1 104-1 58-4 10-8 6-4 1h-8l-8-4-5-6-2-6v-55l1-104v-47l-14-9-10-9-8-11-5-10-3-12h-14l-15 3h-10l-8-4-76-76h-1l-1 71-1 16 18-1 2-5 9-6 8-2 15 2 9 5 6 8 1 4v10l-3 10-5 7-7 5-6 2h-11l-5-2-31-2v77l1 14v80l-1 63-1 40-1 20-3 7-5 5-7 3-8-1-5-3-5-6-2-7-1-17-5 12-6 9-5 5-7 6-12 6-11 3h-21l-16-5-11-6-10-9-7-8-4-5-2 11-4 6-5 4-5 2h-8l-10-5-4-6-2-8-3-201-1-86-11-1h-21l-5 2h-9l-8-4-5-6-3-8 1-10 4-8 10-7 5-2h8l15 6 19 1-1-22-1-59-7 6-10 10-8 7-20 20h-2l-2 4h-2v2l-8 7-13 13-7 4-24 4h-31l-8 16-9 10-7 6-7 4-1 66-1 157-3 8-8 7-3 1h-11l-6-3-6-7-2-6v-217l-10-2-12-5-13-10-9-12-5-11-2-9v-17l4-14 7-12 10-11 13-8 14-5 6-1h18l12 3 10 4 11 8 8 8 6 10 2 3 16 2h20l8-7 14-14 8-7 19-19h2v-2l8-7 22-22 8-7 9-9 1-2v-18l-1-49-6-11-9-11-11-10-14-9-18-8-19-5-7-1h-25l-3 1-7 13-12 13-8 6-16 8-13 3h-20l-16-4-14-7-13-10-10-12-8-16-4-14-1-8v-11l3-16 7-16 9-12 11-10 17-9 10-3 7-1h17l14 3 12 5 11 7 10 9 9 12 7 15 3 14h25l23 4 21 7 17 8 17 11 13 11 8 8 10 13 8 14 6 16 1 9-1 25 1 87 5 345 1 6 8-11 10-8 14-7 1-47 2-280v-119l-21-21v-2h-2l-7-8-98-98v-2h-2v-2h-2v-2l-4-2-11-12-39-39-32-2-124-6h-13l-4 18-5 13-7 10-9 10-14 9-13 5-10 2h-15l-14-3-11-4-14-9-10-9-8-10-9-17-4-15-1-8v-13l3-16 5-12 7-12 11-11 11-7 11-5 15-3h13l18 4 16 8 10 8 9 9 9 14 1 2 4 1 147 7 32 2 13 4 8 6 48 48v2h2l7 8 93 93v2h2l4 4v2h2v2l4 1-1-66-2-6-7-7-8-7-17-16-13-12-17-16-10-9-16-15-12-11-16-15-9-7v-2l-4-2-9-8-7-8-12-11-15-14-3-2v-2l-4-2-5-4-234-6-27-1-9-3-7-8-2-5v-8l4-8 6-5 5-2h43l177 5-15-15-8-7-7-7-8-7-7-8-4-1-58-4-2 5-8 8-10 5-5 1h-9l-10-3-6-4-5-5-6-8-3-10v-16l5-12 7-9 10-6 6-2h14l10 4 10 9 2 3 74 5h6l3-48v-8l-8-8-5-11v-13l3-7 6-8 11-8 6-2h12l11 4 10 7 7 8 3 10-1 11-6 10-10 9v22l-4 64-1 8 4 2 9 9 16 14v2l4 2 7 7 8 7 17 16 14 13h1l1-21 1-38-9-3-12-8-7-7-7-10-6-14-2-9v-19l4-15 7-13 11-12 10-7 13-6 8-2h22l14 4 13 7 10 9 9 13 5 12 2 8v21l-3 12-7 14-8 10h-2v2l-13 9-11 5-1 2-2 72v22l16 15 13 12 15 14 13 12 16 15 4 3v2l4 2 8 8 8 7 4 2v-45l-12-5-11-6-13-10-7-7-9-13-7-14-4-14-1-5v-25l4-16 9-17 11-13 12-9 15-7 6-2 3-58v-18l-11-6-12-11-7-8-8-15-4-13-1-5-124-1-9-4-5-5-3-6v-10l4-8 7-5 7-2h129l8-12 7-8 10-7 12-6z" fill="#F8F8F8"/>
<path transform="translate(1157,648)" d="m0 0 4 2 6 4 3-1v3h-2v6l2 6 2 1-12 8-9 10-5 11-1 6v14l5 13 12 12 10 6 8 3v336l3 9 4 5 7 3h10l8-4 4-7 1-3 1-91 1-246h3l-1 78-1 266-1 5-3-1-1 6-3 4h-2l-2 5-3 6-7 4-7 1h-10v2h-8l-7-1-8 7-4 4-10 3-10 2-12 5-7 6v3l-3 12-2 3h-2l-3 9-2 4h-2l-2 6-4 3-3 9-4 2-9 3-21 3-4 4-9 3-7 5-5 1v2l-16 3-4-1h-12l-8 7-5 3-4 5-6 8-5 2v2h-6-3l-5 1h-11l-8-6-2-6-2-2v-3l-2-2 3-1 2 4 10 4h10l8-4 3-1 2-5 2-7 1-23 1-86 1-42 12-8 7-7 6-10 5-13 7 3 2 6 1 15-2 10-1 4v6l-6 5-2 9v6l3 1-1 1h-7v5h-2l-1 3-2 1-4 12v13l3 5v2l4 2 7 4 2 1v2l10-1 10-4 5-5 4-7 2-11-1-4v-8h2l4-20 1-32 2-9 1-4-1-3v-8h-2v-13l-2-6-1-12-3-5-6-8-2-8-12-10-6-9-11-6-15 1-6 2-5-1h-5l-3 1-2 4-6 4h-2l-1 4-1 3 3 4-4 3-12 3-12 6-3 1v2l-6 5-7 11-4 10-1 16 2 9 7 14 8 8 8 5v43l-1 85-1 15-5 5h-5l-1 5-1 2h-2l-2 6-5 4-6 17-8 14h-2l-2 5-10 7-6 4-15 5-11 1-7 1h-6l-9 3-8 2h-14l-1 2-2-3-11-3-7 1-4 1-1-1h-14l-4-4-12-2-4-2-9 1-6-3v-2l-7-1-5-4-7-2-1-1 1-7 7-2 9-3 6-6 4-12 4 4 7 8 4 4 7 3 14 7 11 3h21l14-4 12-7 4-4h2l2-4 6-9 6-14h1l1 19 3 9 5 5 6 2 9-1 6-4 3-5 1-4 1-20 1-40 1-63v-80l-1-14v-75l1-2h16l15 1 5 2h11l9-4 4-2 6-12 1-5v-10l-3-7-4-5-8-4-15-2-8 2-8 5-3 5-2 1h-16l1-87h3l76 76 7 3h10l15-3h14l3 9 4 10 6 10 10 11 14 9 4 3v47l-1 104v55l4 9 7 5 3 1h8l7-3 5-5 3-8 1-58 1-104 1-38 16-5 14-7 11-10 9-14 4-12 1-6v-16l-4-14-6-12-11-13-14-9-14-6-9-2h-23l-12 3-16 8-12 11-7 9-4 2h-31l-97-97-1-4v-18l1-23 2-9 7-14 11-13 7-7 18-13 23-12 21-7 15-3h6l5 8 5 9 11 13 14 10 14 6 11 3 6 1h19l17-4 16-8 13-10 2-3h2l2-4 5-7 4-4 6-15z" fill="#28231D"/>
<path transform="translate(419,522)" d="m0 0h13l145 7 11 1 48 48 4 5 2 1v2h2v2h2l7 8 98 98v2h2v2l3 1 7 8 12 12v119l-2 280-1 47-17 9-8 7-8 11h-1l-1-7-6-417v-15l1-30-5-15-8-16-9-12-11-12-9-8-5-5-14-9-6-4-10-4-22-8-1-9-4-5-6-4-5-7-8-4-6-7-11-6-3-3-5-1-10 1-3 5-2-1v-2l-4-2-7-7-7-5-15-7-14-4-16-1-17 3-10 3-16 10h-3v2l-4 2-3 4h-8v2l-3 2-5 6h-11v9l-4 5-5 4-9 16-3-1-4-10-8-7-9-4h-11l-8 4-4 5-2 4-2 11-9 1-11-3-6-2-6-7-7-3-2-4h-6l-4-4-4-13-2-4h-2l-3-6-5-9-3-1v-6l3-4 4 1 5 5 13 9 11 5 15 4h21l14-3 15-8 9-7 7-8 3-7 5-10 4-13 2-11z" fill="#28231D"/>
<path transform="translate(582,666)" d="m0 0h25l20 4 20 8 14 8 13 11 10 11 8 14 1 49v18l-7 8-10 10-8 7-22 22h-2v2l-8 5-4 4h-2l-2 4-11 9-4-3h-5l-4-4-2-1v-2l-11-2-8-7-3 1-1-2-9-3-4-3h-15l-10-1-9 3-4 1v-2h-10l-1-1h-9l-4 1-5-3-1-2-6-3-7-7-6-4-5-8 2-6 3-1 11 4h12l9-4 5-7 2-1h48l10 13 9 7 12 5 4 1h17l12-4 8-5 5-2 8-9 6-12 3-11v-16l-3-13 1-3 1 5 1-3h2v2l3-1 1-4-4-4-6-2v-5l-8-2-1 2-3-4-4-2-1-4-8-2-8-1-7-1h-8l-13 3-12 6-9 8-7 10-2 2-1 3h-2l-4-4-8 1-7 2v4l-4 1-2-4-5-2v3 4l-6 1-3-3v-2l-10-1-12-5-2-4-10-2-9-4-3-5-11-3-5-1-3-1-1 1-1 12-7 3-3 7-1 20-2 10-4 1-1 5-1 14-1 2h2v5l-2 2v21l1 5-2 7 1 8v13l-2 3-1 9-2 4-1 11 4 2 2-1-1 5-1 6 1 14 5 17 7 11 7 8 13 9 14 5 5 1v44l-3-3-4-7-8-7-7-7-6-4-13-3h-12v7 3l-4 4 2 9-2 4 2 6v11l1 4 3 3-2 5-4 9 1 10 3 6 4 4 3 2-2 2-9 3-5 5-4 7-2 8v13l3 11v3l-1 2-4 1v-2l-6-2-5 1-9-9-9-2-1-2 10-3 5-4 4-7 1-4 1-101 1-243 8-7 6-10 3-11v-17l3 1v-2l4-1 5-2 8-11v-4l1-4 1 3h2l4 6 7 8 5 2 11 8 14 6 13 3h20l15-4 16-8 12-11 8-11 5-9z" fill="#28231D"/>
<path transform="translate(866,200)" d="m0 0h30l5 1h6l2-1h33l10 2 4 2 7 2 2 2 10 1 2 1v2l4-1 3 3v2l7-1 8 3 7 8 4 7v5l6 1 2-2 2 1-1-3 3 1 4 5 8 5-5 5-3 4-2 6-1 29-1 50-73 73h-1l1-21 3-36 1-2 13-5 9-6 10-9 8-13 4-15 1-5v-15l6-3 3-6 1-16-4-6-5-2-1-7 1-6-6 2-5 3h-5v3l-6-2-15-10-11-5-12-3-6-1h-10l-15 3-10 4-11 7-8 8-8 13-4 12-1 8v11l3 16 6 12 8 11 7 7 5 2 10 6 7 4v13l-8 96-28 28-4 5h-2l-2 4-50 50h-2v-54l15-6 12-7 10-9 6-7 8-14 5-16 1-5v-24l-4-17-5-11-7-12-9-10v-2l-4-2-7-6-14-8-13-5-1-1v-16l2-43 1-13 16-6 9-5 10-9 6-7 4-4 5-12z" fill="#28231D"/>
<path transform="translate(361,416)" d="m0 0 59 1 65 2 89 2 16 1 3 3 5 2v2l4 2 8 8 8 7 17 16 4 5 9 7 5 5 8 7 31 29 12 11 15 14 10 9 7 7 8 7 17 16 13 12 2 6v66l-4-1v-2h-2v-2l-4-2v-2h-2l-4-5-3-5-4-5-5-4v-2h-2l-5-5-1-3h-2l-4-4 1-5h-3l-1-2h-3l-1-5h-5v-3l-4-2-1-3-4-4h3v-2l-7-1-3-1-4-6 1-2-5-2-4-4h-2l-7-8v-2l-3-1v-2l-4-2-9-9v-2l-3-1v-2l-4-2-1-3-3-1v-2l-4-2-2-4-5-4v-3l-4-2 2-1 1-5-3-4v-2l-7-2-4-1-3 1-1-7 1-2h-2l-1-7-6-4-4-4-8-4-9-3-7-5v-3h-9l-12-3h-27l-7 1-12-1-15-4h-21l-6-1-4 1-11-2-4-2-17 1-7-1-22 1-5 9 2 7-4 1-6-10-7-9-4-5-15-11-13-6-14-4-10-2 1-7 6-6 7-2z" fill="#28231D"/>
<path transform="translate(1e3 519)" d="m0 0 31 1 137 6 2 1 5 15 6 11 7 8v2l4 2 9 7 5 3 1 2 11 4 11 2h18l14-3 16-7 11-8 5-4 9-11 6-9 3-5 1-4 3 1-1 5-2 2 1 4 1 9-4 15-1 5v3h2v2l-8 7-5 8-4 11h2l-1 6-5 2v-2h-2l-1 3-8 3-7 2-13 2-12 3-6 2-1 2h-2v2l-3 1-4-10-4-4v-2l-4-2-11-3h-8l-10 3-7-3-4-2v-6l-4-2-2-4-10-8-10-6-5-2-9-4v-2l-6-2-2-2-7 1-2 2-5-1-13-8-17-5-13-2h-10l-13 2-13 4-12 6-4 3-3 1-2 2-9 1-6 3-5 1-10 3-3 1-1 3-4 2-3 7-5 2-3 4h-2l-3 1-1 4h-2v2l-6 4-3 4h-2l-1 6h-2v3l3 1 1 3-15 7-16 8-14 8-16 12-10 9-4 7-9 10-11 18-7 20-2 13h-3l-31-31 1-5 3-1v-2h2l2-4 34-34 7-8 30-30 7-8 33-33 7-8 31-31 1-2h2l2-4 20-20z" fill="#28231D"/>
<path transform="translate(1188,666)" d="m0 0h19l15 4 13 8 8 8 6 10 3 11v10l-3 11-6 10-7 7-14 8-2 1-1 246-1 91-4 9-7 5-3 1h-10l-8-4-6-9-1-5v-336l-11-4-9-7-8-9-5-12-1-6v-8l3-12 7-11 9-8 12-6z" fill="#F8F8F8"/>
<path transform="translate(1148,418)" d="m0 0h130l4 3-1 1 4 2 1 4-1 5 2 3h1v6l-6-2-8-3-12-3h-23l-15 4-16 8-12 9-1 2h-2l-2 4-7 9h-2v3l-6-1v-2l-10-3-4-1-6-1-2 1-2-4h-6l-6 4h-12l-3-1h-16l-8 3h-7l-4-2-8-2-16 1-10 2-6 1-3 1-9 2h-13l-3 2h-6l-5-2-7 4-1 3-18 1-6 8-10 10-4 6-12 12-1 2h-2l-2 4-33 33-1 2h-2l-2 4-32 32-7 8-32 32-1 2h-2l-2 4-17 17h-2v-50l7-8 60-60 4-5h2v-2h2v-2h2l2-4h2v-2l5-2 7-8 6-6h2l2-4 82-82 2-1z" fill="#28231D"/>
<path transform="translate(374,668)" d="m0 0h16l11 4 9 6 7 8 5 10 2 8v12l-3 10-7 10-6 5-1 75-1 267-3 10-8 7-5 2h-8l-8-4-5-6-2-5v-344l-10-8-7-9-4-10-1-4v-13l3-10 6-9 9-8z" fill="#F8F8F8"/>
<path transform="translate(1308,656)" d="m0 0h16l16 4 12 6 10 8 7 8 6 10 4 14v18l-4 13-6 10-8 9-10 7-14 6v16l7 127v11l-3 8-4 5-5 3-4 1h-8l-8-4-5-6-2-6-2-30-7-127-11-6-9-7-7-7-7-11-5-16v-16l3-12 6-11 9-10 9-7 12-5z" fill="#F8F8F8"/>
<path transform="translate(263,650)" d="m0 0h18l12 3 12 6 10 8 8 10 5 10 3 12v16l-3 12-6 12-8 10-11 9-15 7-3 1v23l4 113-2 10-4 6-8 5h-11l-8-4-5-7-2-8-5-143-6-2-9-7-7-7-7-12-4-13v-21l5-15 8-12 9-9 11-7 10-4z" fill="#F8F8F8"/>
<path transform="translate(814,760)" d="m0 0 4 2 36 36 1 2v22l-2 178v42l1 12v157l-2-2-5-12-7-10-5-5-8-7-15-8-1-1v-54l2-286z" fill="#2C261E"/>
<path transform="translate(692,844)" d="m0 0 2 1 1 59v22h-19l-15-6h-8l-10 5-5 2-4 8-1 4v13l-4 2-18-1-5 3-3 2-10 2-3 1v2l-12 5-8 5h-2l-1 7-4 6-3 7-6 3-4 9-2 1 1 6 3 23 3 7 1 8-5 5-4 8 3 8 3 9-2 7v7l3 1-2 3h-3v5l1 3h-3l-1 6-2 5-1 12 3 9 4 5 2 1v2l5 2 9 2 7-1 7-2 7-9 3-9h2l-1-9 1-4v-3l6 3 1 2 2-2v-5l-2-4 1-5-4-7-8-6-6-5-3-4-1-3 2-3 5-2 2-2 11 7 10 4 4 1-1 33-4 98-1 19-2 1-4-1-16 1h-11v-2l-4-1-1-5 5-4 8-6 4-5 4-9v-15l2-4-7-6v-2h-5v-2l-12-3h-9l-9 4-6 4-6 9-2 5-1 18-3 3-3-1-2-4-10-1h-6l-4-3 1-4 10-3 5-5 4-8 1-7 1-217 6-4 14-14 8-14 3-6h31l24-4 9-6 17-17h2v-2l8-7 24-24 8-7z" fill="#28231D"/>
<path transform="translate(614,983)" d="m0 0h18l13 4 11 7 8 8 6 10 3 9 1 6v10l-3 13-6 11-9 10-2 1-1 8-4 100-2 48-3 10-4 5-8 4h-10l-7-4-6-7-1-3v-27l5-125-10-2-11-6-8-7-7-11-4-10-1-5v-14l3-12 7-12 8-8 10-6 10-4z" fill="#F8F8F8"/>
<path transform="translate(1252,700)" d="m0 0 3 1 2 21 4 12v2h2l8 12 8 8 9 6 8 4 4 82 4 72 2 9 4 6 5 4 8 2 12-1 1 3-6 16-2 2-17 3-7-1-5-2-5 8-5 4-1 3v10h-2l-1 2-2-24-5-91-3-67-3-12-7-8-8-3-9 1-10 6-4 9v15l7 127 3 61 2 18 3 7 7 6 5 2h9l8-4h2v-2h2l-2 6-5 8-5 4-8 4-5 2-9-3-12 3-6 14-5 10-1 16-2 3h-2l-1-4 1-260 1-78 13-7 10-9 5-8 4-16z" fill="#28231D"/>
<path transform="translate(954,989)" d="m0 0h13l9 2 13 7 7 7 6 10 3 9v18l-5 14-7 9-9 8-7 4-1 5-2 144-2 8-4 6-8 5h-11l-6-3-5-5-3-7v-76l1-75-4-4-8-6-7-8-5-11-1-5v-15l3-11 7-11 5-5 8-7 11-5z" fill="#F8F8F8"/>
<path transform="translate(978,715)" d="m0 0 13 1 12 5 7 5v2h2l7 10 4 8 3 11h38l11 1 2-4 5-5 9-4h9l12 5 5 4 5 10 1 10-2 14-4 8-9 8-7 2-9-1-14-7-1-1-18-2-38-1-8 12-6 7-10 7-10 4-6 1h-11l-10-3-9-5-7-6-7-11-4-10-2-10v-13l4-17 7-13 9-10 10-7 10-4z" fill="#F8F8F8"/>
<path transform="translate(606,719)" d="m0 0h12l14 4 13 9 8 10 5 12 2 12-1 12-4 13-7 11-8 8-10 6-12 4h-17l-12-4-11-7-8-9-4-6h-50l-2 4-8 5-3 1h-13l-12-5-9-7-4-6-2-6v-13l4-9 5-6 9-5 4-1h14l10 4 9 7h14l31-2 8-15 7-8 10-7 9-4z" fill="#F8F8F8"/>
<path transform="translate(608,717)" d="m0 0h8l11 2 7 1 5 2 1 4 6 1 1 4 5-1h4l1 7 6 2 1 3 3 1-2 5h-3v-2h-2l1 3h-2l1 5 1 6v16l-5 16-7 11-7 7-2-1 8-8 7-12 3-11 1-12-2-12-5-12-8-10-12-8-14-4h-12l-12 3-11 6-6 5-6 8-7 13-1 1-31 2h-14l-11-8-8-3h-14l-10 4-5 4-5 9-1 3v13l4 9 4 5 12 7 6 2h13l9-3-4 4-6 2h-12l-11-4h-2l-2 6 4 6v2l4 2 8 7 4 3 4 2 2 3 4 1 3-1h9l1 1 10 1h4l9-3 15 1h10l5 4 9 3v2l4-2v2l4 2 3 3 2-1v2l9 2v2l5 2 3 2 4 1 3 2 11-9 10-10 2 1-23 23-8 7-14 14-2 1h-20l-16-2-5-8-7-9-9-8-10-6-12-4-6-1h-18l-13 3-14 7-9 7-8 10-6 12-3 11h-2v16h-1l-1-17 2-4v-3l-2 1-3-3v-11l2-4 1-9 2-3v-13l-1-8 2-8-1-8v-17l2-2 1-5h-2l1-16 2-5 3-1 2-10 1-20 3-7 2-2 5-1 1-12 2-2h6v2l11 2 5 5v2l8 2 9 3 6 5 10 4 10 2 3 4h6l-2-6 2-2 6 3 1 3 2-1 4-4 9-3 6 1 2 4 2-4 4-4 8-10 9-7 10-5z" fill="#533E2B"/>
<path transform="translate(1252,784)" d="m0 0 8 1 8 5 4 6 2 9 11 205-1 10-3 6-5 5-6 3h-9l-8-4-5-6-2-5-2-27-9-168v-26l5-8 5-4z" fill="#F8F8F8"/>
<path transform="translate(665,962)" d="m0 0h12l14 1 3 1 1 41 1 75v47l-5 1-6 2h-6l-4-1-1 14 4 8 2 11 9 1 2-11 1-1v-9l4-3 1 19v22l-1 2-7 1-6-1-4 2-3 5-2 5 1 7 2 4 3 3 1 3-4 4-3 7h-2v2l-9 2-3 12-6 9-8 4-9 2-2 1h-14l-2-2-2-3v-2l5 1h10l8-4 5-6 2-6 4-87 2-59 1-13 10-12 5-9 2-1 3-11v-16l-4-13-6-10-1-3-4-2-9-8-3-3 1-9h-2l4-10 10-2z" fill="#28231D"/>
<path transform="translate(638,926)" d="m0 0 2 1-4 6-2 8 1 9 5 8 6 4 3 1h9l5-2h21l9 1 2 1 1 13 2 144v58h-1l-2-38-2 2v9l-2 7-2 5-4 1-5-2-2-4-1-7-4-8 1-14 3-1 2 1h9l1-2h6v-47l-1-75v-41l-17-1h-12l-8 3h-7l-1 5-3 5h2l1 5-1 6 4 2 11 9 7 11 4 10 1 5v16l-3 11-2 1 3-15v-10l-3-12-5-10-9-10-11-7-13-4h-18l-10 3-11 6-10 9-7 12-3 12v14l4 13 6 10 5 5 7 6 11 5 7 2v22l-4 103v30l-2-2v-42l4-100 1-10-7-1-14-7-4-3-4 3-3 1-1 3 2 2 4 6 12 9 4 7-1 6 2 3v5l-4 3v-3l-4-1h-1l-1 9v5h-2l-2 9-7 9-3 2-8 2-10-1-8-4v-2l-4-2-5-8-1-6 1-11 4-11h3l-2-5 1-3 4-2-3-4 1-8 1-4-6-18 6-9 3-3-2-11-2-4-3-23-1-6 3-1 3-9 5-3h2l3-9 3-4 2-7 9-5 5-3 8-2v-2l6-3 9-2 3-3 3-1h8l10 1 4-1-1-2v-11l3-9z" fill="#543F2C"/>
<path transform="translate(323,788)" d="m0 0h11l8 5 4 5 2 8-1 47-4 149-2 9-4 6-5 4-6 2-10-1-6-4-4-5-2-4v-44l4-149 1-13 4-8 7-6z" fill="#F8F8F8"/>
<path transform="translate(997,962)" d="m0 0 7 1 10 6 8 11 8 6 3 4 2 7 5 7 3 5 1 12 2 6v9l-1 4h2l2 14-2 3-1 7-1 32-3 14-2 6h-2l2 14-3 11-5 8-8 5-6 2h-10v-2l-6-2-7-5-4-7v-13l4-12 5-5v-5h6l-1-3 1-11 4-5 3-2v-7l2-6 1-13-1-9-2-6-5-2-5 12-3 3 1-5 3-9v-18l-4-11-6-9-8-7-13-6v-2l-18-1 2-4-2-4 3-6 9-6 4-4h9l3 1 4-2z" fill="#533E2B"/>
<path transform="translate(722,303)" d="m0 0 2 1v4l2-2v10l1 8-1 13v12l3-3 2 1v-2h-2l-1-5 5-6 5 1v2h3l-1 3 2 2-6 1-1 4-3 1-4 7-3 2 1-5h-2l-1 8-3 8h-2l-1 5-5 14-1 5-1 2-1-1 1 3 1 23 6 21 6 12 8 11 1 3 4 1 11 10 11 7 13 6 5 2 1 1v45h-4l-7-7-8-7-6-5v-2l-4-2-9-9-8-7-7-7-8-7-17-16-13-12-4-4v-3l-4-2-3-3 1-45 2-49 16-8 11-9 8-10 7-14z" fill="#28231D"/>
<path transform="translate(332,694)" d="m0 0 5 1 2 1 2 3 2 1 2 15 5 12 7 9 9 7v43l-1 2-4-1-4-6-5 1-4 4-3 1-3 3-9-3h-9l-9 4-5 7-2 9-3 107-1 35-2 3h-3l-1 2v-2h-2l-1 3-4-1 1-4-9-1-3-3v-3l-10-1-4-5-4-10-2-3h15l8-5 5-7 1-4v-20l-4-104v-17l6-2v-2l15-8 10-9 7-10 3-3 5-15 1-16z" fill="#28231D"/>
<path transform="translate(984,713)" d="m0 0 9 1 14 7 7 6 6 8v3h2l2 2 3 13v3l20-1-1-4h3l2-4 5 2 2 4h-2v2h17l7-7 9-4 10-1 15 6 5 4 4 7h1v7l12-2 4-2 3 5v3l5 1 4 9 3 3 1 5h3v3l2 1-1 4-1 8 4 1 1 4 3 1 1 6-1 15v26l2 16-2 4-9 11-5 1 3 17v10l-3 15-7 14-7 9-4 4-2-1 9-10 7-12 4-16v-16l-4-14-6-12-11-13-14-9-14-6-9-2h-23l-12 3-16 8-12 11-7 9-4 2h-31l-18-18h3l13 13 3 1 1-3 3-1v-3l2-1-2-2 5-5h2v-2l8-5 6-2 5-2v-3l10-4 1-1 18-2 6 1 1-2 7 2 13-1 4 2 7 1h4l-1-2h8v-3l8-2 12-13 6-5 1-2 1-17-1-7-1-4h-2l-6 10-8 6-5 2h-11l-12-5-3-2v-2l5 2 13 5 9-1 7-4 6-7 3-10 1-12-2-10-5-8-12-6-3-1h-9l-10 5-3 1-3 6h-49l-3-9-4-9-6-9-1-3h-2v-2l-16-8-9-2-14 1-12 5-9 7-7 8-7 13-4 17v13l4 16 6 11 5 7-4-2-7-10-5-13-2-14 1-13 2-11 9-16 7-8h2l1-3 10-6 11-4z" fill="#533E2B"/>
<path transform="translate(632,197)" d="m0 0 9 2h6l-1-2h82l6 18 5 10 3 2 3 7 11 11 11 7 5 3-2 48-1 21-1-3-10-3-3-12 1-4-4-2-4-1-4-8v-2h-2l-2-9h-2v-2h-3l-2-9-5-9-6-1-4 2-5-9-3-5-2-1v-3l-4-2-7-6-15-8-16-4h-15l-16 4-5 2-10 6-7 4v-3l-3-1v-2l-3-4 1-7h1l1-6-2-1 7-4 1-4h2l1-5 5-2v2l7-4z" fill="#28231D"/>
<path transform="translate(435,977)" d="m0 0h10l13 3 9 7 10 10 6 5 3 7v45l-6 2-5 1-3 3-2 3-1-3-1 2h-2l-4 6h-4l2 4 4 1-1 6-8-6 5 5 4 8 1 5v9l-4 13-5 7-9 5h-12l-6-4-6-7-4-10v-16l5-12 7-6 6-2 2-3-8-7-2-5-1-10 4-9 2-5v-2l-3-1-1-10-1-9-1-3 2-4-2-9 5-5-1-5 1-3z" fill="#533E2B"/>
<path transform="translate(779,368)" d="m0 0h18l11 4 9 6 9 9 8 16 1 5v18l-4 11-6 8-7 6-9 4-4 1h-13l-9-2-11-6-10-9-7-11-4-13v-17l4-11 4-6 7-7 10-5z" fill="#2C261E"/>
<path transform="translate(573,231)" d="m0 0 11 3 6-1 4 2 3 7 3 11-1 6-5 15-1 7v14l1 10 5 12 6 10 9 10 8 6 11 6 3 1-1 50-1 5-5-3-4-5-2-1 1-4 1 2v-4l-2-2-4 1-4-2v-2l-4-2h3l1-9-3-5-2-20-3-1-10 6-3 1 1 5-3-1v4l-4 1-1-3-4-2-8-7-5-3-7-8-7-7 5-81v-11l8-6 2-3h2z" fill="#28231D"/>
<path transform="translate(1085,334)" d="m0 0h51l3 3 6 8 7 6 4 4 13 4 9 1 15-2 9-4 9-6 4-4h2l2-5h3l1 6 2 9 1 3-2 7 1 9 1 3-18 1-123 1h-42l6-7 35-35z" fill="#29231D"/>
<path transform="translate(361,802)" d="m0 0 5 1v222l-1 20-4 1-9-2-9 1-2-10-9-1-5-3h-4-3l-4-1-1-7 4 1h8l10-5 4-6 2-7 1-17 3-126 2-52 3-5 5 4 2-2z" fill="#28231D"/>
<path transform="translate(439,332)" d="m0 0h12l39 3 9 1 11 12 6 3 12 12 8 7 6 7v2h-21l-105-3-25-1-1-2h2l-2-6-1-7-3-6v-7l4-1 10 4h15l11-4 8-7z" fill="#28231D"/>
<path transform="translate(1070,596)" d="m0 0h15l11 4 9 6 7 8 5 10 1 6v10l-3 10-6 10-8 7-11 5-5 1h-14l-12-4-11-8-7-10-2-7-1-8v-10l4-10 6-8 7-6 8-4z" fill="#2E271F"/>
<path transform="translate(440,462)" d="m0 0 8 1 16-1 8 3 8 1 5-1 4 1h21l15 4 16 1 3-1h27l14 3 7 1 2 4 9 5 7 2 8 5 6 5 3 2v7h2v9h2l1-3v2l8 1 4 4 3 4-2 7 2 1 3 5 3 1 2 5 6 5 6 7 13 13 5 4 7 8v2l3-1 1 3 7 4 1 4 2 4 3-1v2l7 1v2l-2 1 8 8v3l6-1 1 4-1 2 4 1h3v4 2l3 2v2h2l5 5 1 3h2l5 5 7 8-1 2-95-95v-2h-2l-7-8-44-44-10-5-4-1v-2l-32-2-122-6-27-1-2-2-2-8h2l1-5 3-4z" fill="#533E2B"/>
<path transform="translate(338,475)" d="m0 0 11 1 9 4 8 6 7 8 5 11 1 4v17l-4 10-6 8-8 5-7 2h-10l-10-3-11-8-7-9-4-9-2-10v-8l4-13 7-9 8-5z" fill="#28231D"/>
<path transform="translate(504,601)" d="m0 0h11l10 3 11 8 7 11 3 10v7l-4 15-4 6-8 7-11 4h-13l-11-4-10-8-6-10-3-12 1-12 4-10 7-8 11-6z" fill="#29241D"/>
<path transform="translate(1245,473)" d="m0 0h11l8 3 9 6 6 10 2 8v8l-2 9-6 11-8 8-8 5-11 3h-9l-9-3-8-5-6-9-3-11 2-16 6-11 5-5 7-6 9-4z" fill="#28231D"/>
<path transform="translate(464,223)" d="m0 0h11l10 3 9 6 4 5 4 14-1 9-4 8-7 8-11 8-7 3-11 1-10-3-7-5-6-10-1-4v-12l3-12 6-9 7-6z" fill="#F8F8F8"/>
<path transform="translate(1144,992)" d="m0 0h9l5 4 5 16v2h-2l1 7h-2v5l3 3 1 4v13l-4 10-7 6-14 4h-6l-9-6-5-6-4-8-1-10 2-6v-4l-2-1 3-4 1-5h-3l-1-3 10-5 4-6 12-9z" fill="#533E2B"/>
<path transform="translate(742,229)" d="m0 0 15 15 11 7 5 3v18l-3 58-9 4-16 8-12 10-9 12-8 17-3 13v25l4 16 6 14 8 12 3 5h-2l-10-14-6-12-6-21-1-21h-1v-6h2l1-5 6-16 1-3h2l1-8h2l1-8h2v4l4-5 2-4h3l1-4 4-4 1-2h-3l-1-2-5 1-3 4v5h2v2l-6 3v-13l1-15-1-11v-3l-2 1v-5l-1-1-1 7-8 16-11 12-13 9-9 4h-2v19l-2 65v10l6 5v2l-4-2-4-4v-22l2-72 4-4 14-7 6-5h2v-2h2l2-4 6-8 6-12 3-12v-21l-3-11v-5l5-3 6 2 5 9 1 9h3v2h2l2 9h2l4 7v3l7 1 2 4-1 4 2 9 6 2 4 2 3-60v-6l-11-6-12-11-6-7z" fill="#533E2B"/>
<path transform="translate(789,158)" d="m0 0h9l11 4 10 9 5 9 2 10v10l-4 10-7 7-9 4h-10l-11-4-8-7-6-8-3-10v-8l2-10 4-7 7-6z" fill="#28231D"/>
<path transform="translate(1098,228)" d="m0 0h16l8 3 6 5 5 9 1 4v10l-4 11-8 9-8 4-11 1-15-5-8-7-3-8v-10l3-8 6-10 7-6z" fill="#F8F8F8"/>
<path transform="translate(1076,886)" d="m0 0h15l10 4 8 7 5 8 1 3v9l-4 9-7 6-7 3h-17l-10-4-9-8-4-9v-12l5-8 6-5z" fill="#2D261F"/>
<path transform="translate(481,1054)" d="m0 0h5v100l-3 1-3-11h-3v-2l-6-1-3-2-13-1-3-2 2-1-20-2-2-2v-3l8-1 12-1 8-9 4-8 2-8 2-13h-2l-1-8 1-2-3 1-1-6-4-2-2-5 6 1 3-7 1 2h2l1-3h3 2l2-4z" fill="#28231D"/>
<path transform="translate(558,1170)" d="m0 0h9l11 6 7 6 3 7v10l-4 9-7 9-9 5-4 1h-8l-8-3-8-7-3-5-1-4v-12l4-9 6-7z" fill="#FDD092"/>
<path transform="translate(434,1069)" d="m0 0h11l9 4 7 6 3 7 1 5v9l-4 13-5 7-9 5h-12l-6-4-6-7-4-10v-16l5-12 7-6z" fill="#FDD093"/>
<path transform="translate(1325,577)" d="m0 0h9l8 3 7 8 3 6 1 5v11l-4 10-8 7-8 3h-8l-10-4-3-2v-2h-2l-5-8-2-8 1-10 4-8 8-7z" fill="#FDCF90"/>
<path transform="translate(652,263)" d="m0 0h13l8 4 5 4 5 10v13l-4 9-7 7-6 3h-16l-8-4-6-7-3-8v-11l3-8 7-8z" fill="#28231D"/>
<path transform="translate(921,267)" d="m0 0h13l10 4 8 7 6 12v11l-4 8-8 6-3 1h-13l-10-4-8-7-5-8-1-3v-12l4-8 6-5z" fill="#28231D"/>
<path transform="translate(1072,555)" d="m0 0h10l13 2 17 5 15 9 1 3-4-2-17-9-14-4-6-1h-19l-14 3-13 5-14 9-11 11-7 11-4 8-5 16-4 2-18 3-21 6-19 8-19 10-17 12-15 13v-3l11-10 15-11 21-12 22-10h2v-2l-3-1-1-4h2l1-6h2l2-4 5-4h2v-2l2-1 1-3 5-3 3-3 5-1 1-5 4-4 6-5 10-3 5-1 6-3 7-1 10-5 6-4 15-6 8-2z" fill="#553F2C"/>
<path transform="translate(1139,1078)" d="m0 0h8l9 4 5 4 4 7 1 5v8l-4 11-6 7-8 4h-11l-6-3-7-6-4-10v-11l4-9 6-7z" fill="#FDD194"/>
<path transform="translate(853,232)" d="m0 0v3l-7 8-9 8-14 7-9 3-3 65v4l17 6v2l5 1 2 1 1-6 3-3 6-3 6-9v-6l4-3 5 2 1 5-2 4h5v4l4 2 3 7v9l-1 2-3 19 3 1 3 9 6 2-1 5-2 5v3h-2v-2h-2l4 20v17l-2 13-4 12-5 10-6 8v-3l8-14 5-16 1-5v-24l-4-17-5-11-7-12-9-10v-2l-4-2-7-6-14-8-13-5-1-1v-16l2-43 1-13 16-6 9-5 10-9z" fill="#543F2B"/>
<path transform="translate(562,1101)" d="m0 0h11l8 5 6 8 1 3v13l-4 9-8 7-6 2h-8l-9-4-7-8-2-7 1-10 3-8 7-7z" fill="#FDD091"/>
<path transform="translate(1016,1174)" d="m0 0h10l9 4 6 9 1 3v10l-4 11-6 7-7 3h-10l-8-4-6-7-2-7v-12l5-10 6-5z" fill="#FDD194"/>
<path transform="translate(923,226)" d="m0 0h10l12 2 13 5 12 7 8 6h3v2h2v-3l9-3 2-2h5v8l1 5 5 2 4 6-1 16-3 6-6 4v14l-4 16-3 7-7 11-7 7-8 6-11 5-6 1-4 51v7l72-72 1-50 1-29 4-9 6-5-5-4-6-5-1-4 7 6 6 4 3 1-1 3-6 4-4 8-1 6-1 73-7 8-69 69-2-1 5-61 12-5 11-7 9-8 8-13 4-12 1-5v-16l-4-16-6-12-9-11-11-9-14-7-15-4h-19l-15 4-12 7-10 9-7 11-5 12-1 6v19l4 15 6 11 8 10 6 7-4-2-8-8-8-13-4-8-3-16v-11l2-12 4-9 7-12 9-9 7-5 11-5 11-3z" fill="#533E2B"/>
<path transform="translate(374,608)" d="m0 0h10l10 5 6 7 2 5v7l-6 15-4 5-6 3h-10l-6-3-5-6-5-16v-9l3-6 6-5z" fill="#FDD092"/>
<path transform="translate(1016,1107)" d="m0 0 9 2 5 3v2h2l4 8 1 4v7l-4 10-5 5-6 4-3 1h-9l-10-5-5-6-2-11 2-8 6-9 7-5z" fill="#FDD091"/>
<path transform="translate(494,886)" d="m0 0h10l10 4 6 7 2 10-3 9-8 7-7 3h-12l-8-3-5-5-3-4-1-3v-9l5-9 10-6z" fill="#2E271F"/>
<path transform="translate(1075,613)" d="m0 0 8 1 6 3 6 7 3 6v10l-5 10-5 5-4 3-10 1-10-5-7-11-1-3v-8l4-10 8-7z" fill="#FDD092"/>
<path transform="translate(255,583)" d="m0 0 9 1 8 6 5 10v11l-4 9-6 5-5 2h-12l-8-4-5-7-1-3v-12l3-8 4-5 8-4z" fill="#F8F8F8"/>
<path transform="translate(771,716)" d="m0 0 4 3v119l-2 280-1 47-17 9-8 7-8 11h-1l-1-7-6-417v-15l1-25h1v28l3 193 2 133 1 78 1 27 8-10 9-7 13-7 2-296 1-69v-78z" fill="#5F4932"/>
<path transform="translate(1210,610)" d="m0 0 10 1 10 5 4 6 1 4v7l-4 11-5 5-6 4-3 1h-8l-6-3-6-7-3-10v-10l4-8 8-5z" fill="#FDD091"/>
<path transform="translate(1063,239)" d="m0 0 7 4h3l3 5v14l3 9 4 5v2l6 2 11 4h12l12-4 7 5v2l8 2-1 5-74 1v-33l-4-10-6-5v-2z" fill="#28231D"/>
<path transform="translate(507,619)" d="m0 0h11l6 4 5 6 1 3v16l-4 8-7 6-2 1h-11l-6-3-5-6-4-10v-7l3-8 2-3h2v-2z" fill="#FDCF90"/>
<path transform="translate(1372,744)" d="m0 0 4 4-1 2-2-1 1 2v9l-3 12-2 1-2 7-3 5v4h-2l-1 5-5 4-5 10-5 5-2 10-1 4 1 6h-2l-1 2-1-10-3-45v-10l9-4 11-6 10-9 1-2h2z" fill="#28231D"/>
<path transform="translate(1138,1023)" d="m0 0h9l8 4 6 7 1 10-3 9-8 7-5 2h-12l-8-4-6-8-1-3v-11l4-6 5-4z" fill="#FDD091"/>
<path transform="translate(792,390)" d="m0 0 10 2 8 6 4 9v10l-3 6-5 5-4 3-4 1h-9l-8-4-6-7-2-6v-8l4-8 8-7z" fill="#FDD091"/>
<path transform="translate(790,1201)" d="m0 0 7 1 9 5 7 7 3 7v8l-4 7-7 4h-14l-10-5-8-9-1-3v-11l4-6 5-3z" fill="#2E271F"/>
<path transform="translate(267,689)" d="m0 0h10l10 5 4 6 1 3v9l-4 8-7 6-6 2h-10l-8-3-6-7-1-3v-10l4-8 6-5z" fill="#28231D"/>
<path transform="translate(435,1253)" d="m0 0h2l1 2h3v3l3-1 3 4v3l6 2 2 3v3l6 1 5 3v2l3-1-1-6 2-1 5 5 4 1 2-1 3 3 1-2h2l3 8 2-4h4l4 9v2l4 1v-2l7 1h4l6-1h8l6-2 1-5 5 2 1-3h13v2h2v-2l5-1 11-5h3l1-2-1 6-5 5-5 2h-17l-14 7-17 3-3-1v2l-7 1-3 2-7-2h-4v-2h-16l1 3-3-1v-2l-4-1 4-1v-3l12-1v-2h-3v-2l-6-1-1-2-6-2v-2l-4 1-10-1-3-3-2 4h-2l-1-3-4 2 1 6-2-1v-3h-2v5l-2-2v-6h2l1-7-7-1-1-4-5-2-1-2 6 1v-2h-2l-1-6h2z" fill="#654F35"/>
<path transform="translate(1312,695)" d="m0 0h9l9 3 7 6 3 6v10l-5 7-5 3-4 1h-13l-10-5-6-7-1-3v-8l3-6 5-4z" fill="#2E271F"/>
<path transform="translate(445,1025)" d="m0 0h8l6 3 5 6 4 11-1 9-5 7-5 3-4 1h-7l-8-3-5-5-3-6v-7l4-10 5-6z" fill="#F8F8F8"/>
<path transform="translate(1153,735)" d="m0 0 7 6 8 6 12 5v336l3 9 4 5 7 3h10l8-4 4-7 1-3 1-91 1-246h3l-1 78-1 264-5 5-6 5-6 2h-9l-8-4-6-7-2-5v-228l1-111-6-1-11-6-9-9z" fill="#5E4931"/>
<path transform="translate(519,244)" d="m0 0h1l-1 26-1 22-1 3h-14l-40-3-14-2 1-2h20l10-4 6-4h2v-2l8-7 5-6h5l4-4h2l1-10 4-3z" fill="#28231D"/>
<path transform="translate(601,256)" d="m0 0 1 2-5 12-2 9v19l3 12 8 16 11 12 13 8 7 3v38l-1 21h-3l-7-7-8-7-7-7-8-7-17-16-2-1v-2l-4-2-8-8h3l10 9 3 3h4l-1-4v-6h1l2 6v-4l13-8 4 2 2 20 3 5v6l-3 4 2 1v2h5 3l3 3 1 4-3-1 1 2 3 5 5 4 1-4 1-38 1-12-6-1-14-9-10-10-8-13-5-13-1-9v-14l2-10 5-14z" fill="#543F2B"/>
<path transform="translate(1251,782)" d="m0 0 9 1 6 3 7 8 3 14 4 85 4 71 2 44v10l-4 11h-2v2l-10 5h-9l-8-4-6-6-3-12-2-33-5-95-4-72v-15l4-9 9-6zm1 2-8 3-6 5-3 6v26l10 186 2 12 4 6 5 4 5 2h9l8-4 5-7 2-7-2-44-9-167-2-9-4-6-8-5z" fill="#614B33"/>
<path transform="translate(326,373)" d="m0 0 48 1 147 4 21 1-1-3 4 2v2h-34l-113-3-30-1h-43l-8 4-4 5-2 5v8l4 8 6 5 7 2 261 7 6 5h-3l-2-2-16-1-89-2-65-2-44-1-50-2-8-3-7-8-2-5v-11l4-7 7-6z" fill="#614C33"/>
<path transform="translate(360,738)" d="m0 0 4 2 4 3v344l4 8 5 4 5 2h8l8-4 5-6 2-8 1-267h1v270l-3 8-5 6-6 3h-12l-8-4-5-6-2-4-1-346z" fill="#654F35"/>
<path transform="translate(933,22)" d="m0 0h2l1 3-1 6 1 2 3-5 2 1-2 5h3v2h-2l1 5 1 3 2 1v2l3 1 1 2v6l-3 6 2 13 1 5-1 8 2 4 4 2 2 2 9-3 3 1 4-4 5 4-1 2 2 1-4 7-2-1-1-3-4-1-2 1v2l2 2-2 1-4-1-5 1-4-3-8 1-2-1-1 2-1-3 2-4 1-8v-17l-1-3v-12l-3-1v-2l-3 1-1-1v-6l2-1-3-1-1-6h-2v-11z" fill="#665036"/>
<path transform="translate(376,1320)" d="m0 0h5l2 4 2 1v2l3 1 1 4 9 2 5 2 3-4 2-1 1-3 3 7 2-1 6 3 2 5 6 2-1-3 4-1 5-1 2-1v2h5l3 6 7 4 8 11 1 7h6l2 6-5 1-4-4v-2l-4-1-2-2-1-4-2 1-2-4-5-2v-2l-6-2v-2h-6l-5-2-6-3-3 1v-3l-2 1h-11l-2-2h-4l-8-4-5-6-4-4-1-3-5-3z" fill="#654F35"/>
<path transform="translate(1132,959)" d="m0 0 1 2-13 8-14 5-7 1v78l-1 111-2 16-4 6-6 5-11 2-9-3-6-5-4-8-1-7 1-125 1-47v-28l-6-4 2-1 6 4v47l-1 104v55l4 9 7 5 3 1h8l7-3 5-5 3-8 1-58 1-104 1-38 16-5 14-7z" fill="#5F4A32"/>
<path transform="translate(984,713)" d="m0 0 9 1 14 7 7 6 6 8v3h2l2 2 3 13v3l20-1-1-4h3l2-4 5 2 2 4h-2v2h17l7-7 9-4 10-1 15 6 5 4 3 5 2 12-1 15-2 7-5 8-9 6-3 1h-11l-12-5-3-2v-2l5 2 13 5 9-1 7-4 6-7 3-10 1-12-2-10-5-8-12-6-3-1h-9l-10 5-3 1-3 6h-49l-3-9-4-9-6-9-1-3h-2v-2l-16-8-9-2-14 1-12 5-9 7-7 8-7 13-4 17v13l4 16 6 11 5 7-4-2-7-10-5-13-2-14 1-13 2-11 9-16 7-8h2l1-3 10-6 11-4z" fill="#5F4931"/>
<path transform="translate(952,920)" d="m0 0 4 2 4 6 1 3v15l-4 10-7 8-12 5h-7l-10-3-27-1v212l-2 74-2 11-4 6-8 5h-10l-6-3-6-7-2-5-1-13-7 13-6 5 2-4 6-9 6-14h1l1 19 3 9 5 5 6 2 9-1 6-4 3-5 1-4 1-20 1-40 1-63v-80l-1-14v-75l1-2h16l15 1 5 2h11l9-4 4-2 6-12 1-5v-10l-3-7z" fill="#614B33"/>
<path transform="translate(608,717)" d="m0 0h8l11 2 7 1 5 2 1 4 6 1 1 4 5-1h4l1 7 6 2 1 3 3 1-2 5h-3v-2h-2l1 3h-2l1 5 1 6v16l-5 16-7 11-7 7-2-1 8-8 7-12 3-11 1-12-2-12-5-12-8-10-12-8-14-4h-12l-12 3-11 6-6 5-6 8-7 13-1 1-31 2h-14l-6-5h3l4 3h23l-1-4 4-4 9-3 6 1 2 4 2-4 4-4 8-10 9-7 10-5z" fill="#58422D"/>
<path transform="translate(1195,699)" d="m0 0h9l7 5 3 5v6l-4 6-6 5-3 1h-8l-8-4-3-7 1-8 6-7z" fill="#312920"/>
<path transform="translate(688,1127)" d="m0 0h8l1 7v24h-1l-1-18-2 2v9l-2 7-2 5-4 1-5-2-2-4-1-7-4-8 1-14 3-1 2 1h9z" fill="#523D2A"/>
<path transform="translate(1021,234)" d="m0 0 7 6 6 4 3 1-1 3-6 4-4 8-1 6-1 73-7 8-69 69-2-1 5-61 12-5 11-7 9-8 8-13 4-12 1-5v-22h1v5l2 1v13l-4 16-3 7-7 11-7 7-8 6-11 5-6 1-4 51v7l72-72 1-50 1-29 4-9 6-5-5-4-6-5z" fill="#5C4730"/>
<path transform="translate(738,65)" d="m0 0h6v2l-6 3-1 2h-2l-1 3-6 2-1 2h-9l-2 1v-2h-3l-1 3h-8l-5 3-17 1-5 1-4-1 1 1v3l-7 1h-6l-3-1h-5v-2h-9l-4-2v2h-2l-1-3 4-1 11 1 10-1 4-3 14-2 4-1h19l6-2 11-1 11-2 1-3z" fill="#654F35"/>
<path transform="translate(581,1316)" d="m0 0h2v4h2l1 7-2 2-7-1-8 1-8 2-20 3-10 6-6 2-1-5 6-1 1-8h2v-3l3-1h8v3h7l1-3h12l2-1 1-4 2-2 6 2h2l4-1z" fill="#654F35"/>
<path transform="translate(892,340)" d="m0 0 4 2 16 9v13l-8 96-28 28-4 5h-2l-2 4-50 50h-2v-54l15-6 9-5 2 1-11 7-12 4-1 1v49l40-40 7-8h2v-2h2l2-4 30-30 4-40 5-60v-8l-12-6-6-5z" fill="#604A32"/>
<path transform="translate(533,954)" d="m0 0 2 1-6 4-1 217-2 10-6 9-8 4h-7l-9-3 2-1 3 1h11l6-3 5-6 2-6 1-157 1-66z" fill="#5F4932"/>
<path transform="translate(894,840)" d="m0 0 7 6 71 71 7 3h10l15-3h14l3 9 4 10 5 8v2h-2l-8-15-3-10v-3l-23 3-6 2h-9l-8-4-6-5-7-8-62-62-1 2v34l-1 46 14-1 3-4 2 1-3 5-2 1h-16l1-87z" fill="#5E4931"/>
<path transform="translate(1312,630)" d="m0 0 12 2 13 1 1 6-10-1v2l3 1 2 4 1 9-4 1-2-2h-5v1h-8v-2l-2-1 5-3-7-1-1-3 1-12z" fill="#28231D"/>
<path transform="translate(640,527)" d="m0 0 7 2 3 5 3 1 2 5 6 5 6 7 13 13 5 4 7 8v2l3-1 1 3 7 4 1 4 2 4 3-1v2l7 1v2l-2 1 8 8v3l6-1 1 4-1 2 4 1h3v4 2l3 2v2h2l5 5 1 3h2l5 5 7 8-1 2-95-95v-2h-2l-7-8-15-15z" fill="#5F4A32"/>
<path transform="translate(950,988)" d="m0 0h18l5 1v1h-19l-12 3-11 6-5 5h-2l-2 4-5 7-4 10-1 5v15l3 10 6 10 9 8 6 4 1 4-1 73v80l-2-3v-153l-9-6-7-7-8-16-1-7 1-16 6-14 8-10 4-2v-2l10-6z" fill="#604A32"/>
<path transform="translate(619,1022)" d="m0 0h8l5 3 3 5-1 7-5 5-2 1h-9l-6-5-1-2v-6l4-6z" fill="#342B21"/>
<path transform="translate(797,54)" d="m0 0 2 2-3 3 6-2h7l1-2 2 4-7 1-5 4h-8l-2 2-5 2h-5l3 5-5-1-2-3-6-1-2-1v-2h-6l-3-1h-9v-3l-2 2-4 2-1-1v-5l10-1 1 1h17v3h2v-2h2l2-2v4l7-2 2 1v-2l10-4z" fill="#654F35"/>
<path transform="translate(435,898)" d="m0 0h1l1 17 3 11 6 12 8 10 13 9 13 5 7 2 1 3v218l-2-3-1-34 1-183-8-1-12-5-13-9-8-9-7-12-3-10z" fill="#654F35"/>
<path transform="translate(332,435)" d="m0 0h20l17 5 13 7 13 10 9 11 7 11v2l54 2 120 6 12 2-4 1-53-3-126-6-5-2-7-12-11-12-10-8-16-8-18-4h-13l-15 3-3-1z" fill="#665036"/>
<path transform="translate(978,755)" d="m0 0h5l3 4 1 3v10l-3 8-7 6-4-2-3-7v-7l3-9z" fill="#352C22"/>
<path transform="translate(1e3 519)" d="m0 0 31 1 137 6 2 1 5 15 6 11 7 8-1 2-9-10-7-15-2-6v-4l-41-1-113-5h-16l-7 8-5 5-7 6-3 3v-3l21-21z" fill="#5E4931"/>
<path transform="translate(224,750)" d="m0 0 6 5 7 4 6 4 1 17v21l-3-2-2-11-7-11-3-6-1-12v-4l-3-1z" fill="#28231D"/>
<path transform="translate(1016,1172)" d="m0 0h13l6 3 7 8 2 6v15 3l-6 9-1 4-4 2-10 2-8-1-7-2-5-4v-2h-2l-3-6-2-15 3-10 4-6 6-4zm0 2-9 4-5 6-3 7v12l3 9 8 7 5 2h10l8-4 5-6 4-11v-10l-5-10-5-4-6-2z" fill="#5A452F"/>
<path transform="translate(999,1056)" d="m0 0 1 2-6 8-9 8-7 4-1 42-1 86-1 23-3 9-5 5-8 4h-10l-10-5-2-3 1-3 2 4 4 2 5 2h11l8-5 4-7 1-6 2-144 2-6 11-7 7-7z" fill="#5E4931"/>
<path transform="translate(324,786)" d="m0 0h9l9 4 2 5-10-6h-11l-6 3-5 6-2 5-1 13-5 193-2-4 4-169 1-29 2-9 6-8z" fill="#614B33"/>
<path transform="translate(631,719)" d="m0 0 8 3 1 4 6 1 1 4 5-1h4l1 7 6 2 1 3 3 1-2 5h-3v-2h-2l1 3h-2l1 5 1 6v16l-5 16-7 11-7 7-2-1 8-8 7-12 3-11 1-12-2-12-5-12-8-10-12-8v-2l-5-1z" fill="#5A452F"/>
<path transform="translate(1217,93)" d="m0 0h3l3 6 1 11 6 1 2-5 1 3 4-1v2l-5 2 2 2h-5v2l2 1-11 5-2 6 1 5-3 1-1-1h-2v-3h2l1-7h-2l-1-4 1-12 2-3h-3v-5l2-3h2z" fill="#654F35"/>
<path transform="translate(610,758)" d="m0 0 6 1 4 4 1 7-3 7-5 4h-7l-3-2-1-6v-9l5-5z" fill="#362D22"/>
<path transform="translate(1245,473)" d="m0 0h11l8 3 9 6 6 10 2 8v8l-2 9-6 11-8 8-8 5-11 3h-9l-9-3-8-5v-2l4 2 9 4h2l-2-2 6-1 2-2 9 4 6-1 6-3 8-7 6-10 2-7v-13l-3-9-7-8-10-5-11-1-13 4-9 7-6 7-3 3 2-5 4-6 11-8 7-3z" fill="#604A32"/>
<path transform="translate(347,816)" d="m0 0h1v47l-3 126-1 17-3 9-4 5-10 5h-8l-7-4 2-1 6 2 10-1 6-4 4-6 2-9z" fill="#614B33"/>
<path transform="translate(601,256)" d="m0 0 1 2-5 12-2 9v19l3 12 8 16 11 12 13 8 7 3v38l-1 21h-3l-7-7-8-7-3-4 4 2 3 3 4 1 2 4 5 4 1-4 1-38 1-12-6-1-14-9-10-10-8-13-5-13-1-9v-14l2-10 5-14z" fill="#604B33"/>
<path transform="translate(1138,1076)" d="m0 0h10l9 4 5 4 5 9 1 3v9l-2 9-5 8-3 4-10 4h-12l-9-5-1-3h-2l-5-9-1-4v-11l3-9 3-4h2v-2l7-5zm1 2-10 5-6 7-3 8v11l4 10 8 7 5 2h11l9-5 6-8 3-9v-8l-3-9-5-5-5-4-6-2z" fill="#5B462F"/>
<path transform="translate(433,1067)" d="m0 0 12 1v1l-11 1-7 4-5 8-2 6v16l5 12 8 7 2 1h12l7-4h2l6-12 2-8v-9l-3-10-5-6-3-3 5 2 4 4h4v10h2l-2 18-4 9-5 7-5 5-12 1-10-4-7-7v-2l-3-1-3-11v-13l2-8 5-9 6-5z" fill="#5E4831"/>
<path transform="translate(923,226)" d="m0 0h10l12 2 13 5 12 7 9 7-1 3-9-8-14-8-13-4-5-1h-19l-15 4-12 7-10 9-7 11-5 12-1 6v19l4 15 6 11 8 10 6 7-4-2-8-8-8-13-4-8-3-16v-11l2-12 4-9 7-12 9-9 7-5 11-5 11-3z" fill="#5F4932"/>
<path transform="translate(682,452)" d="m0 0 4 2 7 7 8 7 13 12 5 4v2l3 1v2l4 2 10 10 8 7 7 7 8 7 15 14 1-20v-22l-12-5-13-7-8-6v-2l4 2 10 7 15 7 5 2 1 1v45h-4l-7-7-8-7-6-5v-2l-4-2-9-9-8-7-7-7-8-7-17-16-13-12z" fill="#5F4A32"/>
<path transform="translate(746,339)" d="m0 0 2 1-9 7-6 5-9 12-8 17-3 13v25l4 16 6 14 8 12 3 5h-2l-10-14-6-12-6-21-1-21h-1v-6h2l1-5 6-16 1-3h2l1-8h2l1-8h2v4l4-5 2-4h3l1-4 8-3z" fill="#5F4A32"/>
<path transform="translate(718,263)" d="m0 0 2 2 2 5 1 6v24l-2 10-8 16-11 12-13 9-9 4h-2v19l-2 65v10l6 5v2l-4-2-4-4v-22l2-72 4-4 14-7 6-5h2v-2h2l2-4 6-8 6-12 3-12v-21l-3-11z" fill="#604A32"/>
<path transform="translate(1179,993)" d="m0 0h1v95l3 9 4 5 7 3h10l8-4 4-7 1-3 1-91h1l1 96-5 5-6 5-6 2h-9l-8-4-6-7-2-5v-98z" fill="#654F35"/>
<path transform="translate(654,1071)" d="m0 0 2 1-1 1-1 13-3 84-3 62-3 7-6 7-7 3h-10l-5-2v-2l-4-2-3-3 1-2 8 7 3 1h10l8-4 4-6 2-8 4-100 2-48 1-8z" fill="#604A32"/>
<path transform="translate(952,920)" d="m0 0 4 2 4 6 1 3v15l-4 10-7 8-12 5h-7l-10-3-27-1-1 76-2-1v-75l1-2h16l15 1 5 2h11l9-4 4-2 6-12 1-5v-10l-3-7z" fill="#5E4831"/>
<path transform="translate(789,158)" d="m0 0h9l11 4 10 9 5 9 2 10v10l-4 10-7 7-9 4h-10l-11-4-8-7-6-8-3-10v-8l2-10 4-7 7-6zm1 2-5 2-7 3v2h-2l-5 8-1 3v17l4 9 7 8 9 6 11 2 9-2 6-4 6-7 3-9-1-14-4-9-9-10-5-3-5-1-5 1v-2z" fill="#5F4932"/>
<path transform="translate(815,1349)" d="m0 0 1 2h7l-3 3h-2l-1 3-6 3-6 1-6 2-24 3-4-2h-4v-2h-2v-3h-2l-1 2v-2h-2v-2l-6-2-4-3 5-1v2h5v2h4v2l4 2 4 1 1-1 8-1 6 1v2l14-3 9-4h3v-2h2z" fill="#654F35"/>
<path transform="translate(1075,611)" d="m0 0 11 2 6 4 7 10 1 2v12l-4 8-4 6h-2v2l-8 4h-9l-7-3-7-8-5-10v-10l4-8 6-7 6-3zm0 2-9 3-7 8-3 8v8l5 10 5 5 8 4 10-1 7-5 6-10 1-3v-10l-5-9-7-6-7-2z" fill="#5B4630"/>
<path transform="translate(652,263)" d="m0 0h13l8 4 5 4 5 10v13l-4 9-7 7-6 3h-16l-8-4-6-7-3-8v-11l3-8 7-8zm2 1-4 3-1 1-1 3-5-1-5 5-3 7v14l3 6 7 7 8 3h11l8-4 7-8 3-10-2-12-4-6-7-6-8-2z" fill="#5F4931"/>
<path transform="translate(507,617)" d="m0 0h10l8 4 5 6 2 6 1 13-6 12-7 6-5 2h-9l-9-6-4-5-3-8v-14l4-8h2v-2l8-5zm0 2-9 5v2h-2l-4 7-1 4v7l4 10 6 7 5 2h11l6-4 6-8 1-3v-16l-4-7-6-5-2-1z" fill="#5D4831"/>
<path transform="translate(286,626)" d="m0 0 5 5v7l1 1 2 9 1 3-3 1-9-3-2-2-7-2-1-4 7-1-1-8h2l1-3z" fill="#28231D"/>
<path transform="translate(967,497)" d="m0 0 1 2-7 8-8 8-1 2h-2l-2 4-33 33-1 2h-2l-2 4-32 32-7 8-30 30v-3l26-26 1-2h2l1-3 27-27 2-3h2l2-4 4-4h2l2-4 29-29 1-2h2l2-4 3-1 2-4 14-14z" fill="#5F4932"/>
<path transform="translate(788,389)" d="m0 0h10l7 3 5 3 4 6 2 6v10l-5 10-8 6-3 1h-12l-10-5-5-8-2-6v-8l4-9h2l2-4 6-4zm4 1-9 3-7 7-3 7v8l3 8 8 7 5 2h9l7-3 5-5 3-4 1-3v-10l-5-10-7-5z" fill="#5D4831"/>
<path transform="translate(908,709)" d="m0 0v3l-7 10-5 12-2 29v12l2 9 5 4v2l4 2 7 8 8 7v2h2l7 8 43 43-1 2-78-78-1-4v-18l1-23 2-9 7-14z" fill="#5F4932"/>
<path transform="translate(586,1068)" d="m0 0 4 2 9 6 11 4 3 1v22l-4 103v30l-2-2v-42l4-100 1-10-7-1-14-7-5-5z" fill="#604B32"/>
<path transform="translate(504,601)" d="m0 0h11l10 3 7 5h-3l-11-5h-16l-9 4-6 5h-2l-2 5-4 9v16l4 10 4 6 9 7 7 3 5 1h10l11-4 8-7 4-6 1 2-4 6-8 7-11 4h-13l-11-4-10-8-6-10-3-12 1-12 4-10 7-8 11-6z" fill="#604A32"/>
<path transform="translate(901,412)" d="m0 0 3 3-2 1v8l-4 9-8 3-5-1 1-7 5-10 4-4z" fill="#523D2A"/>
<path transform="translate(1093,743)" d="m0 0 9 1 12 5 5 4 3 5 2 12-1 15-2 7-5 8-9 6-3 1h-11l-12-5-3-2v-2l5 2 13 5 9-1 7-4 6-7 3-10 1-12-2-10-5-8-12-6-3-1h-9l-10 5-3 1-3 6h-11v-2l9-1 7-7 9-4z" fill="#5E4831"/>
<path transform="translate(910,149)" d="m0 0h2v8l29 1v-5h3l1-1 2 1 1 4 22 1h12l8 3 4 3v2h-2v-2l-5-2-3-1-49-1-78-1v-3l1 1h39l11 1 2-5z" fill="#665036"/>
<path transform="translate(1120,1032)" d="m0 0 1 2-1 2v11l3 6 5 5 6 3h12l8-4 5-6 2-7-1-12 4 1v13l-4 10-7 6-14 4h-6l-9-6-5-6-2-9 1-10z" fill="#5D4730"/>
<path transform="translate(692,844)" d="m0 0 2 1 1 59v22h-19l-15-6h-8l-10 5h-3l8-6 6-2h7l14 6 18 1-1-76-7 6-4 4-2-1z" fill="#5F4931"/>
<path transform="translate(681,706)" d="m0 0 5 5 6 11 1 49v18l-7 8-10 10-8 7-22 22h-2v2l-4 2 2-4 10-9 24-24h2v-2l8-7 3-4h2l-1-66-6-12-3-4z" fill="#5F4A32"/>
<path transform="translate(996,282)" d="m0 0h1v5l2 1v13l-4 16-3 7-7 11-7 7-8 6-11 5-6 1-4 51-1 8 2 1-3 2-1-3 5-59 12-5 11-7 9-8 8-13 4-12 1-5z" fill="#5F4932"/>
<path transform="translate(651,222)" d="m0 0h15l16 4 15 8 11 9v3l3 1 7 11v5l-3-4-7-11-6-7-11-8-11-5-11-3h-22l-13 4-13 7-10 9-5 6v-3l8-10 2-2 7-4 8-5 14-4z" fill="#5F4932"/>
<path transform="translate(1251,782)" d="m0 0 9 1 6 3 7 8 3 14 1 25v10h-2l-2-38-2-9-4-6-7-4-8-1-8 3-5 4-3 6-1 33h-1l-1-17v-15l4-9 9-6z" fill="#5E4931"/>
<path transform="translate(853,232)" d="m0 0v3l-7 8-9 8-14 7-9 3-3 65v4l17 6v2l5 1 1 3-5-2-16-7-4-2v-16l2-43 1-13 16-6 9-5 10-9z" fill="#614B33"/>
<path transform="translate(587,1114)" d="m0 0 2 2 1 16-3 7-6 8-3 2-8 2-10-1-8-4v-2l-4-2-5-8-1-6 1-11 1-2h2l-1 14 3 8 5 6 9 4h8l9-4 6-7 2-6z" fill="#5D4831"/>
<path transform="translate(398,375)" d="m0 0h18l105 3 21 1-1-3 4 2v2h-34l-113-3z" fill="#5E4931"/>
<path transform="translate(840,482)" d="m0 0 2 1-11 7-12 4-1 1v49l40-40 7-8h2v-2l3-1-2 4-50 50h-2v-54l15-6z" fill="#624C34"/>
<path transform="translate(1239,433)" d="m0 0h23l19 5 7 4v2l5 2 4 3-1 2-14-9-13-5-10-2h-16l-15 3-16 7-12 9-4 2-2 4-7 8-6 10-1-2 2-6h2l2-4 7-9h2l2-4 14-10 13-6z" fill="#604A32"/>
<path transform="translate(930,876)" d="m0 0 7 6 35 35 7 3h10l15-3h14l3 9 4 10 5 8v2h-2l-8-15-3-10v-3l-23 3-6 2h-9l-8-4-6-5-7-8-28-28z" fill="#604A32"/>
<path transform="translate(921,267)" d="m0 0h13l10 4 8 7 6 12v11l-4 8-8 6-3 1h-13l-6-2 3-1 5 1h9l10-5 4-7 1-3v-7l-4-10-5-6-9-5-7-2h-8l-9 3v2l-4 4-2 5v9l3 10-3-3-2-5v-12l4-8 6-5z" fill="#614B33"/>
<path transform="translate(950,116)" d="m0 0h1l1 8-2 7-1 3-2 2-1 7-1 4-3 4-1-1-3-18v-5l4-1 3 2v-4l3-1z" fill="#654F35"/>
<path transform="translate(338,475)" d="m0 0 11 1 9 4 8 6 4 4-1 2-7-7-12-6-3-1h-13l-10 5-5 6h-2l-3 9-1 4v14l4 12 8 11 2 3-4-2-7-9-4-9-2-10v-8l4-13 7-9 8-5z" fill="#5F4A32"/>
<path transform="translate(866,198)" d="m0 0 118 1v1l-75 1-6 1h-7l-2-1-28-1-1 10-6 16-4 6-1-2 6-12 5-19z" fill="#624C33"/>
<path transform="translate(521,240)" d="m0 0h1l-1 22-2 34-1 1-20-1-60-4v-1h25l54 4 2-42z" fill="#604B32"/>
<path transform="translate(1315,529)" d="m0 0h1v8l-2 1-6 11-9 10-5 5-7 6-14 8-15 5-7 1h-18l-15-3-8-4 3-1 11 4 11 2h14l15-3 16-7 12-9 10-10 9-14z" fill="#604A32"/>
<path transform="translate(572,229)" d="m0 0 1 4-8 7-3 2v11l-4 66-1 15 13 13h-3l-13-13 2-20 3-50v-22l11-10z" fill="#614B33"/>
<path transform="translate(506,560)" d="m0 0 16 1 17 5 15 8 12 11 3 2-1 4-8-9-11-8-12-6-13-4-6-1h-17l-14 3-17 8-6 5-2-1 4-4 13-8 19-5z" fill="#5F4931"/>
<path transform="translate(1060,239)" d="m0 0 1 3-5 3h-2v2l4 2 4 5 3 8v14l-1 19 5-1h71v1l-69 1-8 1-1-37-4-8-8-5v-2z" fill="#634D34"/>
<path transform="translate(1072,555)" d="m0 0h10l13 2 17 5 15 9 1 3-4-2-17-9-14-4-6-1h-19l-14 3-13 5-14 9-1-3 8-5 12-6 16-5z" fill="#5E4831"/>
<path transform="translate(664,608)" d="m0 0 7 6 80 80v2h2v2l-3-1-7-8-9-8-7-8-63-63z" fill="#604B33"/>
<path transform="translate(958,1028)" d="m0 0 7 1 1 1v6l-4 5-4 2-6-1-2-2 1-7 4-4z" fill="#3C3124"/>
<path transform="translate(267,689)" d="m0 0h10l10 5 4 6 1 3v9l-4 8-7 6-6 2h-10l-8-3-6-7-1-3v-10l4-8 6-5zm5 1-9 2-5 3-6 8-1 4v7l4 7 5 4 7 2h7l9-4 6-7 2-6-1-9-4-6-7-4z" fill="#614B33"/>
<path transform="translate(634,196)" d="m0 0h96l4 15 6 13-1 2-8-16-3-13-80 1-1 2-10-1-3-1z" fill="#56412D"/>
<path transform="translate(370,492)" d="m0 0 4 4 4 9 1 4v17l-4 10-6 8-8 5-7 2h-10l-10-3-7-5h3l12 5h13v-3l8 1 1-2 5-2 2-4 4-7 2-7v-13l-3-10-4-7z" fill="#614C33"/>
<path transform="translate(435,898)" d="m0 0h1l1 17 3 11 6 12 8 10 13 9 13 5 7 2v30h-1v-29l-8-1-12-5-13-9-8-9-7-12-3-10z" fill="#5D4831"/>
<path transform="translate(1242,955)" d="m0 0h1l3 55 2 12 4 6 6 4 3 1h9l8-4 4-4v4h-2v2l-10 5h-9l-8-4-6-6-3-12-2-33z" fill="#604A32"/>
<path transform="translate(332,435)" d="m0 0h20l17 5 13 7 13 10 9 11 7 11v2h-2l-7-12-11-12-10-8-16-8-18-4h-13l-15 3-3-1z" fill="#604B33"/>
<path transform="translate(856,1336)" d="m0 0h6l-1 5-5 1v3l-4 1v2l-10 3h-10v-3l3-2 9-2 7-3z" fill="#665036"/>
<path transform="translate(872,690)" d="m0 0v3l-9 15-7 20-2 13h-3l-31-31 1-5 3-1v2h-2l1 4 28 28h1l4-19 7-16 8-12z" fill="#5F4932"/>
<path transform="translate(453,1072)" d="m0 0 5 2 4 4h4v10h2l-2 18-4 9-5 7-5 5h-9v-1l9-3 2-3h2l6-12 2-8v-9l-3-10-5-6z" fill="#5C4630"/>
<path transform="translate(998,1115)" d="m0 0 2 1-5 9-1 9 3 9 5 5 8 4h9l7-2-3 3h-3v2l-2 1h-10v-2l-6-2-7-5-4-7v-13l1-3h2l2-6z" fill="#5C4730"/>
<path transform="translate(764,583)" d="m0 0 4 2 7 7 1 5v66l-4-1v-2h-2v-2l-4-2v-2h-2l-4-6 4 2 9 9 1-19v-40l-1-7-9-9z" fill="#614B33"/>
<path transform="translate(969,554)" d="m0 0v3l-25 25-1 2h-2l-2 4-32 32-5 6h-2l2-4 37-37 7-8z" fill="#5F4932"/>
<path transform="translate(344,961)" d="m0 0h1v28l-1 17-3 9-4 5-10 5h-8l-7-4 2-1 6 2 10-1 6-4 4-6 2-9 1-36z" fill="#5D4831"/>
<path transform="translate(444,1024)" d="m0 0h11l6 4 2 4-7-5-3-1h-8l-7 4-5 8-2 6v7l4 8 7 4 4 1h7l9-3-4 4-3 1h-10l-9-3-6-7-2-9 1-6 4-9 8-7z" fill="#624C33"/>
<path transform="translate(1051,747)" d="m0 0 5 2 2 4h-2v2l8 1v1l-19 1h-19l-2-5 1-4 2 4v3l20-1-1-4h3z" fill="#604A32"/>
<path transform="translate(1131,1079)" d="m0 0 2 1-5 5-5 7-2 6v11l4 10 9 7 3 1v2h11v1h-12l-9-5-1-3h-2l-5-9-1-4v-11l3-9 3-4h2v-2z" fill="#5C4730"/>
<path transform="translate(1220,534)" d="m0 0 4 2 9 4h2l-2-2 6-1 2-2 13 5v2l-8 2h-9l-9-3-8-5z" fill="#57422D"/>
<path transform="translate(1021,234)" d="m0 0 7 6 6 4 3 1-1 3-6 4-4 8-1 6-1 59h-1v-64l4-9 6-5-5-4-6-5z" fill="#624C34"/>
<path transform="translate(608,717)" d="m0 0h8l11 2v2l5 1-3 1-11-3h-12l-12 3-11 6-6 5-6 8-4 7-1-4 8-11 11-9 10-5z" fill="#5E4931"/>
<path transform="translate(373,606)" d="m0 0h11l9 4 9 8 1 6v9l-2 5-1-3 1-3v-7l-4-8-5-4-8-4h-10l-8 4-4 5-2 3 1-7 5-5z" fill="#5F4A32"/>
<path transform="translate(531,633)" d="m0 0h1l1 13-6 12-7 6-5 2h-9l-9-6-3-3 1-2 8 6 3 1h11l6-4 5-7 3-8z" fill="#5C4730"/>
<path transform="translate(788,389)" d="m0 0 3 1-9 5-6 7-2 5v8l3 8 7 6 5 2v2h11v1h-12l-10-5-5-8-2-6v-8l4-9h2l2-4 6-4z" fill="#5C4630"/>
<path transform="translate(552,126)" d="m0 0 8 3 9 1 4 4 8 2v3h-2v-2h-8l-11-2v-2l-6 1-2-1v-3h-2v-2h2z" fill="#665036"/>
<path transform="translate(1e3 1184)" d="m0 0 1 2-2 5v12l3 9 7 6 5 2h10l7-2-3 3-3 1h-17l-6-5v-2h-2l-3-6-2-15 3-7z" fill="#5F4A32"/>
<path transform="translate(1121,761)" d="m0 0 2 2 1 14-2 14-6 9-9 6-3 1h-11l-12-5-3-2v-2l5 2 13 5 9-1 7-4 6-7 3-10 1-12z" fill="#614B33"/>
<path transform="translate(967,497)" d="m0 0 1 2-7 8-8 8-1 2h-2l-2 4-33 33-1 2-3-1 30-30 1-2h2l2-4 3-1 2-4 14-14z" fill="#5D4731"/>
<path transform="translate(724,608)" d="m0 0h4l1 4-1 2 4 1h3v4 2l3 2v2h2l5 5 1 3h2l5 5 7 8-1 2-33-33-3-6z" fill="#5B452F"/>
<path transform="translate(1169,670)" d="m0 0 4 1-10 6-8 7-6 10-3 12v8l3 12 4 7-1 2-5-8-3-9v-14l2-9 5-9 9-10z" fill="#5F4932"/>
<path transform="translate(695,1208)" d="m0 0h2v26l-1 2-4-2v-7l1-1-1-16z" fill="#28231D"/>
<path transform="translate(739,1245)" d="m0 0 4 4 6 8 8 8h-3l-10-10-3-5-3 8-3 5-7 6-3 1h-11l-8-4-1-2 10 4h8l8-4 4-5 2-5 1-8z" fill="#624C33"/>
<path transform="translate(152,552)" d="m0 0h8l3 2v2l-19 1-8 3-9-1-4 2-5-1 2-3 8-1 6 1 12-3h6z" fill="#665036"/>
<path transform="translate(632,631)" d="m0 0h7l19 7 10 5 19 12 3 4-4-2-20-12-21-9-13-4z" fill="#5F4932"/>
<path transform="translate(1219,336)" d="m0 0 1 3-3 5-11 9-8 4-10 3-12 1-15-3-8-4-1-2 5 2 13 4h17l13-4 10-7 8-9z" fill="#624C33"/>
<path transform="translate(746,339)" d="m0 0 2 1-9 7-6 5-9 12h-2l-1-4h2l1-8h2v4l4-5 2-4h3l1-4 8-3z" fill="#5B4630"/>
<path transform="translate(324,786)" d="m0 0h9l9 4 2 5-10-6h-11l-6 3-5 6-2 5-1 13h-2v-9l2-9 6-8z" fill="#5F4932"/>
<path transform="translate(583,613)" d="m0 0 9 2 2 4v6l-8 1-3-10z" fill="#28231D"/>
<path transform="translate(205,509)" d="m0 0h7l5 1v2l4-1 4 2v2l-6 1-11-2h-9l-4 1-3-2 8-2 5 1z" fill="#665036"/>
<path transform="translate(635,362)" d="m0 0h1v46h-3l-7-7-8-7-3-4 4 2 3 3 4 1 2 4 5 4 1-4z" fill="#5C4730"/>
<path transform="translate(960,350)" d="m0 0 3 1-7 3h-3l-4 51-1 8 2 1-3 2-1-3 5-59z" fill="#614B33"/>
<path transform="translate(558,1168)" d="m0 0h9l5 2v2l4 2h-3l-6-3h-9l-12 6-6 7-3 8h-1v-6l4-6 4-5 8-5z" fill="#5D4731"/>
<path transform="translate(930,876)" d="m0 0 7 6 35 35 6 3-1 2-7-4-5-4-7-8-28-28z" fill="#634D34"/>
<path transform="translate(544,1115)" d="m0 0h2l-1 14 3 8 5 6 3 2v2l5 1h12v2l-7 1-9-2-5-3v-2l-4-2-5-8-1-6 1-11z" fill="#5A452F"/>
<path transform="translate(655,737)" d="m0 0 7 1 2 4 3 1-2 5h-3v-2h-2l1 3h-2l-1-2-1 3v-2h-2l1-7-3-1z" fill="#4D3A29"/>
<path transform="translate(1178,1088)" d="m0 0h2l3 9 4 5 7 3h10l8-4 3-4h2l1-2-1 4-8 7-6 2h-9l-8-4-6-7-2-5z" fill="#5D4730"/>
<path transform="translate(504,601)" d="m0 0h11l10 3 7 5h-3l-11-5h-16l-9 4-6 5h-2l-2 4 1-5 7-6 8-4z" fill="#5E4931"/>
<path transform="translate(581,1178)" d="m0 0 4 2 4 8v12l-2 7-3 5-6 7-5 3h-5l4-3 7-5 6-9 2-6v-10l-4-8z" fill="#604A32"/>
<path transform="translate(1e3 519)" d="m0 0 31 1v1l-32 1-7 8-5 5-7 6-3 3v-3l21-21z" fill="#624C33"/>
<path transform="translate(1e3 718)" d="m0 0 6 2 8 7 6 8v3h2l2 2 2 7-1 4v-2h-2l-4-9-6-9-1-3h-2v-2l-4-2-5-3z" fill="#5C4630"/>
<path transform="translate(1056,630)" d="m0 0 1 2v8l7 14 10 4h10v2l-2 1h-9l-7-3-7-8-4-7v-12z" fill="#5C4730"/>
<path transform="translate(541,376)" d="m0 0 4 2v2h-34l-39-1v-1h49l21 1z" fill="#634D34"/>
<path transform="translate(652,263)" d="m0 0h13l8 4 5 4 2 3-1 4-4-6-6-5-8-2h-7l-3 4-3 1 3 1-4 1h-3l-1-3 6-5z" fill="#5F4A32"/>
<path transform="translate(692,844)" d="m0 0 2 1v59h-1l-1-56-7 6-4 4-2-1z" fill="#624C34"/>
<path transform="translate(506,560)" d="m0 0 12 1v1l-17 1-14 3-17 8-6 5-2-1 4-4 13-8 19-5z" fill="#604B33"/>
<path transform="translate(572,229)" d="m0 0 1 4-8 7-3 2v11l-2 31h-1v-42l11-10z" fill="#5E4931"/>
<path transform="translate(1325,576)" d="m0 0h11l10 5 6 9 2 5v18l-4 7-1-2 3-8v-11l-3-9-4-6-5-4-6-2-9-1z" fill="#665036"/>
<path transform="translate(166,520)" d="m0 0 26 1 8-1 7 1-4 2-12 1-24-1-4-2z" fill="#665036"/>
<path transform="translate(534,181)" d="m0 0h10l10 2 8 5v2l-5-2-11-4h-12l-8 3-8 6v-3l10-7z" fill="#665036"/>
<path transform="translate(225,748)" d="m0 0 7 6 12 7 1 2v25h-1l-2-25-9-6-5-3-3-3z" fill="#5E4931"/>
<path transform="translate(1279,499)" d="m0 0 2 1v8l-2 9-6 11-8 8-8 5h-3v-2l8-4 8-7 6-10 2-7z" fill="#5D4831"/>
<path transform="translate(647,1314)" d="m0 0h3l-2 6-4 1-2 4h-2v2l-5 5-3 1v3l-3 1 1-4 4-5 4-4 5-7 3-2z" fill="#654F35"/>
<path transform="translate(327,542)" d="m0 0 6 2 9 4h13v-3l8 1v2l-9 3h-10l-10-3-7-5z" fill="#5E4831"/>
<path transform="translate(1208,608)" d="m0 0h8l11 3 4 3 3 6-1 2-3-4v-2l-5-2-10-3-9 1-6 2 3-3h2v-2z" fill="#604A32"/>
<path transform="translate(708,531)" d="m0 0 4 2 8 8 8 7 8 8 8 7 4 5-4-2-7-7-8-7-16-15z" fill="#604A32"/>
<path transform="translate(902,453)" d="m0 0h1v8l-27 27-4 5-3-1 32-32z" fill="#5C4630"/>
<path transform="translate(1176,312)" d="m0 0h7l2 2-1 5-2 1h-7l-1-1v-5z" fill="#604A32"/>
<path transform="translate(498,265)" d="m0 0 1 2-3 5-6 6h-2v2l-9 6-9 3h-13l-1-2h11l10-3 9-6 8-7z" fill="#5F4A32"/>
<path transform="translate(1160,1032)" d="m0 0 4 1v13l-4 10-7 6-6 1 9-6 2-2 3-11z" fill="#59442E"/>
<path transform="translate(810,312)" d="m0 0h1v18l17 6v2l5 1 1 3-5-2-16-7-4-2v-16z" fill="#5D4831"/>
<path transform="translate(175,554)" d="m0 0 23 1-2 5-10-1-7-2-4-1z" fill="#665036"/>
<path transform="translate(1231,120)" d="m0 0h5l-3 2 3 1v4l2 1v4h-5l-3-4v-2l-5-1 3-3z" fill="#654F35"/>
<path transform="translate(753,84)" d="m0 0 4 2 1 4-5 4-5-1-1-6 4-2z" fill="#665036"/>
<path transform="translate(342,1007)" d="m0 0 1 3-4 8-7 5-5 2h-8l-7-4 2-1 6 2 10-1 6-4 4-6z" fill="#614B33"/>
<path transform="translate(640,527)" d="m0 0 7 2 3 5 3 1 2 5 6 5 5 5-1 2-3-1-7-8-15-15z" fill="#5A442F"/>
<path transform="translate(691,232)" d="m0 0 4 1 8 6 5 4v3l3 1 7 11v5l-3-4-7-11-6-7-11-8z" fill="#5E4931"/>
<path transform="translate(453,1072)" d="m0 0 5 2 4 4h4v10h2l-1 13h-1v-10h-2l-3-10-5-6z" fill="#5B452F"/>
<path transform="translate(1051,747)" d="m0 0 5 2 2 4h-2l-1 3h-7l-2-5h3z" fill="#523D2A"/>
<path transform="translate(433,1067)" d="m0 0 12 1v1l-11 1-7 4-5 8-3 5-1-3 4-8 5-6z" fill="#5E4831"/>
<path transform="translate(323,736)" d="m0 0 1 3-7 9-10 9-9 5-4 2-3-1 15-8 10-9z" fill="#5F4932"/>
<path transform="translate(526,1180)" d="m0 0 1 3-5 10-5 4-5 2h-7l-9-3 2-1 3 1h11l6-3 5-6z" fill="#614B33"/>
<path transform="translate(1237,790)" d="m0 0 1 4-2 4-1 33h-1l-1-17v-15z" fill="#5D4730"/>
<path transform="translate(940,737)" d="m0 0h2l-2 5-4 8-4 15-2 1 1-8 1-7z" fill="#5D4730"/>
<path transform="translate(1070,612)" d="m0 0 4 1-9 5-5 6-4 7-1 9h-1v-10l4-8 6-7z" fill="#5B452F"/>
<path transform="translate(1093,558)" d="m0 0h7l12 4 15 9 1 3-4-2-17-9-14-4z" fill="#604A32"/>
<path transform="translate(1138,1076)" d="m0 0h10l9 4 3 5-4-2-9-4h-8l-7 2 1-3z" fill="#5E4831"/>
<path transform="translate(724,608)" d="m0 0h4l1 4-1 2 4 1h3v4 3l-4-2-5-5-3-6z" fill="#55402C"/>
<path transform="translate(882,1346)" d="m0 0 3 1 2 9 3 4v2l-5 2-3-12z" fill="#665036"/>
<path transform="translate(1075,611)" d="m0 0 11 2 6 4 6 8v5l-9-12-6-3-8-1-3-1z" fill="#5D4731"/>
<path transform="translate(1052,559)" d="m0 0h5l-3 2-13 5-14 9-1-3 8-5 12-6z" fill="#5F4932"/>
<path transform="translate(631,227)" d="m0 0 2 1-3 3-12 7-13 13 2-5 7-8 2-2 7-4z" fill="#614B33"/>
<path transform="translate(1038,1212)" d="m0 0 1 2-2 6-4 2-10 2-8-1v-1l11-1 5-2 5-6z" fill="#56402C"/>
<path transform="translate(1281,1025)" d="m0 0 1 4h-2v2l-10 5h-9l-7-3 4-1 3 1h9l8-4z" fill="#5D4831"/>
<path transform="translate(674,861)" d="m0 0 2 1-3 4h-2v2l-8 7-13 13-2-1z" fill="#604A32"/>
<path transform="translate(751,1351)" d="m0 0h4v2h5v2h4v2l4 2-1 3h-2v-3h-2l-1 2v-2h-2v-2l-6-2-4-3z" fill="#665036"/>
<path transform="translate(418,1234)" d="m0 0 6 1 2 15-3-2-2-8h-2z" fill="#665036"/>
<path transform="translate(1e3 1150)" d="m0 0 7 2h9l7-2-3 3h-3v2l-2 1h-10v-2h-2v-2l-3-1z" fill="#5D4831"/>
<path transform="translate(638,840)" d="m0 0 2 1-23 23-2-1 8-9 6-5 5-5z" fill="#5F4A32"/>
<path transform="translate(1060,239)" d="m0 0 1 3-5 3h-2v2l4 2 4 5 2 6h-2l-4-8-8-5v-2z" fill="#5E4931"/>
<path transform="translate(952,231)" d="m0 0 6 2 12 7 9 7-1 3-9-8-14-8-3-1z" fill="#5E4931"/>
<path transform="translate(423,1116)" d="m0 0 4 2 6 5 2 1h12l6-2-3 3-7 1v2l-9-2-6-4z" fill="#644E35"/>
<path transform="translate(1158,1082)" d="m0 0 4 2 5 9 1 3v9h-2l-2-12z" fill="#5B4630"/>
<path transform="translate(581,613)" d="m0 0 3 3 2 10h23v1h-25l-3-11z" fill="#624C33"/>
<path transform="translate(816,85)" d="m0 0 4 3-1 8-2-1-3 1-1-2v-6z" fill="#665036"/>
<path transform="translate(1053,1399)" d="m0 0h25l2 2-5 1h-11l-10-1z" fill="#665036"/>
<path transform="translate(373,606)" d="m0 0h11v1h-10v2l-8 4-4 5-2 3 1-7 5-5z" fill="#5A452F"/>
<path transform="translate(910,556)" d="m0 0h2l-2 4-16 16-2-1 8-9h2l2-4 4-4h2z" fill="#624C33"/>
<path transform="translate(406,1082)" d="m0 0 1 4-3 8-5 6-6 3h-2v-2l8-5 4-5z" fill="#604A32"/>
<path transform="translate(549,572)" d="m0 0 5 2 12 11 3 2-1 4-8-9-11-8z" fill="#5D4831"/>
<path transform="translate(728,495)" d="m0 0 4 2 15 14 6 5-3 1-11-11-8-7z" fill="#624C33"/>
<path transform="translate(1217,145)" d="m0 0h7l3 3-1 2h-10v-3z" fill="#665036"/>
<path transform="translate(776,423)" d="m0 0 8 6 5 2v2h11v1h-12l-10-5-2-3z" fill="#5A442F"/>
<path transform="translate(984,713)" d="m0 0 9 1 8 5-2 1-8-3-13-1-3-1z" fill="#5F4A32"/>
<path transform="translate(808,120)" d="m0 0 8 1 10 4 8 5 2 3-4-2-17-8-7-2z" fill="#665036"/>
<path transform="translate(522,620)" d="m0 0 4 2 4 5 1 3 1 13-2 4-1-15-4-7-3-3z" fill="#604B33"/>
<path transform="translate(919,605)" d="m0 0v3l-12 12-5 6h-2l2-4z" fill="#634D34"/>
<path transform="translate(816,1168)" d="m0 0 5 1 10 6 3 2v2l4 2v3l-11-9-11-6z" fill="#604A32"/>
<path transform="translate(691,789)" d="m0 0v3l-15 15-3-1 3-3h2v-2l8-7z" fill="#624C33"/>
<path transform="translate(1192,22)" d="m0 0 6 1 2 8-4 1-3-6z" fill="#665036"/>
<path transform="translate(733,1343)" d="m0 0h5l7 6-1 2-5-1v-2l-5-1z" fill="#665036"/>
<path transform="translate(914,1150)" d="m0 0 3 1-1 10-2 3-2-6v-6z" fill="#533E2B"/>
<path transform="translate(1056,630)" d="m0 0 1 2v8l5 10 2 2-1 3-7-10-1-2v-12z" fill="#604A32"/>
<path transform="translate(1026,1174)" d="m0 0h8l6 6 1 7-4-5-5-5-6-2z" fill="#5D4831"/>
<path transform="translate(1125,1120)" d="m0 0 9 6 3 1v2h11v1h-12l-9-5z" fill="#5A452F"/>
<path transform="translate(531,633)" d="m0 0h1l1 13-6 12-1-4 4-7 1-6z" fill="#58422D"/>
<path transform="translate(601,256)" d="m0 0 1 2-5 12-3 8-1-4 6-17z" fill="#5F4932"/>
<path transform="translate(1217,1095)" d="m0 0 1 3-7 7-5 2h-11v-1l12-2 6-4 2-3h2z" fill="#5E4931"/>
<path transform="translate(843,873)" d="m0 0 4 1-3 5-4 1-3-3 3-1v-2z" fill="#533E2B"/>
<path transform="translate(580,729)" d="m0 0 2 1-5 4-6 8-4 7-1-4 8-11z" fill="#5F4A32"/>
<path transform="translate(1218,171)" d="m0 0h2v8l-4 2-3-1 3-7h2z" fill="#665036"/>
<path transform="translate(465,1056)" d="m0 0 1 4-3 7-4 1-1-3z" fill="#55402C"/>
<path transform="translate(1315,529)" d="m0 0h1v8l-2 1-6 11-3 2 2-5 7-14z" fill="#5E4931"/>
<path transform="translate(376,527)" d="m0 0h1l-1 8-7 9-4 3h-2l1-3 5-2 2-4 4-7z" fill="#5F4932"/>
<path transform="translate(682,452)" d="m0 0 4 2 7 7 8 7 1 2-4-2-12-11z" fill="#5E4831"/>
<path transform="translate(588,138)" d="m0 0 9 3 4 1 1 3-2 1-8-3v-2l-4 1z" fill="#665036"/>
<path transform="translate(591,1310)" d="m0 0 2 2-2 3h-2l-1 5-3-1v-5l3-3z" fill="#665036"/>
<path transform="translate(721,364)" d="m0 0h2l-2 6-5 11h-2l1-5 3-8h2z" fill="#5E4831"/>
<path transform="translate(264,690)" d="m0 0h8v1l-9 2-5 2-1 3h-2l-2 5-1-3 6-7z" fill="#5D4831"/>
<path transform="translate(447,673)" d="m0 0 4 5 11 13h-3l-9-10-1-4h-2z" fill="#5D4831"/>
<path transform="translate(948,389)" d="m0 0h1v16l-1 8 2 1-3 2-1-3z" fill="#634D34"/>
<path transform="translate(708,592)" d="m0 0 1 2 7 1v2l-2 1 5 5h-3l-9-9z" fill="#533E2B"/>
<path transform="translate(949,517)" d="m0 0v3l-13 13-2-1 7-7 1-2h2l2-4z" fill="#624D34"/>
<path transform="translate(791,389)" d="m0 0h7l7 3 3 2v2l-5-2-4-2-10-1z" fill="#604A32"/>
<path transform="translate(645,266)" d="m0 0 2 1-5 5h-2l-2 5-3 6-1-4 6-9z" fill="#614B33"/>
<path transform="translate(1021,234)" d="m0 0 7 6 6 4 3 1-1 3-3 1v-3l-9-6-3-4z" fill="#604A32"/>
<path transform="translate(1332,701)" d="m0 0 4 2 4 7v10l-3 3 1-11-3-6z" fill="#614B33"/>
<path transform="translate(943,273)" d="m0 0 5 1 6 7 3 6v5l-2-3-4-8-4-5z" fill="#5F4932"/>
<path transform="translate(1034,1143)" d="m0 0v3l-5 5-5 3-4-1 5-2 3-4 5-3z" fill="#56412C"/>
<path transform="translate(708,392)" d="m0 0 3 2v25h-1l-1-21h-1z" fill="#533E2B"/>
<path transform="translate(724,352)" d="m0 0h2l1 8-3 4h-2l-1-4h2z" fill="#57422D"/>
<path transform="translate(799,66)" d="m0 0v3l-2 4 3 1 1-3 1 4-1 2-5-1-1-5 2-4z" fill="#665036"/>
<path transform="translate(1207,40)" d="m0 0 1 3 2 1h-3l-2 7-3-1-1-5 4 1v-5z" fill="#665036"/>
<path transform="translate(313,440)" d="m0 0 3 1-15 8-4 2 2-4z" fill="#665036"/>
<path transform="translate(897,33)" d="m0 0h3l-1 5-3 1v2l-2-1 1-2h-2l2-4z" fill="#665036"/>
<path transform="translate(312,1020)" d="m0 0 8 2h8l-1 3h-8l-7-4z" fill="#604A32"/>
<path transform="translate(1177,314)" d="m0 0 7 1v2l-3 2-6-1z" fill="#28231D"/>
<path transform="translate(907,131)" d="m0 0h2l2 10v7l-2-1-2-11z" fill="#665036"/>
<path transform="translate(743,80)" d="m0 0 5 2 1 2-6 3-3-3z" fill="#654F35"/>
<path transform="translate(927,1380)" d="m0 0 2 1-1 3-6 3h-6l3-3 8-1z" fill="#665036"/>
<path transform="translate(1085,844)" d="m0 0 10 2v1h-23v-1z" fill="#654F35"/>
<path transform="translate(485,745)" d="m0 0h15l7 2 2 3-10-3-14-1z" fill="#634D34"/>
<path transform="translate(1203,56)" d="m0 0h3l1 9h-3l-1-1z" fill="#665036"/>
<path transform="translate(1154,1124)" d="m0 0 2 1-4 4h-15v-1l11-1z" fill="#604A32"/>
<path transform="translate(1131,1079)" d="m0 0 2 1-5 5-4 5-3 1 2-5 3-1v-2z" fill="#59442F"/>
<path transform="translate(355,545)" d="m0 0 8 1v2l-5 2h-4z" fill="#58432E"/>
<path transform="translate(722,123)" d="m0 0h2v2h2l-1 4-5 1-1-3 1-2h2z" fill="#624D34"/>
<path transform="translate(940,113)" d="m0 0 3 1v6l-1 5h-2l-1-7z" fill="#665036"/>
<path transform="translate(528,1311)" d="m0 0 6 1v3h-9v-2h3z" fill="#665036"/>
<path transform="translate(760,648)" d="m0 0 4 2 9 9-3 1v-2l-4-2v-2h-2z" fill="#5E4831"/>
<path transform="translate(1219,336)" d="m0 0 1 3-3 5-8 7v-3l9-10z" fill="#5F4932"/>
<path transform="translate(751,131)" d="m0 0 4 1-8 7-5 5 2-5z" fill="#665036"/>
<path transform="translate(893,53)" d="m0 0 3 1 1 12-2-2 1-2h-2l-1-7z" fill="#665036"/>
<path transform="translate(733,614)" d="m0 0 3 2-1 6-4-2-1-4z" fill="#523E2B"/>
<path transform="translate(1304,550)" d="m0 0 1 2-8 10-5 2 6-7z" fill="#634D34"/>
<path transform="translate(572,350)" d="m0 0 4 2 9 8 1 3h-2v-2l-4-2-8-8z" fill="#604A32"/>
<path transform="translate(647,266)" d="m0 0 5 1-1 2-3 1 3 1-4 1h-3l-1-3z" fill="#533E2B"/>
<path transform="translate(1016,153)" d="m0 0 1 4-1 3-7-2 1-2h2v-2z" fill="#665036"/>
<path transform="translate(904,1365)" d="m0 0 9 1 2 7-4-2-3-3-4-1z" fill="#665036"/>
<path transform="translate(1221,610)" d="m0 0 6 1 4 3 3 6-1 2-3-4v-2l-3-1-3-3z" fill="#5C4730"/>
<path transform="translate(784,161)" d="m0 0 2 1-4 2-3 1-1 2h-2l-1 3h-2l2-4 4-4z" fill="#5B462F"/>
<path transform="translate(920,1375)" d="m0 0 9 1v2l-6 2-3-3z" fill="#665036"/>
<path transform="translate(998,1203)" d="m0 0h2l3 12h-2l-3-6z" fill="#59442E"/>
<path transform="translate(1040,1182)" d="m0 0 2 1 2 6v12h-1v-11h-2z" fill="#55402C"/>
<path transform="translate(150,517)" d="m0 0h2v2l7 1-1 2-11-1 2-1z" fill="#665036"/>
<path transform="translate(593,298)" d="m0 0h2l2 9v6l-2-3-2-6z" fill="#5D4730"/>
</svg>
