<?xml version="1.0" encoding="UTF-8"?>
<svg version="1.1" viewBox="0 0 1280 1280" width="1280" height="1280" xmlns="http://www.w3.org/2000/svg">
<path transform="translate(606,312)" d="m0 0h10l15 2 3 4 1 57v226l1 257 1 152 16-4 25-9 23-12 15-10 16-13 9-8 10-13 5-9 1-4-8-1-6-3-3-4v-9l6-6h10l10 2 11 1h16l21-3 16-5 16-8 10-7 11-10 9-13 5-10 4-13 1-6v-23l-3-14-5-14-9-17v-6l6-7 5-1 7 2 6 9 6 12 2 3 10-6 11-8 11-11 9-13 6-12 5-16 2-15v-12l-2-16-4-14-9-17-11-14-7-7-13-9-8-5-19-7-22-4-4-3-1-8v-45l-9-5-5-5-4-6-2-7v-10l4-10 7-8 8-5 6-2h15l13 5 7 11 2 7v11l-4 9-7 8-8 5v29l-1 9 17 4 17 7 2-6 6-15 4-17v-29l-4-16-5-13-6-11-9-12-13-13-10-7-14-8-11-5-13-4-24-4-24 1-17 3-15 5-9 4h-8l-6-5-1-2v-7l4-6 16-7 6-2h4l-6-11-11-13-15-16-11-9-8-7-15-10 1 4 1 22 2 89v23l14-2h26l18 3 21 7 14 8 9 7 11 11 7 11 6 13 2 12v15l-2 13-5 12-2 5 10 2 10 5 12 10 8 11 7 16 3 12 1 8v19l-3 17-7 19-6 9-7 9-10 9-10 6-5 2h-3l4 13 1 6v16l-3 16-7 16-7 11-8 9-11 8-7 4-11 3-11 1-4 14-6 12-11 12-10 8-10 5-14 4h-16l-8-3v-299l-5-1-6-5-5-8-1-4v-12l4-10 2-3h2l2-4 12-6h15l10 5 6 7 4 11v7l-4 11-5 7-6 4h-3v281l10-4 9-6 5-5 4-5 4-8 2-7v-30l-1-30-2-88-9-7-5-6-3-10v-7l3-9 6-8 10-6 3-1h16l12 6 7 8 3 9v10l-3 9-7 8-7 4h-3l2 88v40l16-4 8-6 7-7 7-11 4-12 1-5v-16l-3-11-4-6-14-6-7-6-2-4 1-6 6-7h9l13 5 2 1h7l9-3 9-6 9-10 7-15 3-10 2-18-3-19-3-9-6-9-6-7-10-5-4-1h-8l-9 3-9 8-5 2-7-1-5-5-1-2v-7l4-8 12-8 8-10 7-14 2-9v-17l-4-13-7-10-8-8-15-9-15-5-14-3h-33l-25 5-5-1-2-55-1-44-1-24-1-44v-18l6-5h12l7 3 14 8 16 12 11 9 14 13 7 8 8 9 11 16 3 6v3l15-1h12l18 2 15 3 16 5 16 8 10 6 12 9 10 9 7 7 10 13 10 18 6 16 4 19v31l-3 15-6 18-7 14 1 3 11 9 10 11 7 10 6 10 7 16 5 22 1 25-3 19-4 13-5 13-8 13-9 12-6 7-11 9-11 8-12 6h-2l2 14v19l-3 18-5 15-8 14-11 14-8 8-11 8-9 6-15 7-19 6-19 3h-21l-3 10-5 10-10 13-9 10-12 11-16 12-13 8-10 6-26 12-21 7-30 6h-8l-3-3-1-270-1-102v-325h-10l-19 3-17 5-13 5-18 10-12 9-13 11-11 14-6 10-6 15v4l12 6 3 3 1 7-2 5-5 4h-8l-17-7-13-3h-26l-16 4-11 5-12 7-13 12-9 12-8 15-4 12-3 19v13l3 18 6 16 3 7v9l-4 5-2 1h-8l-6-5-7-15v-3l-6 3-17 17-9 12-9 19-5 17-1 5v31l4 15 3 9 7 13 9 12 3 3v2l4 2 9 8 15 9 17 7 21 4 1 8v38l1 9 6 4 6 8 4 9v15l-6 12-8 6-10 3-11-1-10-5-8-9-3-7-1-5v-8l4-11 7-8 6-3v-37l-8-1-12-5-9-4-1 6-5 16-3 20v12l2 15 5 18 8 16 10 14 6 7 8 7 15 10 17 8 13 4 19 3h23l18-3 17-5 7-3h8l5 4 2 8-2 6-6 4-18 6 3 9 6 10 7 9 14 15 10 9 15 10 8 4-1-5-1-59v-72l-9 3-10 1h-23l-17-3-18-6-13-7-12-9-10-11-8-13-4-10-3-16v-15l3-16 4-10v-2l-12-4-9-6-9-9-8-14-4-11-3-17v-19l3-17 6-18 8-15 12-14 11-8 4-1-4-18v-12l4-20 7-17 9-14 11-12 12-9 9-4 14-3 5-10 6-11 9-10 7-7 13-8 8-3 4-1h15l7 3 5 5 2 4 1 253v41l4 2 5 5 4 8 1 3v10l-4 10-8 7-6 3-8 1-12-3-9-6-5-7-3-9v-8l4-10 8-8 7-2-1-111v-169l-9 3-8 4-11 11-6 10-3 9v32l1 18 2 67 2 31 7 5 6 8 2 6v14l-3 7-7 8-10 4-8 1-11-3-9-6-6-7-3-7-1-11 4-11 6-7 8-4h2l-2-34-2-67-1-18v-12l-9 3-11 8-8 9-9 16-5 19v12l2 9 2 4 13 3 10 4 4 6-1 9-4 4-3 1h-17l-10-3-9 4-9 7-9 14-4 9-4 14-1 7v19l3 14 7 14 7 7 7 3h12l6-3 10-9 3-2h8l5 3 3 5-1 8-6 8-12 9-9 14-5 15-1 6v10l3 12 8 15 6 6v2l4 2 8 6 13 6 14 4 7 1h24l18-3 2-5 5-3h7l5 3 3 6 1 132v48l-3 5-13-1-20-9-14-9-14-11-15-14-11-13-11-17-4-9-1-5h-33l-20-3-17-5-16-7-12-7-11-8-10-9-10-10-9-13-10-19-5-15-3-14-1-7v-28l3-18 8-24 1-5-12-10-9-11-10-15-7-15-5-18-2-11v-29l4-20 6-16 10-19 8-11 11-13 9-8 12-9 2-1 1-33 5-21 7-17 8-13 11-14 8-8 17-12 17-8 13-4 11-2h28l5 1 3-9 4-10 8-14 11-14 15-15 15-11 11-7 21-10 17-6 12-3z" fill="#FEB674"/>
<path transform="translate(682,313)" d="m0 0h12l7 3 14 8 16 12 11 9 14 13 7 8 8 9 11 16 3 6v3l15-1h12l18 2 15 3 16 5 16 8 10 6 12 9 10 9 7 7 10 13 10 18 6 16 4 19v31l-3 15-6 18-7 14 1 3 11 9 10 11 7 10 3 6-2 2-4-4v-2h-2l-3-7-5-5-7-2-2-7-2-2-4-1v5l-4 5h-3v2l6 2 2 4-1 2h2l3 4v2l3 1 1 4h2l5 10v2l2 1v4h-2l-7-14-11-14-7-7-13-9-8-5-19-7-22-4-4-3-1-8v-45l-9-5-5-5-4-6-2-7v-10l4-10 7-8 8-5 6-2h15l13 5 7 11 2 7v11l-4 9-7 8-8 5v29l-1 9 17 4 17 7 2-6 6-15 4-17v-29l-4-16-5-13-6-11-9-12-13-13-10-7-14-8-11-5-13-4-24-4-24 1-17 3-15 5-9 4h-8l-6-5-1-2v-7l4-6 16-7 6-2h4l-6-11-11-13-15-16-11-9-8-7-15-10 1 4 1 22 2 89v23l14-2h26l18 3 21 7 14 8 9 7 11 11 7 11 6 13 2 12v15l-2 13-5 12-2 5 10 2 10 5 12 10 8 11 7 16 3 12 1 8v19l-3 17-7 19-6 9-7 9-10 9-10 6-5 2h-3l4 13 1 6v16l-3 16-7 16-7 11-8 9-11 8-7 4-11 3-11 1-4 14-6 12-11 12-10 8-10 5-14 4h-16l-8-3v-299l-5-1-6-5-5-8-1-4v-12l4-10 2-3h2l2-4 12-6h15l10 5 6 7 4 11v7l-4 11-5 7-6 4h-3v281l10-4 9-6 5-5 4-5 4-8 2-7v-30l-1-30-2-88-9-7-5-6-3-10v-7l3-9 6-8 10-6 3-1h16l12 6 7 8 3 9v10l-3 9-7 8-7 4h-3l2 88v40l16-4 8-6 7-7 7-11 4-12 1-5v-16l-3-11-4-6-14-6-7-6-2-4 1-6 6-7h9l13 5 2 1h7l9-3 9-6 9-10 7-15 3-10 2-18-3-19-3-9-6-9-6-7-10-5-4-1h-8l-9 3-9 8-5 2-7-1-5-5-1-2v-7l4-8 12-8 8-10 7-14 2-9v-17l-4-13-7-10-8-8-15-9-15-5-14-3h-33l-25 5-5-1-2-55-1-44-1-24-1-44v-18z" fill="#FDE8D4"/>
<path transform="translate(687,550)" d="m0 0h15l10 5 6 7 4 11v7l-4 11-5 7-6 4h-3v281l10-4 9-6 5-5 4-5 4-8 2-7v-30l-1-30-2-88-9-7-5-6-3-10v-7l3-9 6-8 10-6 3-1h16l12 6 7 8 3 9v10l-3 9-7 8-7 4h-3l2 88v40l16-4 8-6 7-7 7-11 4-12 1-5v-16l-3-11-4-6-14-6-7-6-2-4 1-6 6-7h9l13 5 2 1h7l9-3 9-6 9-10 7-15 3-10 2-18-3-19-2-10-5-11-4-4-4-2-5-3-5-2v-2l-5-1-3-1 9-2 15 4 6 2 2-6 3 1v2h2l4 7 5 7 1 4h2l6 17 2 3 1 8v19l-3 17-7 19-6 9-7 9-10 9-10 6-5 2h-3l4 13 1 6v16l-3 16-7 16-7 11-8 9-11 8-7 4-11 3-11 1-4 14-6 12-11 12-10 8-10 5-14 4h-16l-8-3v-299l-5-1-6-5-5-8-1-4v-12l4-10 2-3h2l2-4z" fill="#FEB674"/>
<path transform="translate(931,603)" d="m0 0 5 1 3 4 1 5 8 2 6 8v4h2l1 4h4l4 4 7 16 5 22 1 25-3 19-4 13-5 13-8 13-9 12-6 7-11 9-11 8-12 6h-2l2 14v19l-3 18-5 15-8 14-11 14-8 8-11 8-9 6-15 7-19 6-19 3h-21l-3 10-5 10-10 13-9 10-12 11-16 12-13 8-10 6-26 12-21 7-30 6h-8l-3-3-1-270v-58l2-72 1-13 1-3h3l2 7 3-1 3-9h4l1 22 1-27h1l1 250 1 152 16-4 25-9 23-12 15-10 16-13 9-8 10-13 5-9 1-4-8-1-6-3-3-4v-9l6-6h10l10 2 11 1h16l21-3 16-5 16-8 10-7 11-10 9-13 5-10 4-13 1-6v-23l-3-14-5-14-9-17v-6l6-7 5-1 7 2 6 9 6 12 2 3 10-6 11-8 11-11 9-13 6-12 5-16 2-15v-12l-2-16-4-14-1-5-2-5-4-8v-2h-2l-2-4-5-5v-2h-2l-1-5-4-1v-2h-2v-2l4-2 2-3z" fill="#FEB673"/>
<path transform="translate(537,441)" d="m0 0h15l7 3 5 5 2 4 1 253v41l4 2 5 5 4 8 1 3v10l-4 10-8 7-6 3-8 1-12-3-9-6-5-7-3-9v-8l4-10 8-8 7-2-1-111v-169l-9 3-8 4-11 11-6 10-3 9v32l1 18 2 67 2 31 7 5 6 8 2 6v14l-3 7-7 8-10 4-8 1-11-3-9-6-6-7-3-7-1-11 4-11 6-7 8-4h2l-2-34-2-67-1-18v-12l-9 3-11 8-8 9-9 16-5 19v12l2 9 2 4 13 3 10 4 4 6-1 9-4 4-3 1h-17l-10-3-9 4-9 7-9 14-4 9-2 4-2-5 3-4 2-5 1-9h3l3-1v-4l-14 2-3-4 1 4-1 2h-2l-1 3h-2l-2 5v3l-3 5-4 11-2 11-2-2 2-12 6-18 8-15 12-14 11-8 4-1-4-18v-12l4-20 7-17 9-14 11-12 12-9 9-4 14-3 5-10 6-11 9-10 7-7 13-8 8-3z" fill="#FDE8D4"/>
<path transform="translate(606,312)" d="m0 0h10l15 2 3 4 1 57v233l-1 60h-1l-1-40v-15l-4 1-2 8-4 1-2-4v-3h-3l-2 45-1 43h-1l-1-44v-325h-10l-19 3-17 5-13 5-18 10-12 9-13 11-11 14-6 10-6 15v4l12 6 3 3 1 7-2 5-5 4h-8l-17-7-13-3h-26l-16 4-11 5-12 7-13 12-9 12-8 15-4 12-3 19v13l3 18 6 16 3 7v9l-4 5-2 1h-8l-6-5-7-15v-3l-6 3-17 17-9 12-9 19-5 17-1 5v33h-2l-1-2-1-23-1-8h2l-2-6-2 1-2 10-5 1h-6l-1 7-1 17h-1v-29l4-20 6-16 10-19 8-11 11-13 9-8 12-9 2-1 1-33 5-21 7-17 8-13 11-14 8-8 17-12 17-8 13-4 11-2h28l5 1 3-9 4-10 8-14 11-14 15-15 15-11 11-7 21-10 17-6 12-3z" fill="#FDE9D5"/>
<path transform="translate(483,170)" d="m0 0 7 2 4 6 9 23 7 23 5 22 3 16v9l-4 8-3 3h-7l-4-5-4-21-7-28-2-3-6 36-5 25-3 6-6 5h-5l-8-9-20-26-2-2v8l5 42v11l-3 7-4 4-5 1-4-2-3-11-5-34-6-47v-15l6-9 3-2h6l8 7 10 10 11 14 11 15 4-25 6-48 4-11 4-4z" fill="#FDFDFD"/>
<path transform="translate(550,621)" d="m0 0h6v2l6-1 2 2 1 16 2 66v41l4 2 5 5 4 8 1 3v10l-4 10-8 7-6 3-8 1-12-3-9-6-5-7-3-9v-8l4-10 8-8 7-2v-110h1l1 6h2v-2l-2-1 1-11z" fill="#FEB572"/>
<path transform="translate(811,202)" d="m0 0 7 1 4 5v2l5-1h9l10 3 5 5 3 4 1 3v14l-5 15-11 27-12 31-4 5-6 2-5-5-1-3v-7l4-15 6-15 8-23 5-13v-2l-2-1h-8l-8 4-5 6-12 38-5 8-6 2-6-6v-14l12-40 8-21 4-6z" fill="#FDFCFC"/>
<path transform="translate(630,168)" d="m0 0h7l6 2 7 5 4 7 1 4v10l-3 9-7 8-9 6-19 8h-3l2 3h12l7-3 7-4h8l5 5-1 9-5 6-9 5-11 4-4 1h-11l-8-3-5-5-4-5-4-8-2-12v-10l3-15 5-9 6-7 11-7 7-3zm-9 26-8 6-2 4 1 4 13-5 6-4-4-5z" fill="#FDFDFD"/>
<path transform="translate(701,175)" d="m0 0h12l9 3 4 5v9l-6 24-1 6v14l2 10-1 9-5 5-7-1-5-5-8 2h-10l-10-3-9-8-4-8-1-6v-13l2-8 5-12 8-10 11-8 10-4zm-6 24-10 9-4 9-1 10 4 6 2 1h8l5-4 1-17 2-11-3-3z" fill="#FDFDFD"/>
<path transform="translate(524,154)" d="m0 0h8l5 5 1 2 3 35 2 49 25-8 4-1h8l5 6v7l-4 6-6 4-26 7-14 5h-6l-4-7-1-4-3-49-3-29v-21z" fill="#FDFDFD"/>
<path transform="translate(687,550)" d="m0 0h15l10 5 6 7 4 11v7l-4 11-5 7-6 4h-3v38h-1l-1-11-2-1-1-7h-1l-1-5-3-4-8-3-2 55-1 120h-1v-181l-5-1-6-5-5-8-1-4v-12l4-10 2-3h2l2-4z" fill="#FEE8D4"/>
<path transform="translate(505,619)" d="m0 0 2 2 2 27 5 1 5 4 6 8 2 6v14l-3 7-7 8-10 4-8 1-11-3-9-6-6-7-3-7-1-11 3-9 4-3h2l2-4 4-3 5-1 2-4v-23h1l1 5h3l1 4 4-1 2-7z" fill="#FEB775"/>
<path transform="translate(745,185)" d="m0 0h7l7 5 7-1 13-1 9 3 6 7 2 4v7l-3 7-5 4h-6l-5-4-2-5h-8l-9 5-7 28-5 19-5 5h-6l-5-5-1-7 5-28 5-22-1-4v-10l5-6z" fill="#FDFDFD"/>
<path transform="translate(483,170)" d="m0 0 7 2 4 6 9 23 7 23 5 22 3 16v9l-4 8-3 3h-7l-4-5-4-21-7-28-2-3-6 36-5 25-3 6-6 5h-5l-8-9-20-26-2-2v8l5 42v11l-3 7-4 4-5 1-4-2-3-11-5-34-6-47v-15l6-9 3-2h6l8 7 10 10 11 14 11 15 4-25 6-48 4-11 4-4zm1 2-5 2-5 10-5 41-6 36-5-5-14-18-11-13-9-9-7-1-6 5-3 7 1 15 9 68 4 18 3 3 5-1 4-5 1-3v-16l-4-32-2-18 5 3 8 10 10 13 9 12 6 1 6-5 3-10 10-59v-2h2l3 12 6 22 5 24 4 4 6-2 4-6 1-9-6-29-8-29-8-21-5-10-5-3z" fill="#FEE9D5"/>
<path transform="translate(524,154)" d="m0 0h8l5 5 1 2 3 35 2 49 25-8 4-1h8l5 6v7l-4 6-6 4-26 7-14 5h-6l-4-7-1-4-3-49-3-29v-21zm3 1-5 3-3 5v11l4 43 3 43 3 8 1 1 8-1 26-8 14-4 5-6v-8l-5-5-11 2-24 7-1-1-4-66-2-19-4-4z" fill="#FEE9D5"/>
<path transform="translate(630,168)" d="m0 0h7l6 2 7 5 4 7 1 4v10l-3 9-7 8-9 6-19 8h-3l2 3h12l7-3 7-4h8l5 5-1 9-5 6-9 5-11 4-4 1h-11l-8-3-5-5-4-5-4-8-2-12v-10l3-15 5-9 6-7 11-7 7-3zm-3 2-11 4-11 7-7 9-5 16v19l3 11 6 8 6 5 5 2h14l16-6 8-6 2-4v-7l-3-3-5-1-14 7-4 1h-10l-4-3v-2l19-8 12-7 7-8 3-10-1-10-5-8-6-5-4-1z" fill="#FEE9D5"/>
<path transform="translate(811,202)" d="m0 0 7 1 4 5v2l5-1h9l10 3 5 5 3 4 1 3v14l-5 15-11 27-12 31-4 5-6 2-5-5-1-3v-7l4-15 6-15 8-23 5-13v-2l-2-1h-8l-8 4-5 4 2-4 6-5 3-1h11l3 2-1 8-15 40-6 18v11l2 3h5l4-5 8-20 19-48 1-5v-9l-4-9-8-5-4-1h-16l-3-6-8-1-5 5-3 4 1-5 5-6z" fill="#FEE9D5"/>
<path transform="translate(745,185)" d="m0 0h7l7 5 7-1 13-1 9 3 6 7 2 4v7l-3 7-5 4h-6l-5-4-2-5h-8l-9 5-7 28-5 19-5 5h-6l-5-5-1-7 5-28 5-22-1-4v-10l5-6zm1 2-5 3-2 4 1 7 1 5-7 30-3 15v10l5 5h5l4-4 9-38 3-9 12-6 7 1 4 6 3 2 7-1 4-6 1-6-3-7-5-5-7-3h-11l-7 2-5-1-5-4z" fill="#FEE9D5"/>
<path transform="translate(701,175)" d="m0 0h12l9 3 4 5v9l-6 24-1 6v14l2 10-1 9-5 5-7-1-5-5-8 2h-10l-10-3-9-8-4-8-1-6v-13l2-8 5-12 8-10 11-8 10-4zm-1 2-11 4-9 6-5 5-4 5-6 12-2 6-1 14 2 9 5 8 6 5 8 3h14l4-2h3l5 6h6l4-5v-8l-2-9v-10l5-26 3-13-2-5-3-3-7-2z" fill="#FEE9D5"/>
<path transform="translate(784,605)" d="m0 0h5v3l1 1h6l3-2h3l-1 4 1 3-5 2-1 2h-2l-1 5-6 3h-3v-3l-3-1-2 2-2-3v-9l4-4h2z" fill="#FEB673"/>
<path transform="translate(801,214)" d="m0 0 1 3-12 36-6 22v9l5 5 4-1 5-11 11-33 1 3-11 35-5 8-6 2-6-6v-14l12-40z" fill="#FEE9D5"/>
<path transform="translate(701,195)" d="m0 0 4 1-2 12-2 22-6 5-2 1h-7l-6-5-1-2v-11l4-10 8-9zm-6 4-10 9-4 9-1 10 4 6 2 1h8l5-4 1-17 2-11-3-3z" fill="#FEE9D5"/>
<path transform="translate(629,189)" d="m0 0 7 2 1 1-1 7-8 5-16 7h-4l1-7 4-7 9-6zm-8 5-8 6-2 4 1 4 13-5 6-4-4-5z" fill="#FEE9D5"/>
<path transform="translate(613,637)" d="m0 0 2 1v23l-1 43h-1l-1-44v-20z" fill="#FEE7D1"/>
<path transform="translate(946,611)" d="m0 0 4 2 8 10 4 8-2 2-4-4v-2h-2l-3-7-5-6z" fill="#FEE3C9"/>
<path transform="translate(682,313)" d="m0 0h12l5 2v3h-3-4-5v-3l-3 3h-5l-2 1 2-4z" fill="#FDF8F3"/>
<path transform="translate(930,623)" d="m0 0h3l3 4v2l3 1 1 4h2l5 10v2l2 1v4h-2l-7-14-10-13z" fill="#FEE2C8"/>
<path transform="translate(622,314)" d="m0 0h9l2 2v20h-1l-1-16-4-2-1 1h-4l-1-3z" fill="#FDFAF7"/>
<path transform="translate(413,632)" d="m0 0m-4 1h3l2 1-1 5-6 13-2 4-2-5 3-4 2-5z" fill="#FEE5CD"/>
<path transform="translate(829,617)" d="m0 0 6 1v2l2-2 1 6 3 1 5 11h-3l-5-8-6-7-3-2z" fill="#FEE4CD"/>
<path transform="translate(595,313)" d="m0 0h6l-4 4-4-1-4 3h-3l-6-2 1-2z" fill="#FDF8F3"/>
<path transform="translate(386,644)" d="m0 0 3 1-2 5-4 13-1 7-2-2 2-12z" fill="#FEE5CF"/>
<path transform="translate(794,616)" d="m0 0 2 1v2h2l-1 3-7 5-8 1 1-3h5l5-4z" fill="#FEDEC0"/>
<path transform="translate(606,312)" d="m0 0h10l5 1-2 5-2-1v-2l-9-1-1 2h-3l-2-3z" fill="#FDF8F3"/>
<path transform="translate(861,627)" d="m0 0h3l5 13 1 6-2 1-5-16h-2z" fill="#FEDEC0"/>
<path transform="translate(563,337)" d="m0 0 3 2h3l3-1v3l-8 3h-4l1-4z" fill="#FDF7F2"/>
<path transform="translate(700,317)" d="m0 0 5 1 13 8v2l-18-9z" fill="#FDF6F0"/>
<path transform="translate(517,343)" d="m0 0 2 1-3 4-1 3-6 1-2 1 2-4z" fill="#FDF8F4"/>
<path transform="translate(718,352)" d="m0 0h2v2l4 1 4 5 5 5-4-1-11-10z" fill="#FDF5EE"/>
<path transform="translate(472,658)" d="m0 0h2l-2 10v6l-3-1 1-10z" fill="#FEE9D5"/>
<path transform="translate(560,321)" d="m0 0 4 1-6 4-9 1 3-3z" fill="#FDF8F3"/>
<path transform="translate(682,313)" d="m0 0h5l-2 4-8 2 2-4z" fill="#FDF7F1"/>
<path transform="translate(484,646)" d="m0 0m-2 1h2l-1 3-8 7-2-1 6-7z" fill="#FEE9D5"/>
<path transform="translate(498,359)" d="m0 0 2 2-7 7-2 1-2 3 1-5z" fill="#FDF7F2"/>
<path transform="translate(963,637)" d="m0 0 3 1 5 10v2l-3-1-5-10z" fill="#FEE0C3"/>
<path transform="translate(942,636)" d="m0 0 3 4 2 6 2 1v4h-2l-6-13z" fill="#FEE5CD"/>
<path transform="translate(602,330)" d="m0 0h6l3 4h-11z" fill="#FDFBFA"/>
<path transform="translate(721,330)" d="m0 0 5 2 6 5-3 2-2-3-4-1z" fill="#FDF9F5"/>
<path transform="translate(731,650)" d="m0 0 1 2-8 8-2 3-1-2 6-8z" fill="#FEE7D1"/>
</svg>
