<?xml version="1.0" encoding="UTF-8"?>
<svg version="1.1" viewBox="0 0 1600 1600" width="1600" height="1600" xmlns="http://www.w3.org/2000/svg">
<path transform="translate(781,119)" d="m0 0h24l11 3 12 5 11 8 10 10 8 12 1 1 124 1 8 3 7 8 2 5v9l-4 8-6 5-4 2h-120l-1 12-5 14-7 11-8 9-10 7-10 5-7 2h-4l-1 38-2 34 10 3 14 7 14 11 10 12 8 13 6 15 3 15v20l-3 15-7 16-8 11-4 5-10 8-14 8-11 3-1 1-1 52 8-7 25-25 7-8 12-12h2l2-4 30-30 2-20 6-75 1-13-16-9-10-9-7-8-7-12-4-13-1-6v-16l4-15 8-13 9-10 11-7 8-4 15-3h13l15 3 17 8 10 8 9 10 8 14 4 13 1 15-2 14-4 11-7 11-6 7-14 9-12 4-1 4-3 39-1 17 7-6 7-8 60-60 2-79 4-9 7-6-9-6-6-6-4-11 1-9 4-10 7-9 7-5 3-1h17l9 4 7 8 2 5v11l-7 16-5 7-9 6 8 6 4 10v34l9-2h65l3-1 7-10 11-7 14-4h12l13 3 12 7 9 10 5 10 2 9v9l-3 12-5 9-9 10-9 6-10 3h-21l-12-4-9-6-8-8-4-6h-51l-10 9-25 25-7 6-1 2 118-1h126l8 4 6 7 2 6-1 10-4 6-6 5-6 2-77 2h-105l-102 1-8 7-42 42-7 8-4 2-2 4-10 9-39 39-7 8-7 6-3 4h-2l-2 4-7 6-7 8-37 37-1 35-1 15 6-4 7-8 14-14 7-8 31-31 7-8 27-27 7-8 23-23 3-4h2l2-4 14-14 9-11 5-5h2l2-4 2-2h22l159 7h10l10-19 10-12 13-10 16-8 12-3 9-1h9l18 3 16 8 10 8 9 10 8 16 3 9 1 5v24l-3 13-6 14-9 13-8 8-14 10-11 5-15 4-9 1h-10l-15-3-9-4-12-7-9-8-9-12-6-13-3-9-37-2-46-1-26-1-45-3h-14l-8 7-9 9-7 8-45 45-3 4h-2l-2 4-23 23-7 8-37 37-7 8-33 33v3l8 7 15 15 7 8 2 1 3-17 5-15 6-11 10-14 14-15 14-11 13-9 18-10 25-10 13-4 25-4 3-12 4-10 7-11 9-10 8-7 10-6 11-5 17-4h17l15 3 15 6 11 7 10 9 8 9 6 10 5 13 2 9v25l-4 15-7 14-7 9-6 7-10 8-17 9-18 4h-21l-16-4-16-8-12-9-8-8-8-13-4-8-11 1-17 4-16 6-21 11-11 8-11 9-10 11-8 14-3 9-1 9v35l3 5 9 10 84 84 5 1h24l6-3 8-10 7-7 14-8 11-4 8-2h20l16 4 16 8 10 8 9 11 8 16 3 12v15l-2 12-5 12-7 9-8 8-11 7-13 5-10 1v145l-1 54-3 9-3 4h-2v2l-5 3-4 1h-10l-6-3-5-4-4-9v-70l2-136-8-5-11-8-8-8-7-11-5-13-2-7-18 2-10 2h-10l-8-4-6-5-7-8-53-53-7-8-3-3-1 63-1 13v10h13l3-1 7-8 8-4h13l9 2 9 6 5 8 1 11-3 12-6 8-5 4-7 3h-13l-6-2-29-2 1 17 1 76v82l-2 100-1 19-3 7-5 5-6 3h-8l-8-4-5-6-2-13-1-7-6 12-6 8-9 8-12 6-12 3h-20l-13-3-14-7-11-9-9-12-1-2-3 11-4 7-6 4-3 1h-10l-8-4-6-7-1-4-1-18-3-187-1-85-1-1-9-1h-20l-7 2h-8l-8-4-6-7-2-4v-13l4-9 9-7 9-3 11 2 8 4 20 2-1-80-4 2-42 42h-2l-2 4-8 7-14 14-7 4-22 4h-24l-9-1-2 6-5 10-9 11-10 7-4 2v99l-1 88-1 35-3 9-5 6-6 3-9 1-8-3-6-5-4-10v-216l-11-2-16-8-7-6-9-12-6-13-2-9v-16l3-12 6-12 8-10 10-8 16-8 14-3h12l15 3 12 5 11 8 7 7 9 14 17 2h17l8-7 13-13 8-7 17-17 8-7 25-25 8-7 12-12v-65l-7-14-8-10-11-10-11-7-16-8-21-6-19-2h-19l-2 6-7 11-12 12-13 8-13 5-14 2h-12l-17-3-16-8-11-8-7-7-7-10-7-14-4-16v-22l4-16 8-15 8-10 9-8 14-8 15-5 7-1h14l18 4 16 8 8 6 7 6 10 14 6 13 3 10v4h19l23 3 15 4 16 6 19 10 13 9 11 9v2l4 2 9 10 10 15 7 15 3 10v53l1 79 3 178 1 46 1 113 9-12 12-9 10-4 1-4v-71l1-101 1-58v-212l-2-4-4-2-1-3-4-2-10-10-7-8-8-7-7-8-91-91v-2l-4-2-7-8-40-40-4-1-78-3-32-2-46-2h-9l-3 17-5 12-7 11-9 10-13 9-12 5-8 2h-27l-14-4-14-8-11-9-10-11-8-14-5-13-2-9v-27l5-17 6-11 8-10 10-9 14-8 14-4 7-1h10l16 3 13 5 11 7 10 9 8 9 7 11v2l37 2 144 7 15 4 9 7 11 11v2l4 2 7 8 8 7 7 8 83 83v2l4 2 7 8 28 28 1-8-1-60-7-8-12-11-8-7-7-7-8-7-7-7-8-7-9-9-8-7-13-12-12-11-10-9-11-11-6-4-7-7-6-5-7-8-12-11-10-9-12-11-5-3-43-2-117-3-88-3-16-1-8-4-6-7-1-3v-12l4-7 6-5 6-2h29l147 4 42 2-4-5-8-7-12-11-10-9-9-9-2-3-41-3h-19l-11 12-7 4-10 2-12-1-12-6-7-8-5-10-2-8v-10l3-12 5-8 5-5 8-6 10-3h8l8 2 10 6 7 7v2h15l57 4 9 1 1-33 1-14 2-9-4-2-6-7-4-9-1-4v-7l3-10 7-8 8-7 7-3 9-1 13 3 10 6 7 6 5 9 1 4v10l-3 8-6 8-7 5v12l-3 55-2 26 15 15 8 7 7 7 8 7 15 14 16 15 8 8 3 1v-58l-16-8-10-9-7-9-7-14-3-16v-12l2-12 5-12 7-11 10-10 13-8 10-4 11-2h14l12 2 12 5 10 7 9 8 7 10 6 15 2 10v15l-3 14-8 16-9 11-13 9-11 5h-2l-1 52-1 41 3 5 12 11 47 44 8 7 15 14 12 12 2 1v2h2v-47l-9-2-14-7-13-10-11-12-8-13-6-13-3-12-1-7v-19l4-18 8-16 7-9 5-5 9-8 12-7 12-4 1-2 2-53 1-20-15-9-12-12-7-10-6-12-3-16-126-1-10-5-5-8-1-3v-7l3-8 9-8 3-1h134l2-5 6-9 8-8 10-7 11-5zm6 40-8 4-5 5-4 7-1 8v10l4 11 9 10 8 5 4 1h13l8-4 7-8 3-6v-16l-3-10-8-10-10-6-4-1zm-132 104-10 3-5 4-6 10-1 4v8l3 9 6 7 7 4 5 1h9l9-4 5-5 4-5 2-6v-11l-3-7-6-7-8-4zm266 5-8 4-5 6-1 3v12l5 10 6 7 11 5h14l8-4 6-9v-13l-4-8-5-6-10-6-4-1zm-135 101-6 2v2l6 4 5 4 1 4 6-2 1 3h6l2 3h2v2l7 5h10v-5l-7-9-8-6-11-5-8-2zm-15 5-4 5v2l-5 1-5 5-4 8-1 7v9l2 10 6 12 8 10 10 7 10 4 12 1 10-2 8-4 8-7 3-7v-3l-9-3-1-2h-7l-11 5-4 1h-9l-8-3-5-4-7-1v-22l-3-3-2-1 1-10 4-2 6-4 2-6 2-2zm8 2m49 26-1 1v7l2 3v3l2-1v-12zm419 72-9 2-10 5-6 5-7 11-2 7-1 11 2 10 6 10 9 6 6 2h14l10-4 8-6 8-9 4-9 1-5v-11l-3-10-7-9-8-4-8-2zm-911 2-11 4-8 7-4 7-2 9v10l3 12 7 12 9 8 8 4 4 1h15l10-5 7-8 4-10 1-5v-8l-3-13-7-11-7-7-10-5-8-2zm734 122-15 6-9 8-5 10-2 7 1 11 2 9 5 9 8 8 8 4 8 2h14l8-2 9-5 5-4 7-11 2-6 1-13-2-9-5-10-7-7-11-6-4-1zm-566 4-10 3-10 8-6 12-1 4v12l4 12 6 8 7 6 9 4h18l7-3 8-6 4-5 3-9 2-7v-8l-4-12-7-9-11-8-7-2zm311 158-1 1v66l-1 105-1 169v65l13 7 11 8 9 12 8 16h1v-31l-1-125v-136l1-12v-105l-5-6h-2l-2-4-8-7-15-16-6-7zm-322 127-9 4-5 5-3 4v12l4 6 6 5 4 2h15l10-6 4-5 2-4v-8l-4-8-5-4-8-3zm589-1-12 3-9 7-3 5-1 10 3 9 8 9 10 5 6 1h10l8-3 6-4 5-6 1-3v-12l-4-8-7-7-8-4-9-2zm-293 317-9 2-6 5-1 2v11l4 6 8 7 9 3h11l6-4 4-5v-9l-6-9-7-6-7-3z" fill="#FBFBFB"/>
<path transform="translate(1190,665)" d="m0 0h13l12 2 12 5 9 6 8 8 6 12 2 6v16l-4 12-6 9-9 8-11 5-1 48-1 261-1 28-3 7-6 7-8 3h-7l-9-3-6-9-1-4-1-97 1-242-11-4-8-6-5-4-7-11-3-9-1-11 2-10 5-10 9-10 10-7 10-4zm9 35-9 4 1 5h3l2 5 6 1 1 5 3 1 4-4 2-3-1-6-5-6-4-2z" fill="#FAFAFA"/>
<path transform="translate(376,667)" d="m0 0h11l9 2 10 5 7 6 7 10 4 11 1 10-2 11-5 10-6 7-4 4 1 32v126l-1 145-2 42-4 8-7 6-3 1h-11l-8-4-5-6-2-6v-345l-5-2-9-9-6-12-2-9v-9l3-12 6-9 9-8 10-4z" fill="#FAFAFA"/>
<path transform="translate(1309,655)" d="m0 0h15l16 4 12 6 10 8 8 9 7 14 3 11v15l-2 10-7 14-6 8-9 7-14 7-5 1 3 42 4 78v39l-4 6-7 6-4 1h-9l-8-4-6-7-2-6-1-9-5-97-3-51-12-6-11-9-7-9-4-8-4-15v-18l4-13 6-10 9-10 11-7 12-5zm1 42-8 5-4 4 2 11 7-1 6 4 4 6 7 2h6l7-5 2-4v-8l-5-8-5-4-6-2z" fill="#F9F9F9"/>
<path transform="translate(266,649)" d="m0 0h10l13 2 12 5 9 6 5 4 8 10 6 12 2 8 1 13-2 14-4 11-6 10-12 12-11 7-11 3v17l2 39 1 48v40l-3 6-8 7-2 1h-13l-8-5-4-5-2-5-1-7-3-79-2-59-3-3-10-7-10-10-7-14-2-6-1-7v-17l4-13 6-11 11-12 10-7 13-6zm0 41-9 5-6 8v13l7 8 4 2 11 1 9-3 7-8 2-4v-9l-5-8-6-4-3-1z" fill="#FAFAFA"/>
<path transform="translate(620,982)" d="m0 0 14 1 10 3 10 6 10 9 7 12 3 10v18l-4 13-7 11-8 7-1 8-2 66-3 68-1 14-3 10-6 7-6 3h-11l-8-4-5-6-2-6v-33l1-31 3-65 2-21-12-3-10-6-9-8-6-9-4-12-1-5v-11l3-13 6-11 9-10 11-7 13-4z" fill="#F6F6F6"/>
<path transform="translate(950,989)" d="m0 0h20l14 5 10 8 7 9 4 11 1 4v14l-4 13-4 8-11 12-8 5h-2v58l-2 90-2 9-4 6-6 4-3 1h-12l-6-3-6-7-2-6v-76l1-48v-28l-9-6-5-4-7-11-3-8-1-7v-10l2-9 6-12 9-10 9-7z" fill="#FBFBFB"/>
<path transform="translate(972,715)" d="m0 0h17l14 5 10 9 7 9 4 9 2 9 49 1 2-5 8-6 6-2h9l12 5 8 8 3 8v17l-3 10-5 8-7 5-3 1h-12l-12-5-5-3-15-2-27-1h-13l-7 11-7 8-9 6-8 4-9 2h-9l-10-2-11-6-10-10-6-10-4-13v-22l4-14 7-13 10-11 14-8z" fill="#FBFBFB"/>
<path transform="translate(602,719)" d="m0 0h18l13 4 9 6 8 8 6 10 4 14v15l-4 14-7 12-9 9-10 6-8 3-7 1h-12l-12-3-9-5-10-9-6-9h-50l-2 4-8 5-3 1h-13l-12-5-10-8-5-9-1-4v-11l3-8 6-8 8-5 8-2h10l9 3 9 6 5 3 44-2 1-5 6-11 11-11 16-8z" fill="#FBFBFB"/>
<path transform="translate(1247,784)" d="m0 0h13l6 3 6 7 2 6 1 8 5 89 5 91 1 27-2 9-7 8-6 3h-11l-10-6-4-6-2-15-3-58-3-47-4-88v-15l4-9 7-6z" fill="#FBFBFB"/>
<path transform="translate(322,787)" d="m0 0h11l8 4 5 6 2 6v99l-2 64-2 39-3 9-4 5-10 5h-9l-8-5-5-6-2-6v-42l1-54 3-92 1-15 4-10 7-6z" fill="#FBFBFB"/>
<path transform="translate(784,367)" d="m0 0h10l13 4 11 7 9 10 7 14 2 9v12l-4 13-8 11-9 6-9 3h-16l-10-3-10-6-4-3v-2h-2l-9-13-4-12-1-6v-8l3-13 6-10 9-8 10-4zm2 2-6 2v2l6 4 5 4 1 4 6-2 1 3h6l2 3h2v2l7 5h10v-5l-7-9-8-6-11-5-8-2zm-15 5-4 5v2l-5 1-5 5-4 8-1 7v9l2 10 6 12 8 10 10 7 10 4 12 1 10-2 8-4 8-7 3-7v-3l-9-3-1-2h-7l-11 5-4 1h-9l-8-3-5-4-7-1v-22l-3-3-2-1 1-10 4-2 6-4 2-6 2-2zm8 2m49 26-1 1v7l2 3v3l2-1v-12z" fill="#878480"/>
<path transform="translate(462,223)" d="m0 0h15l11 4 7 5 5 9 2 7v9l-3 9-8 10-11 8-7 3-12 1-9-2-8-6-6-8-2-9 1-12 3-10 6-9 8-6z" fill="#FCFCFC"/>
<path transform="translate(1100,227)" d="m0 0h9l11 2 8 6 6 12v15l-6 12-8 7-8 3h-12l-13-5-7-6-4-11v-7l4-11 7-10 6-5z" fill="#FBFBFB"/>
<path transform="translate(771,715)" d="m0 0 5 3 1 2v60l-2 279-1 106-3 3-10 3-5 4-8 6-2 5h-2l-2 5-3 5-3-1-1-35-2-145-1-61-2-141v-93l2-3 1 4v53l1 79 3 178 1 46 1 113 9-12 12-9 10-4 1-4v-71l1-101 1-58v-212z" fill="#B5B3B1"/>
<path transform="translate(557,1169)" d="m0 0h10l10 5 8 6 4 9v10l-4 11-10 10-10 4h-10l-8-3-7-6-5-10v-13l3-8 9-10z" fill="#FDDBAB"/>
<path transform="translate(1324,576)" d="m0 0h12l8 4 7 9 3 10v11l-4 10-4 5-8 5-3 1h-11l-8-3-9-8-4-9v-15l4-9 8-7z" fill="#FEC77E"/>
<path transform="translate(435,1068)" d="m0 0 11 1 10 4 5 5 4 8 1 13-2 10-4 8-7 7-5 2h-13l-6-3-7-8-4-11v-15l3-10 8-9z" fill="#FBD9AA"/>
<path transform="translate(1040,191)" d="m0 0h14l8 4 7 7 2 6-1 11-6 14-2 3h-2v2l-10 6-9 1-11-4-5-5-4-3v-5h-2l-2-6v-8l1-4 4-1 2-6 5-6 8-5z" fill="#FBFBFB"/>
<path transform="translate(853,917)" d="m0 0h1l2 269v36l2 34 3 8 5 4 2 1h9l6-4 4-6 1-6 2-81v-209l7-2 24 1 3 1v2l6 1h8l10-4 7-8 2-8v-14l-3-6 1-4 5 8 1 11-3 12-6 8-5 4-7 3h-13l-6-2-29-2 1 17 1 76v82l-2 100-1 19-3 7-5 5-6 3h-8l-8-4-5-6-2-13-1-7-6 12-3 3-1-3 5-8 3-9 2-14-2-13-5-12-6-10-10-10-2-4 4 2 6 5 8 11 5 10 2 5v-30l-1-125v-135z" fill="#B8B7B4"/>
<path transform="translate(1139,1077)" d="m0 0h8l10 4 7 8 2 5v16l-4 9-5 6-8 4h-14l-8-4-5-7-3-9v-10l3-9 8-9z" fill="#F7D6A9"/>
<path transform="translate(560,1100)" d="m0 0h14l9 6 5 8 1 3v14l-5 10-7 6-5 2h-12l-8-4-7-8-1-3v-16l4-9 8-7z" fill="#FEC77E"/>
<path transform="translate(1017,1173)" d="m0 0h9l8 3 6 7 2 5v16l-4 9-5 6-7 3h-11l-8-3-6-7-3-10v-11l3-8 7-7z" fill="#FDDBAB"/>
<path transform="translate(1012,1106)" d="m0 0h8l10 5 5 5 3 10v7l-3 10-6 7-8 4-9 1-10-4-6-5-4-10v-7l3-9 6-8 8-5z" fill="#FEC77E"/>
<path transform="translate(372,607)" d="m0 0h12l10 5 6 5 3 8-1 10-5 13-5 5-6 3h-11l-6-3-5-6-4-11-1-4v-12l3-6 5-5z" fill="#FEC77E"/>
<path transform="translate(1070,612)" d="m0 0h11l10 5 7 8 2 7-1 10-7 11-7 6-3 1h-10l-8-4-4-5-5-8-1-11 4-11 5-5z" fill="#FEC780"/>
<path transform="translate(1206,609)" d="m0 0h12l9 3 7 7 2 6v10l-4 10-4 5-10 5h-10l-9-6-4-6-2-8v-12l4-8z" fill="#FEC77D"/>
<path transform="translate(506,618)" d="m0 0h12l7 4 4 5 2 6v16l-3 6-4 5-6 4-9 1-7-2-6-5-5-9-1-5v-8l3-9 8-7z" fill="#F6C380"/>
<path transform="translate(439,885)" d="m0 0 1 3-3 12v13l4 15 6 11 9 10 2 1v2l5 2 12 6 14 3 1 4v215l4 8 6 4 7 1 8-2 5-5 3-6 1-14v-60l1-1 1-150 5-1-2 2v99l-1 88-1 35-3 9-5 6-6 3-9 1-8-3-6-5-4-10v-216l-11-2-16-8-7-6-9-12-6-13-2-9v-16l3-12z" fill="#E4E4E3"/>
<path transform="translate(252,583)" d="m0 0h10l6 3 7 8 2 5v14l-4 8-5 4-9 3h-7l-8-3-5-5-3-5v-17l5-9 7-5z" fill="#FCFCFC"/>
<path transform="translate(1136,1022)" d="m0 0h11l9 4 6 7 1 4v8l-4 10-7 6-5 2h-14l-8-4-5-6-3-9 1-8 3-6 6-5z" fill="#FEC77E"/>
<path transform="translate(322,787)" d="m0 0h11l8 4 5 6 2 6v99l-2 64-2 39-3 9-4 5-10 5h-9l-8-5-5-6-2-6v-42l1-54 3-92 1-15 4-10 7-6zm0 3-8 6-4 10-5 184v16l3 7 5 7 4 2 7 1 9-3 5-4 3-10 1-27 4-149v-26l-4-10-8-4z" fill="#C0BFBD"/>
<path transform="translate(1160,377)" d="m0 0h126l8 4 6 7 2 6-1 10-4 6-6 5-6 2-77 2h-105l-102 1-8 7-42 42-7 8-4 2-2 4-5 3v-3l66-66 7-1 277-2 9-4 4-4 2-5v-8l-4-8-6-4-5-1h-131l1-2z" fill="#B8B6B4"/>
<path transform="translate(356,734)" d="m0 0 4 2 7 5 1 2v343l5 10 7 4 9 1 7-3 5-4 3-7 1-69 1-276 2-1 1 34v126l-1 145-2 42-4 8-7 6-3 1h-11l-8-4-5-6-2-6v-345l-5-2z" fill="#878480"/>
<path transform="translate(788,391)" d="m0 0h10l8 4 6 7 2 5v9l-4 8-5 5-3 2-5 1h-7l-9-4-6-8-2-7 1-8 6-9z" fill="#FEC881"/>
<path transform="translate(445,1024)" d="m0 0h7l7 3 5 6 4 10v10l-3 6-6 5-8 2-10-2-5-3-5-5-2-6 1-9 5-10 7-6z" fill="#FBFBFB"/>
<path transform="translate(813,758)" d="m0 0 5 1 7 8 15 15v2l4 2 12 12-1 57h-1l-1-55-4-5-8-7-10-10-7-8-8-9h-1v66l-1 105-1 169v65l12 6 3 3h-5l-4-3v-2l-8-1-2-5 2-292 1-113z" fill="#B5B3B1"/>
<path transform="translate(1247,730)" d="m0 0 1 2-6 9-9 8-11 5-1 48-1 261-1 28-3 7-6 7-8 3h-7l-9-3-6-9-1-4-1-97 1-242-9-3 3-1 8 1 1 4-1 60v277l4 8 5 4 6 2 10-1 6-4 4-7 1-3 2-337 12-6 7-6h2l2-4z" fill="#878480"/>
<path transform="translate(1247,784)" d="m0 0h13l6 3 4 4-1 2-12-6-10 1-6 3-3 6-1 5 1 32 6 108 4 74 4 9 3 3v2l5 1h11l6-4 4-6 1-4v-37l-8-151v-21h1l5 89 5 91 1 27-2 9-7 8-6 3h-11l-10-6-4-6-2-15-3-58-3-47-4-88v-15l4-9 7-6z" fill="#999793"/>
<path transform="translate(1038,189)" d="m0 0h17l9 4 7 8 2 5v11l-7 16-5 7-9 6 8 6 3 6v3h-2l-5-8-6-4h-12l-6 4-4 6-1 3-1 43v35l-4 5-8 7-11 11-7 8-10 10-5 3-17 17-4 6-7 6-1 2h-2l-1 3h-4v-11l4-50 2-5 11-4 6-2 9-7 11-11-2 5-7 8-14 9-12 4-1 4-3 39-1 17 7-6 7-8 60-60 2-79 4-9 7-6-9-6-6-6-4-11v-5l2 4 1 6h2l1 5 4 3v2l4 2 11 4 9-1 8-5h2v-2h2l2-5 5-12 1-11-3-7-6-6-7-3h-14l-8 4-6 5-4 8-3 1 2-6 7-9 7-5z" fill="#E4E4E3"/>
<path transform="translate(781,119)" d="m0 0h24l11 3 12 5 11 8 10 10 8 12 1 1 124 1 8 3 7 8 2 5v9l-2 5-2-3 1-9-3-8-8-6-3-1-126-1-6-9-8-10-8-7-11-7-14-5-5-1h-22l-15 5-13 8-7 7-1 2h-2l-2 5-5 8-6 1h-126l-9 4-5 5-2 1 2-5 8-7 3-1h134l2-5 6-9 8-8 10-7 11-5z" fill="#E2E2E1"/>
<path transform="translate(538,182)" d="m0 0 13 2 12 6 8 7 5 9 1 4v10l-3 8-6 8-7 5v12l-1 23h-1l-2-9 1-20v-6l11-10 4-8 1-3v-10l-4-9-5-6-12-7-6-2h-13l-8 3-11 10-4 8-1 9 2 9 7 10 5 5-2 32-2 25-1 1h-14l-63-4-5-1-5-6-2-1v-2l-5-2-9-4h-14l-8 3-8 6-5 6-1 3-4 2 2-6 6-8 10-7 10-3h8l8 2 10 6 7 7v2h15l57 4 9 1 1-33 1-14 2-9-4-2-6-7-4-9-1-4v-7l3-10 7-8 8-7 7-3z" fill="#BAB9B6"/>
<path transform="translate(913,1052)" d="m0 0 2 4 3 1 6 9 9 7 4 2 1 2v48l-1 75v28l4 9 7 5 7 1 10-2 5-6 2-5 1-14 1-85 1-53 5-4 11-8 8-11 2-2-1 5-8 10-9 8-6 2v58l-2 90-2 9-4 6-6 4-3 1h-12l-6-3-6-7-2-6v-76l1-48v-28l-9-6-5-4-7-11z" fill="#BFBDBB"/>
<path transform="translate(853,917)" d="m0 0h1l2 269v36l2 34 3 8 5 4 2 2-5-1-5-6-2-4-2-13-1-3-6 12-3 3-1-3 5-8 3-9 2-14-2-13-5-12-6-10-10-10-2-4 4 2 6 5 8 11 5 10 2 5v-30l-1-125v-135z" fill="#CAC9C7"/>
<path transform="translate(603,494)" d="m0 0 5 1 12 11 6 6v2l4 2 7 8 8 7 7 8 83 83v2l4 2 7 8 28 28 1-8-1-60-7-8-12-11-8-7-1-2 5 1 9 9 2 3 5 3 9 9 1 2 1 18v30l-1 25-4-1-2-4-4-2-10-10v-2h-2v-2l-3-1v-2h-2v-2l-3-1v-2h-2l-4-4v-2l-3-1-9-9v-2l-3-1v-2h-2l-4-5-5-4-6-7-7-6-6-7-5-5-5-4-7-8-28-28v-2l-4-2-1-3h-2v-2l-3-1v-2l-3-1v-2h-2l-3-3v-2l-3-1v-2h-2l-5-5-6-7-6-5v-2l-5-2-3-3z" fill="#D1D0CF"/>
<path transform="translate(310,393)" d="m0 0h1v5h2l4 8 2 1v2l8 2 15 1 84 2 142 4 23 1 9 10 4 5-4-2-9-8-2-1-43-2-117-3-88-3-16-1-8-4-6-7-1-3z" fill="#E4E4E3"/>
<path transform="translate(419,520)" d="m0 0 89 4 79 4 8 7 29 29v2l4 2 4 4v2l4 2 4 4 3 5 25 25-1 2-28-28v-2l-4-2-7-8-40-40-4-1-78-3-32-2-46-2h-9l-3 17-2 3-1-4 4-19z" fill="#AEADAA"/>
<path transform="translate(1098,974)" d="m0 0h1v145l-1 54-3 9-3 4h-2v2l-5 3-4 1h-10l-6-3-5-4-4-9v-70l1-74 1-45h1v55l-1 130 3 10 7 6 2 1h13l6-4 4-5 2-9 2-186z" fill="#878480"/>
<path transform="translate(1206,447)" d="m0 0 2 1-12 12-3 2-3 5-8 13-4 9h-21l-161-7h-9l-10 10-4-1 5-5 3-1 2-4 2-2h22l159 7h10l10-19 10-12z" fill="#E4E4E3"/>
<path transform="translate(377,446)" d="m0 0 5 2 9 7 9 9 10 15v2l37 2 144 7 12 3-2 2-16-2-104-5-58-3-13-1-7-10-5-7v-2h-2l-6-7v-2l-4-1-8-6z" fill="#D5D4D3"/>
<path transform="translate(439,885)" d="m0 0 1 3-3 12v13l4 15 6 11 9 10 2 1v2l5 2 12 6 12 4 1 1v219l-2-3v-216l-11-2-16-8-7-6-9-12-6-13-2-9v-16l3-12z" fill="#878480"/>
<path transform="translate(813,758)" d="m0 0 5 1 7 8 15 15v2l4 2 12 12-1 57h-1l-1-55-4-5-8-7-10-10-7-8-8-9h-1v66l-1 105h-1l-1-60v-113z" fill="#ACABA8"/>
<path transform="translate(242,761)" d="m0 0 3 1 1 17 4 112 1 16 3 8 6 5 5 2h8l7-3 6-7 1-3v-29l-3-83v-32l2 1v17l2 39 1 48v40l-3 6-8 7-2 1h-13l-8-5-4-5-2-5-1-7-3-79-2-59z" fill="#878480"/>
<path transform="translate(1149,888)" d="m0 0 2 2 4 15v15l-2 12-5 12-7 9-8 8-11 7-13 5-4 1h-7l-1 116-1 81-2 9-2 1 1-5 1-26 1-109 1-67 2-2 15-4 11-4 9-7 3-1v-2h2l2-4 7-11 5-14 1-7v-10l-3-14z" fill="#E4E4E3"/>
<path transform="translate(326,374)" d="m0 0h29l147 4 27 1v1h-42l-3 1-143-4h-13l-9 4-4 4-2 5h-2l-1 2 1-7 7-8z" fill="#AFADAA"/>
<path transform="translate(527,956)" d="m0 0 4 1-2 1v99l-1 88-1 35-2 4 1-227z" fill="#878480"/>
<path transform="translate(1160,377)" d="m0 0h126l8 4 6 7 2 6-1 10-4 6-6 5-9 2 1-3 9-4 4-4 2-5v-8l-4-8-6-4-5-1h-131l1-2z" fill="#D5D5D3"/>
<path transform="translate(1198,698)" d="m0 0 6 1 5 3 5 6v7l-3 6-9 6h-10l-6-3-3-4-1-3v-7l3-6 5-4zm1 2-9 4 1 5h3l2 5 6 1 1 5 3 1 4-4 2-3-1-6-5-6-4-2z" fill="#878480"/>
<path transform="translate(907,404)" d="m0 0h1v27l-2 29-9 10-79 79-3 1-1-3 1-36h1v35l8-7 25-25 7-8 12-12h2l2-4 30-30 2-20z" fill="#C1C0BE"/>
<path transform="translate(665,960)" d="m0 0 21 1 8 1 2 2 4 270 1 20 4 8 7 5 8 1 9-3 5-3-2 4-8 4h-10l-8-4-6-7-1-4-1-18-3-187-1-85-1-1-9-1h-20l-7 1 3-2z" fill="#878480"/>
<path transform="translate(1262,735)" d="m0 0 4 5 4 6 6 7 8 6 6 2 8 5 1 6 2 38v23l5 89 3 9 7 6 10 2 9-3 6-7 2-7h1v6l-4 6-7 6-4 1h-9l-8-4-6-7-2-6-1-9-5-97-3-51-12-6-11-9-7-9-3-5z" fill="#878480"/>
<path transform="translate(538,182)" d="m0 0 13 2 12 6 8 7 5 9 1 4v10l-3 8-6 8-7 5v12l-1 23h-1l-2-9 1-20v-6l11-10 4-8 1-3v-10l-4-9-5-6-12-7-6-2h-13l-8 3-11 10-4 8-1 9 2 9 7 10 5 5-1 8-2 1 1-9-4-2-6-7-4-9-1-4v-7l3-10 7-8 8-7 7-3z" fill="#E1E1E0"/>
<path transform="translate(462,223)" d="m0 0h15l11 4 7 5 5 9 2 7v9l-3 9-8 10-11 8-7 3-12 1-9-2-8-6-6-8-2-9 1-12 3-10 6-9 8-6zm1 2-10 4-3 2v2l-3 1-6 10-2 8v14l3 9h2l2 4 9 6 4 1h10l9-3 10-7 4-4v-2h2l5-10 1-3v-7l-4-13-2-3h-2v-2l-9-5-8-2z" fill="#D7D7D6"/>
<path transform="translate(618,1022)" d="m0 0h10l4 2 3 5v7l-5 6-9 2-7-3-3-4v-8l5-6z" fill="#878480"/>
<path transform="translate(980,754)" d="m0 0 4 1 3 6 1 9-4 10-4 5-6 1-3-4-1-3v-11l3-8z" fill="#878480"/>
<path transform="translate(874,542)" d="m0 0 3 1-5 6h-2l-2 4-7 6-7 8-37 37-1 35-1 15 6-4 7-8 13-13 2 1-11 12-6 7-7 6-3 3-3-1v-51l2-5h2l1-3h2v-2h2l2-4 4-4h2l2-4 4-2v-2h2l2-4 8-6 3-3 3-5 4-4h2v-2h2l1-3 4-2 3-5z" fill="#CBCBC9"/>
<path transform="translate(347,813)" d="m0 0h1v89l-2 64-2 39-3 9-3 2 3-9 1-13 4-151z" fill="#878480"/>
<path transform="translate(1310,695)" d="m0 0h13l10 5 6 7 2 5-1 8-4 6-8 5-12 1-11-4-5-4-4-7v-10l3-5 6-5zm0 2-8 5-4 4 2 11 7-1 6 4 4 6 7 2h6l7-5 2-4v-8l-5-8-5-4-6-2z" fill="#878480"/>
<path transform="translate(1e3 1053)" d="m0 0 1 3-8 11-7 7-7 4h-2v58l-2 90-2 9-4 6-6 4-3 1h-12l-6-3-6-7 1-3 6 8 7 3h8l8-4 4-5 2-5 1-14 1-85 1-53 5-4 11-8 8-11z" fill="#878480"/>
<path transform="translate(609,758)" d="m0 0h6l5 5 1 2v7l-5 8-5 2-6-1-3-4-1-11 4-6z" fill="#878480"/>
<path transform="translate(692,842)" d="m0 0 3 1 1 15v69l-1 1-22-1-11-5h-13l-1-2 10-2 9 3 7 3 20 2-1-80-4 2-36 36-1-3 26-26 8-7 5-5z" fill="#CDCCCB"/>
<path transform="translate(1050,964)" d="m0 0h5l5 3 1 6-1 104v99l3 6 6 5 2 1h10l6-3 5-4-2 4-5 4-2 1h-13l-6-4-5-6-2-8 1-130v-72l-8-5z" fill="#E4E4E3"/>
<path transform="translate(743,144)" d="m0 0v3l-6 10-6 1h-126l-9 4-5 5-2 1 2-5 8-7 3-1h134l2-5z" fill="#BCBAB8"/>
<path transform="translate(653,261)" d="m0 0h11l10 4 8 9 3 8v12l-6 12-11 8-5 1h-12l-7-3-8-7-4-8-2-9 4-13 9-10zm2 2-10 3-5 4-6 10-1 4v8l3 9 6 7 7 4 5 1h9l9-4 5-5 4-5 2-6v-11l-3-7-6-7-8-4z" fill="#E1E1E0"/>
<path transform="translate(1222,329)" d="m0 0 1 3-5 9-9 10-9 6-10 3h-21l-12-4-9-6-8-8-4-6h-51l-10 9-3 2 2-4 7-8 2-2 12-1 43 1 10 13 5 5 10 5 8 2h14l13-4 10-6 5-4 6-9z" fill="#B4B3B0"/>
<path transform="translate(588,179)" d="m0 0 1 2 3 1 4 6 4 3 4 1 124 1 3 2 2 7-1 6-2-4-1-8-126-1-10-5-5-8z" fill="#E0E0DF"/>
<path transform="translate(1309,655)" d="m0 0h15l16 4 8 4v1l-7-1-9-3-6-1h-20l-16 5-10 6-8 7-9 14-4 17 1 14 3 12-2 1-4-15v-18l4-13 6-10 9-10 11-7 12-5z" fill="#BBBAB8"/>
<path transform="translate(501,600)" d="m0 0h17l2 1v2h-16l-10 3-9 7-6 12-1 4v12l4 12 6 8 8 6 7 3h18l7-3 5-2-3 5-8 3-6 1h-8l-11-3-10-7-7-9-4-9-1-4v-14l3-10 7-9 8-6z" fill="#BEBDBA"/>
<path transform="translate(675,366)" d="m0 0h1v36l-1 41 3 5 12 11 32 30 2 3-4-1-8-8-8-7-7-6v-2l-4-2-7-6v-2l-4-2-4-4v-2l-4-2-2-3 1-44 1-34z" fill="#C7C6C4"/>
<path transform="translate(1170,749)" d="m0 0 11 1 1 4-1 60-1 181h-1v-242l-9-3z" fill="#898783"/>
<path transform="translate(373,415)" d="m0 0h34l156 4 27 1 8 7 6 7-4-2-9-8-2-1-43-2-117-3-56-2z" fill="#878480"/>
<path transform="translate(910,856)" d="m0 0 4 1 58 58 5 3 8 1 16-3 17-1 2 2 1 8h-2l-2-7-18 2-10 2h-10l-8-4-6-5-7-8-48-48z" fill="#C2C0BE"/>
<path transform="translate(987,328)" d="m0 0v3l-8 10-14 9-12 4-1 4-3 39-1 17 7-6 7-8 24-24v3l-22 22-4 6-7 6-1 2h-2l-1 3h-4v-11l4-50 2-5 11-4 6-2 9-7 7-7z" fill="#B5B3B1"/>
<path transform="translate(1063,262)" d="m0 0h1v34l9-2h65l3-1 7-10 11-7 9-3 4 1-2 2-12 4-7 5h-2l-2 4-4 6-3 2h-72l-5 1z" fill="#AFADAA"/>
<path transform="translate(624,341)" d="m0 0 14 7 1 1v22l-1 33-1 7-4-1-5-4v-2l-4-2-7-7-3-2v-2h-2v-2l-4-2-5-4v-2h-2l-14-14v-2l4 2 7 7 8 7 8 8 8 7 11 11 3 1v-58l-14-7z" fill="#E1E1E0"/>
<path transform="translate(1e3 519)" d="m0 0h16l89 4 20 1v1h-39l-26-1-45-3h-14l-8 7-9 9-7 8-13 13-1-4 4-4 5-3 5-6 6-7 11-11 1-2z" fill="#878480"/>
<path transform="translate(688,716)" d="m0 0 4 2 2 6v67l-14 14-5 4-5 6-4 1-1 4-11 9-15 15h-2l1-3 8-7 25-25 8-7 12-12v-65z" fill="#DBDAD9"/>
<path transform="translate(731,717)" d="m0 0 2 4v128h-2l-1-36v-93z" fill="#B9B7B5"/>
<path transform="translate(892,838)" d="m0 0 4 1 5 4 7 8 2 2-1 3-14-15-1 63-1 13v10h13l3-1 7-8 2 1-4 4-3 5-1 1-7 1h-11l-2-1v-13l1-32v-37z" fill="#C7C6C4"/>
<path transform="translate(252,583)" d="m0 0h10l6 3 7 8 2 5v14l-4 8-5 4-9 3h-7l-8-3-5-5-3-5v-17l5-9 7-5zm2 2-7 3-5 4-4 7-1 10 4 10 6 5 6 2 9-1 8-4 4-7 1-2v-13l-5-9-6-4z" fill="#CECECC"/>
<path transform="translate(1348,664)" d="m0 0 5 2 9 7 8 9 7 14 3 11v15l-2 10-7 14-6 8-9 7-14 7-3-1 16-8 10-9 3-4 7-16 2-11v-8l-3-13-3-8-7-10-1-3h-2l-5-5-7-5z" fill="#A4A29F"/>
<path transform="translate(741,227)" d="m0 0 5 3 6 7 8 7 7 5 7 4 1 1-2 49-1 26-1 3-10 3-2-2 9-3 1-2 2-53 1-20-15-9-12-12-4-5z" fill="#A9A7A4"/>
<path transform="translate(995,189)" d="m0 0v3l-6 5-4 2h-120l-1 12-2-2 1-9 1-3h117l7-3z" fill="#E0E0DF"/>
<path transform="translate(787,157)" d="m0 0h14l9 4 8 6 6 8 3 11 1 11-3 10-3 1 2-6v-16l-3-10-7-9-10-6-4-1h-13l-8 4-5 5-3 6-1 8v10l3 11-3-1-3-8-1-10 2-9 3-8 5-5 5-4z" fill="#D5D4D3"/>
<path transform="translate(1e3 518)" d="m0 0h25l137 6 10 1 2 6-2 2-2-5-37-2-7-1-84-4-25-1h-18z" fill="#E4E4E3"/>
<path transform="translate(663,1062)" d="m0 0v3l-8 7h-2l-6 152-2 11-4 6-5 4-6 2-9-1v-1l12-1 6-4 4-6 1-3 3-63 3-80 1-15 5-6 5-3z" fill="#E4E4E3"/>
<path transform="translate(1247,784)" d="m0 0h13l6 3 4 4-1 2-12-6-10 1-6 3-3 6-1 5 1 32 4 72v18h-1l-2-31-4-72-1-6v-15l4-9 7-6z" fill="#E4E4E3"/>
<path transform="translate(1270,793)" d="m0 0 2 1 2 6 2 48 7 132v16h-1l-3-50-6-111-2-32z" fill="#E4E4E3"/>
<path transform="translate(635,844)" d="m0 0 1 3-5 5-10 9-8 8-1 2h-2l-1 3-7 6-5 5-4 3h-18l-18-2-3-2-5-10-1-3h-2l-7-8-6-4-2-4 5 2 12 11 10 15 17 2h17l8-7 13-13 8-7z" fill="#D6D6D4"/>
<path transform="translate(1025,277)" d="m0 0h1v63l-4 5-8 7-11 11-7 8-10 10-2-1 6-8 32-32 1-46 1-16z" fill="#CCCBC9"/>
<path transform="translate(585,726)" d="m0 0 2 1-8 8-5 4-9 18-4 1-41 2-5-2-9-7-5-2-11-1-13 1 2-2 8-2h10l9 3 9 6 5 3 44-2 1-5 6-11 11-11z" fill="#D5D5D3"/>
<path transform="translate(1299,453)" d="m0 0 6 5 8 13 6 16 1 5v24l-3 13-6 14-9 13-8 8-2-1 8-8 10-15 5-17 2-10v-18l-4-16-7-14-4-5-3-5z" fill="#A8A6A3"/>
<path transform="translate(1012,1106)" d="m0 0h8l10 5 5 5 3 10v7l-3 10-6 7-8 4-9 1-10-4-6-5-4-10v-7l3-9 6-8 8-5zm0 2-9 5-6 7-3 7v11l5 8 5 4 8 3 9-1 8-5 5-6 2-6v-11l-3-8-7-6-5-2z" fill="#878480"/>
<path transform="translate(445,1024)" d="m0 0h7l7 3 5 6 4 10v10l-3 6-6 5-8 2-10-2-5-3-5-5-2-6 1-9 5-10 7-6zm2 1-7 3-6 9v4l-3 1-1 6 2 7 7 6 6 2h8l7-3 5-6 1-3v-7l-4-10-5-5-4-1-1-3z" fill="#BDBCBA"/>
<path transform="translate(272,687)" d="m0 0 10 2 8 6 2 7v10l-4 8-8 7-3 1h-13l-7-3-7-6-2-5v-8l5-10 7-6 5-2zm-6 3-9 5-6 8v13l7 8 4 2 11 1 9-3 7-8 2-4v-9l-5-8-6-4-3-1z" fill="#BCBBB8"/>
<path transform="translate(1324,576)" d="m0 0h12l8 4 7 9 3 10v11l-4 10-4 5-8 5-3 1h-11l-8-3-9-8-4-9v-15l4-9 8-7zm-1 2-11 6-6 8-2 5v13l5 10 7 6 7 3h13l8-5 5-5 4-10-1-13-4-9-4-5-7-4z" fill="#898682"/>
<path transform="translate(237,758)" d="m0 0h5l4 3 1 12 4 111 1 21 3 9 6 5 10 2 7-1-1 2-4 1h-8l-8-4-5-6-2-6-2-43-3-85-1-17-7-3z" fill="#E4E4E3"/>
<path transform="translate(377,446)" d="m0 0 5 2 9 7 9 9 10 15v2l37 2 44 2v1h-47l-34-2-7-10-5-7v-2h-2l-6-7v-2l-4-1-8-6z" fill="#C8C7C5"/>
<path transform="translate(1058,850)" d="m0 0 3 1h-2v2l-5 2-8 4-12 11-7 9-4 3-5 1h-27l-5-3-4-4v-2l-4-2-4-4v-2l-3-1-3-5 1-2 21 21 5 1h24l6-3 8-10 7-7 14-8z" fill="#E4E4E3"/>
<path transform="translate(746,566)" d="m0 0 5 1 9 9 2 3 5 3 9 9 1 2 1 18v30l-1 14-2-1-1-60-7-8-12-11-8-7z" fill="#C2C1BF"/>
<path transform="translate(835,343)" d="m0 0 4 2 10 8 11 14 6 10 6 15 3 15v20l-2 11-2-2 1-13v-13l-3-16-4-12-6-11-5-7v-2h-2l-7-8-8-7z" fill="#BEBCBA"/>
<path transform="translate(553,576)" d="m0 0 4 2 8 7 10 14 6 13 3 10v4h19l23 3 4 2-1 1-10-1-24-2h-11l-2-2-4-15-7-14-3-4v-2h-2l-7-8-6-7z" fill="#DCDCDB"/>
<path transform="translate(560,1100)" d="m0 0h14l9 6 5 8 1 3v14l-5 10-7 6-5 2h-12l-8-4-7-8-1-3v-16l4-9 8-7zm4 1-9 4-5 4-4 7-1 4v11l4 8 8 7 8 2 10-2 8-7 3-5 2-5v-11l-4-8-8-7-5-2z" fill="#878480"/>
<path transform="translate(557,1169)" d="m0 0h10l10 5 8 6 4 9v10l-4 11-10 10-10 4h-10l-8-3-7-6-5-10v-13l3-8 9-10zm3 1-10 4-8 7-4 6-2 7v8l3 9 5 6 6 4 8 2 10-1 9-6 7-8 4-11v-7l-3-7-5-5-11-7z" fill="#878480"/>
<path transform="translate(1206,609)" d="m0 0h12l9 3 7 7 2 6v10l-4 10-4 5-10 5h-10l-9-6-4-6-2-8v-12l4-8zm2 2-8 4-4 5-2 5v7l3 11 6 8 4 2 7 1 11-4 7-8 2-7v-11l-4-7-8-5-3-1z" fill="#878480"/>
<path transform="translate(372,607)" d="m0 0h12l10 5 6 5 3 8-1 10-5 13-5 5-6 3h-11l-6-3-5-6-4-11-1-4v-12l3-6 5-5zm5 1-9 3-6 6-2 7 1 8 4 13 4 6 8 4h7l7-3 5-6 5-12v-11l-4-7-9-6-7-2z" fill="#878480"/>
<path transform="translate(688,632)" d="m0 0 4 1 12 12 5 4 7 8 6 5 7 8 22 22v2l4 2 4 4 3 5 4 5-4-2-10-10-7-8-8-7-7-8-42-42z" fill="#BFBEBB"/>
<path transform="translate(781,119)" d="m0 0h24l11 3 12 5 9 6-1 2-5-2-11-6-11-4-5-1h-22l-15 5-13 8-7 7-1 2h-3l2-4 7-7 10-7 11-5z" fill="#E2E2E1"/>
<path transform="translate(404,274)" d="m0 0h8l8 2 10 6 7 7v2h15l13 1-4 2-3 1-16-1-5-1-5-6-2-1v-2l-5-2-9-4h-14l-8 3-8 6-5 6-1 3-4 2 2-6 6-8 10-7z" fill="#DFDFDD"/>
<path transform="translate(602,719)" d="m0 0h18l13 4 9 6 8 8 6 10 4 14v15l-4 14-2-3 2-6 1-7v-12l-2-10-7-13-8-8-6-4-10-4-5-1h-19l-2-2z" fill="#D6D6D4"/>
<path transform="translate(937,800)" d="m0 0 3 1 6 8v2l4 2 9 6 9 3h17l12-5 9-7 9-10h2l-2 5-8 9-9 6-8 4-9 2h-9l-10-2-11-6-10-10-4-6z" fill="#B9B8B6"/>
<path transform="translate(296,568)" d="m0 0 6 2 11 8 14 6 11 3h23l13-4 9-4 2 2-12 6-11 3h-27l-14-4-14-8-11-9z" fill="#BEBDBB"/>
<path transform="translate(892,762)" d="m0 0h1l1 18 3 5 9 10 52 52-4 1-7-8-2-1v-2h-2l-7-8-44-44z" fill="#B9B7B5"/>
<path transform="translate(811,1026)" d="m0 0h1v141l8 2 8 5v1h-5l-4-3v-2l-8-1-2-5 1-137z" fill="#E4E4E3"/>
<path transform="translate(1136,1022)" d="m0 0h11l9 4 6 7 1 4v8l-4 10-7 6-5 2h-14l-8-4-5-6-3-9 1-8 3-6 6-5zm-1 2-9 4-5 5-2 5v8l4 8 7 6 8 2 10-1 8-5 4-6 1-3v-11l-5-8-7-4z" fill="#878480"/>
<path transform="translate(680,227)" d="m0 0 4 1 10 5 11 9 8 10 6 12 4 16v15l-3 14-2-4 2-12v-10l-3-16-6-12-7-9-10-9-8-5-3-1z" fill="#D5D4D3"/>
<path transform="translate(1160,377)" d="m0 0h75l-1 2-16 1h-66l1-2z" fill="#C5C4C2"/>
<path transform="translate(972,715)" d="m0 0h17l14 5 10 9 7 9 2 6-3-1-6-10-1-3-4-2-7-5-12-5h-15l-11 4-10 6-6 5-8 12-1-2 7-11 7-7 14-8z" fill="#BBBAB7"/>
<path transform="translate(588,529)" d="m0 0 7 6 29 29v2l4 2 4 4v2l4 2 4 4 3 5 25 25-1 2-28-28v-2l-4-2-7-8-40-40-4-2z" fill="#B2B0AE"/>
<path transform="translate(525,1107)" d="m0 0h1v72l-2 10-5 6-6 3-9 1-8-3-6-5-2-4 1-3 5 8 12 3 9-2 5-5 3-6 1-14v-60z" fill="#C3C2C0"/>
<path transform="translate(1069,596)" d="m0 0h17l11 4 3 3-12-4h-18l-15 6-8 7-5 10-2 7 1 11 2 9 5 9 6 7-4-2-7-8-4-9-1-9v-12l4-10 7-9 9-6z" fill="#878480"/>
<path transform="translate(999,417)" d="m0 0 1 2-7 8-42 42-7 8-4 2-2 4-5 3v-3z" fill="#C1C0BE"/>
<path transform="translate(789,1201)" d="m0 0h7l9 5 7 6 4 8v10l-4 6-6 4-4 1h-7l-10-3-8-6-5-8-1-9 3-7 6-5zm0 2-9 2-6 5-1 2v11l4 6 8 7 9 3h11l6-4 4-5v-9l-6-9-7-6-7-3z" fill="#878480"/>
<path transform="translate(605,985)" d="m0 0 3 1-15 9-6 5-8 11-4 12-1 13 2 10 4 9 1 4h-3l-4-8-3-12v-11l3-13 6-11 9-10 11-7z" fill="#DBDBD9"/>
<path transform="translate(735,1144)" d="m0 0h2l1 41 1 5 9-12 12-9 10-4 1-2 1-17 2-1v20l-3 3-10 3-5 4-8 6-2 5h-2l-2 5-3 5-3-1-1-35z" fill="#E4E4E3"/>
<path transform="translate(819,255)" d="m0 0h7l-2 2-7 2h-4l-1 38-2 34 2 1-5-1 3-71 2-3z" fill="#AEACA9"/>
<path transform="translate(915,552)" d="m0 0 1 4-14 14-8 7-6 7-1 2h-2v2h-2l-2 4-13 13-8 7-4 6-6 6-5 3-2 1 2-4 35-35 7-8 27-27z" fill="#C2C1BF"/>
<path transform="translate(1022,744)" d="m0 0 2 3 2 9 49 1 2-5 8-6 6-2h9l8 3-3 1-7-2-7 1-9 5-7 8h-48l-4-4-2-9z" fill="#DFDFDD"/>
<path transform="translate(950,989)" d="m0 0h20l14 5 10 8 7 9 4 11 1 4v14l-2 8-2-4 1-6v-10l-2-9-2-5 1-2-4-2-2-5-4-2-9-7-12-4-16-1z" fill="#CECDCC"/>
<path transform="translate(1084,240)" d="m0 0 1 2-5 10v14l5 8 8 4 8 3h11l7-3h3l2-4 6-5-2 5-8 7-8 3h-12l-13-5-7-6-4-11v-7l4-11z" fill="#CFCECD"/>
<path transform="translate(580,1060)" d="m0 0 6 4 10 9v2l16 4 3 2-1 36-2 46h-1v-27l2-54-12-3-10-6-9-8z" fill="#E4E4E3"/>
<path transform="translate(957,1028)" d="m0 0h7l3 4-1 5-5 5-7 1-4-3v-6l4-5z" fill="#878480"/>
<path transform="translate(459,581)" d="m0 0v3l-3 5-5 6-9 19-1 4-1 8v16l3 16 1 5-2 1-4-12-1-6v-22l4-16 8-15 8-10z" fill="#BFBEBC"/>
<path transform="translate(1017,1173)" d="m0 0h9l8 3 6 7 2 5-1 3-5-10-8-5-9-1-9 3-7 6-3 8v9l3 10 4 5 9 4h8l9-4 6-10 2-6 1 4-4 9-5 6-7 3h-11l-8-3-6-7-3-10v-11l3-8 7-7z" fill="#878480"/>
<path transform="translate(1019,792)" d="m0 0h26l30 2 5 2 8 5 5 2v2l-6-1-11-6-15-2-27-1h-13l-3 5-2-3z" fill="#B5B4B1"/>
<path transform="translate(1070,347)" d="m0 0 2 1-22 22-7 6-1 2h110v1h-112v-3l6-7 7-6 2-3 5-3z" fill="#878480"/>
<path transform="translate(985,479)" d="m0 0h22l46 2v1l-8 1h-24l-34-1-10 10-4-1 5-5 3-1 2-4z" fill="#CDCCCB"/>
<path transform="translate(614,915)" d="m0 0h5l-3 3-7 2-17 3h-24l-9-1-2 6-2 5-2-3 5-10 7-1h31l7-2 9-1z" fill="#E4E4E3"/>
<path transform="translate(1149,888)" d="m0 0 2 2 4 15v15l-2 12-5 12-7 9-8 8-11 7-13 5-9 1 4-2 12-4 11-6 7-6h2v-2h2l2-4 7-11 5-14 1-7v-10l-3-14z" fill="#878480"/>
<path transform="translate(1053,481)" d="m0 0 68 3 13 2v1h-18l-71-3v-2z" fill="#D8D8D7"/>
<path transform="translate(1100,227)" d="m0 0h9l11 2 8 6 6 12v15l-3 7-2-3 2-5v-14l-4-8-1-3-5-2v-2l-17-2-9 2-8 5-2 1 2-4 6-5z" fill="#D0CFCD"/>
<path transform="translate(321,480)" d="m0 0 4 1-8 7-4 10-1 5v10l3 12 7 12 10 8 2 2h-4l-6-4-6-6-2-7-3-1-3-7-1-5v-16l4-12z" fill="#BFBEBC"/>
<path transform="translate(891,1189)" d="m0 0h1v50l-1 19-3 7-5 5-6 3h-8l-8-4-5-6-2-13h2l1 9 5 8 6 3h10l6-4 4-6 1-4z" fill="#878480"/>
<path transform="translate(928,688)" d="m0 0 4 1-16 13-10 11-8 14-3 9-2 18h-2v-11l3-16 7-12 9-12 11-9 2-2h3z" fill="#BEBDBB"/>
<path transform="translate(667,645)" d="m0 0 6 2 12 8 15 12v2l4 2 9 10 10 15 2 6-3-1-7-12-8-10v-2l-4-2-7-8-16-12-12-7z" fill="#DCDCDB"/>
<path transform="translate(954,922)" d="m0 0 4 4 2 4 1 11-3 12-6 8-5 4-7 3h-13l-6-2-29-2v-1h24l10 2 4 1h8l10-4 7-8 2-8v-14l-3-6z" fill="#878480"/>
<path transform="translate(1215,668)" d="m0 0 6 1 11 6 10 9 6 9 4 11v16l-3 10-2-4 2-6v-15l-3-9-5-8-7-8-14-8-3-1v-2z" fill="#C4C3C1"/>
<path transform="translate(1070,612)" d="m0 0h11v1l-10 2-6 3-6 8-2 6 1 10 6 10 5 4 3 1h11l5-3 2 1-5 4-3 1h-10l-8-4-4-5-5-8-1-11 4-11 5-5z" fill="#878480"/>
<path transform="translate(440,245)" d="m0 0 1 3-1 4v14l2 9h2l4 5 7 4 4 1h10l9-3 5-3-1 4-9 4-12 1-9-2-8-6-6-8-2-9 1-12 2-5z" fill="#D1D0CE"/>
<path transform="translate(1262,735)" d="m0 0 4 5 4 6 6 7 8 6 6 2 8 5 1 6 2 38v17h-1l-2-31-1-16v-13l-9-3-10-7-8-7-7-10z" fill="#B2B1AE"/>
<path transform="translate(422,1078)" d="m0 0 1 2-3 11v9l3 12 4 6 5 4 5 2h9l8-4 5-6 4-10 1-18h1l1 13-2 10-4 8-7 7-5 2h-13l-6-3-7-8-4-11v-15l3-10z" fill="#878480"/>
<path transform="translate(907,404)" d="m0 0h1v27l-2 29-10 9-20 20v-3l26-26 2-20z" fill="#A4A29F"/>
<path transform="translate(1074,613)" d="m0 0h10l4 2 8 11 2 6v8l-2 2-1-12-3-6-1-3-9-3-5-1-5 2-6 1-3 2-4 8-2 1 2-7 7-8z" fill="#F2D8B4"/>
<path transform="translate(310,751)" d="m0 0 2 1-8 7-10 5-3 1h-7l2 70-2-3-2-53v-14l9-4 8-2z" fill="#CAC9C7"/>
<path transform="translate(692,516)" d="m0 0 6 2 7 6 2 4 5 3 8 8 1 2 5 3 8 7 1 3 5 3 6 6-1 3-31-29-17-16z" fill="#AFAEAB"/>
<path transform="translate(501,337)" d="m0 0 6 4 6 7 5 3 17 16 13 12-1 3-12-1v-1h9l-4-5-8-7-12-11-10-9-9-9z" fill="#C3C2C0"/>
<path transform="translate(737,1241)" d="m0 0h3l6 10v3l4 2 7 7 2 4-4-2-6-5-9-13-3 11-2 4-10 6-8 1-7-2-1-2 5 1h9l8-4 4-6z" fill="#E0E0DF"/>
<path transform="translate(692,842)" d="m0 0 3 1 1 15v8l-2 4-1-24-4 2-36 36-1-3 26-26 8-7 5-5z" fill="#E4E4E3"/>
<path transform="translate(714,382)" d="m0 0 2 3-2 15v13l3 17 4 12 3 5-1 3-3-4-5-11-3-12-1-7v-19z" fill="#B2B1AE"/>
<path transform="translate(644,987)" d="m0 0 6 2 10 8 6 7 6 12 2 7v18l-1 5-2-2v-20l-4-12-7-11-7-6-2-1v-2l-6-2z" fill="#C9C8C6"/>
<path transform="translate(874,542)" d="m0 0 3 1-5 6h-2l-2 4-7 6-7 8-23 23-1-4 4-4h2v-2h2l2-4 8-6 3-3 3-5 4-4h2v-2h2l1-3 4-2 3-5z" fill="#AAA8A5"/>
<path transform="translate(606,436)" d="m0 0 6 2 9 9v2l4 1 5 4v2l4 2 3 4v3l4 1 8 6 3 7-4-2-7-7-6-5-7-8-12-11-10-9z" fill="#B4B3B0"/>
<path transform="translate(1222,329)" d="m0 0 1 3-5 9-9 10-9 6-10 3h-21l-12-4-9-6-1-2 16 8 8 2h14l13-4 10-6 5-4 6-9z" fill="#878480"/>
<path transform="translate(1202,278)" d="m0 0 5 2 9 8 7 11 3 12v9l-2 9h-2l-2 4 2-9v-17l-3-8-5-8v-2h-2l-10-10z" fill="#C0BFBC"/>
<path transform="translate(1038,189)" d="m0 0h17l9 4 7 8v2l-4-2-6-6-7-3h-14l-8 4-6 5-4 8-3 1 2-6 7-9 7-5z" fill="#D3D2D1"/>
<path transform="translate(1027,694)" d="m0 0 5 1 6 4 7 4v2l5 1 14 4 8 1h13l16-3 8-3 3 1-10 4-14 3h-21l-16-4-16-8-8-6z" fill="#878480"/>
<path transform="translate(314,440)" d="m0 0 3 1h-2l-1 3-14 7-2 3h-2l-2 4-5 5-6 8-8 16-1-3 5-12 10-14 7-7 14-9z" fill="#C5C4C2"/>
<path transform="translate(1111,654)" d="m0 0 1 2-2 5-5 5-4 1-4 4-8 3-7 1h-9l-11-3-2-1v-2l11 2h14l8-2 9-5 3-3h2l2-4z" fill="#C0BFBD"/>
<path transform="translate(525,605)" d="m0 0 5 2 8 7 5 8v2h2l2 5v14l-3 12-3 5-5 4-2-1 5-6 3-9 2-7v-8l-4-12-7-9-8-6z" fill="#A8A6A3"/>
<path transform="translate(273,487)" d="m0 0 2 3-1 9v19l3 14 4 10v6l-3-4-5-13-2-9v-27z" fill="#C1C0BD"/>
<path transform="translate(874,688)" d="m0 0 1 2-2 5-4 4-4 9-6 16-2 6-2 14h-4v-2h-2l-6-7-2-1-1-5 12 12h1l3-17 5-15 6-11z" fill="#DDDDDB"/>
<path transform="translate(965,501)" d="m0 0v3l-6 6-3 5-26 26-8 7-4 4-2-1 28-28 3-4h2l2-4z" fill="#AFADAB"/>
<path transform="translate(957,290)" d="m0 0h1l1 12-3 7-5 5-9 4h-8l-10-2-8-5 1-3 12 6h14l8-4 5-8z" fill="#BEBCBA"/>
<path transform="translate(862,211)" d="m0 0 1 4-5 12-7 10-7 8-10 7-6 3h-2l1-3 10-6 11-10h2l1-4 9-17z" fill="#C7C6C4"/>
<path transform="translate(1039,378)" d="m0 0 113 1v1l-91 1h-22z" fill="#E4E4E3"/>
<path transform="translate(689,792)" d="m0 0 1 3-10 10-5 4-5 6-4 1-1 4-11 9-15 15h-2l1-3 8-7 25-25 8-7z" fill="#BEBCBA"/>
<path transform="translate(545,488)" d="m0 0 30 1 16 1 12 3-2 2-16-2-38-2-3-2z" fill="#B7B6B3"/>
<path transform="translate(1247,784)" d="m0 0h13l6 3 4 4-1 2-12-6-10 1-6 3-3 6-2 16-2 1v-14l4-9 7-6z" fill="#B4B3B0"/>
<path transform="translate(603,253)" d="m0 0h1v5l-5 11-2 7-1 16 2 17-1 3-3-10-1-8v-12l2-12 5-12z" fill="#BEBDBB"/>
<path transform="translate(334,474)" d="m0 0h13l12 4 11 9 4 6-1 3-4-4-7-8-10-5-8-2h-8l-11 3 1-3z" fill="#B7B6B4"/>
<path transform="translate(310,393)" d="m0 0h1v5h2l4 8 2 1v2l8 2 35 2v2h-21l-16-1-8-4-6-7-1-3z" fill="#D2D1D0"/>
<path transform="translate(326,374)" d="m0 0 28 1 23 1v1h-49l-9 4-4 4-2 5h-2l-1 2 1-7 7-8z" fill="#E4E4E3"/>
<path transform="translate(1348,664)" d="m0 0 5 2 9 7 8 9 7 14 2 6v5h-2l-4-13-8-13-2-4h-2l-5-5-7-5z" fill="#C9C8C6"/>
<path transform="translate(1123,571)" d="m0 0 4 2 8 7 9 10 6 10 5 13 1 9-2-4v-4h-2l-7-16-6-9-9-10-1-3-4-1z" fill="#B5B4B1"/>
<path transform="translate(651,223)" d="m0 0h14l12 2 3 2-6 1-13-2-15 1-18 6v-3l8-4z" fill="#C9C8C7"/>
<path transform="translate(1078,884)" d="m0 0h10v2l5-1 2 1v2l-13-1-12 3-8 6-3 5-1 10v4h-2l-1-3v-8l3-7 7-8 5-3z" fill="#BAB8B6"/>
<path transform="translate(401,672)" d="m0 0 5 2 7 6 7 10 4 11 1 10-2 11-2 5-2-3 2-7v-16l-4-10-1-4h-2l-2-5-3-1v-2l-4-2-4-4z" fill="#D8D8D6"/>
<path transform="translate(831,776)" d="m0 0 7 6 6 4 12 12-1 57h-1l-1-55-4-5-8-7-10-10z" fill="#9E9C99"/>
<path transform="translate(475,701)" d="m0 0 6 2 14 4 13 2h9l14-1 7-1-3 2-8 2-9 1h-12l-17-3-14-7z" fill="#BCBBB9"/>
<path transform="translate(539,791)" d="m0 0h23l5 1 2 6-3-3h-50l1-3z" fill="#B9B8B5"/>
<path transform="translate(923,646)" d="m0 0 2 1-2 3-11 6-12 9-12 12-3 1-2 4-8 6 2-4 14-15 14-11 13-9z" fill="#B8B7B4"/>
<path transform="translate(896,340)" d="m0 0 12 7 6 3v9l-1 10-1 1-3 32h-1v-11l3-39-16-9-1-2z" fill="#B3B2AF"/>
<path transform="translate(624,341)" d="m0 0 14 7 1 1v22l-1 16-2 1v-38l-14-7z" fill="#C9C8C6"/>
<path transform="translate(892,838)" d="m0 0 4 1 5 4 7 8 2 2-1 3-14-15-2 52-2-3v-43z" fill="#DFDFDE"/>
<path transform="translate(305,976)" d="m0 0h1v30l3 7 4 5v2l11 2 9-3 5-3-1 3-10 5h-9l-8-5-5-6-1-2v-34z" fill="#B7B5B3"/>
<path transform="translate(322,787)" d="m0 0h11l8 4 5 6 2 8-3-1-3-7v-3l-4-1-4-2h-12l-11 7 2-5 6-5z" fill="#BBBAB7"/>
<path transform="translate(1211,576)" d="m0 0 8 1 14 3h29l-3 2-14 2h-10l-15-3-9-4z" fill="#B5B4B1"/>
<path transform="translate(635,299)" d="m0 0 4 5 8 6 7 2h9l9-4 5-5 4-2-2 5-11 8-5 1h-12l-7-3-8-7-2-4z" fill="#DEDEDD"/>
<path transform="translate(1128,523)" d="m0 0h13l23 1 10 1 2 6-2 2-2-5-37-2-7-1z" fill="#C0BFBD"/>
<path transform="translate(1014,915)" d="m0 0 5 1 2 5v4h-2l-2-7-18 2-10 2h-10l-3-1 1-3 8 1 16-3z" fill="#BFBEBC"/>
<path transform="translate(990,266)" d="m0 0 3 4 4 13 1 15-2 14-2 6-1-3 1-9v-21l-5-17z" fill="#E4E4E3"/>
<path transform="translate(585,726)" d="m0 0 2 1-8 8-5 4-9 18-4 1h-22v-1l5-1 20-1 1-5 6-11 11-11z" fill="#E4E4E3"/>
<path transform="translate(492,846)" d="m0 0h12l15 3 12 5-1 2-4-1-11-4-11-2-18 1-6 1-2-2z" fill="#DEDDDC"/>
<path transform="translate(575,222)" d="m0 0 1 2-5 9-8 7-2 1v12l-1 23h-1l-2-9 1-20v-6l11-10z" fill="#D8D8D7"/>
<path transform="translate(1119,1099)" d="m0 0h1l2 13 5 8 8 6 4 1h7l8-3 8-9 2-2-1 4-6 8-8 4h-14l-8-4-5-7-3-9z" fill="#878480"/>
<path transform="translate(771,715)" d="m0 0 5 3 1 2v56l-2 3v-60l-4-2z" fill="#E4E4E3"/>
<path transform="translate(1068,556)" d="m0 0h17l15 3 3 2-4 1-8-2-17-1-19 2h-4l3-2z" fill="#BBB9B7"/>
<path transform="translate(252,583)" d="m0 0h10l6 3 7 8 2 5v14l-1 3h-3l1-4v-13l-4-7v-2l-4-2-6-2-10 1-5 2 4-4h3z" fill="#D9D8D7"/>
<path transform="translate(744,341)" d="m0 0 2 1-15 15-5 6-8 17-3 2 1-6 8-15 9-11z" fill="#C8C7C5"/>
<path transform="translate(501,600)" d="m0 0h17l2 1v2h-16l-10 3-9 7-4 7-2-3 6-8 8-6z" fill="#B2B1AE"/>
<path transform="translate(663,1062)" d="m0 0v3l-8 7h-2l-3 68h-1v-25l2-42 5-6 5-3z" fill="#E4E4E3"/>
<path transform="translate(1060,920)" d="m0 0 5 5 5 4 8 4 6 1h10l10-3-2 4-6 2h-13l-8-2-6-3-9-8z" fill="#BDBCBA"/>
<path transform="translate(1058,850)" d="m0 0 3 1h-2v2l-5 2-8 4-12 11-7 9-4 3h-4v-2l6-3 8-10 7-7 14-8z" fill="#D2D2D0"/>
<path transform="translate(1075,594)" d="m0 0 12 1 10 3 9 7 8 9-1 3-4-5-9-8-3-3-11-4h-17l-11 4-4 1 3-3 11-4z" fill="#E4E4E3"/>
<path transform="translate(680,227)" d="m0 0 4 1 10 5 11 9 8 10 2 5-5-3-6-8-10-9-8-5-3-1z" fill="#BAB9B7"/>
<path transform="translate(522,248)" d="m0 0h1l-2 40-1 7-2 1 1-33 1-14z" fill="#C1C0BD"/>
<path transform="translate(1050,964)" d="m0 0h5l5 3 1 6-1 69h-1l-1-62v-10l-8-5z" fill="#E4E4E3"/>
<path transform="translate(531,855)" d="m0 0 5 2 12 11 10 15 9 1 1 2h-11l-3-2-5-10-1-3h-2l-7-8-6-4z" fill="#DEDEDD"/>
<path transform="translate(377,446)" d="m0 0 5 2 9 7 9 9 10 15-1 2-4-4-7-10v-2h-2l-6-7v-2l-4-1-8-6z" fill="#C5C4C2"/>
<path transform="translate(998,521)" d="m0 0h2l-1 4-12 12-7 8-13 13-1-4 4-4 5-3 5-6 6-7 11-11z" fill="#CBCBC9"/>
<path transform="translate(811,162)" d="m0 0 7 5 6 8 3 11 1 11-3 10-3 1 2-6v-16l-3-10-7-9-3-2z" fill="#D9D9D8"/>
<path transform="translate(477,914)" d="m0 0 5 5 8 5h15l10-6 4-4-1 4-2 4-8 4-3 1h-15l-8-4-5-5-1-2z" fill="#BAB9B6"/>
<path transform="translate(1100,890)" d="m0 0 5 1 4 5 5 5 3 10-1 9-3 6-6 5-3-1 6-5 3-6v-12l-4-8-9-8z" fill="#BDBCBA"/>
<path transform="translate(773,204)" d="m0 0 5 5 8 7 8 3h13l6-3 2 1-2 3-5 2h-15l-10-4-5-6-4-2z" fill="#B6B5B2"/>
<path transform="translate(1069,203)" d="m0 0h3l1 3v11l-7 16-5 7-7 4 2-4 4-2v-2h2l2-5 5-12 1-11z" fill="#DDDDDB"/>
<path transform="translate(781,119)" d="m0 0m-4 1 4 1-2 2-14 5-11 7-7 7-1 2h-3l2-4 7-7 10-7 11-5z" fill="#DDDCDB"/>
<path transform="translate(1219,486)" d="m0 0h3l-7 14-2 15 1 10-3-1-1-3v-14l2-9z" fill="#B9B8B5"/>
<path transform="translate(649,680)" d="m0 0 7 1 11 8 10 9 8 9-1 4-8-10-11-10-11-7z" fill="#BBBAB8"/>
<path transform="translate(586,664)" d="m0 0h16l20 3 6 2-4 1-15-3h-29l-6 12-2-3 6-10 1-1z" fill="#E4E4E3"/>
<path transform="translate(891,632)" d="m0 0 3 1-32 32-2-2 30-30z" fill="#C3C2C0"/>
<path transform="translate(1299,453)" d="m0 0 6 5 8 13 6 16v4l-3-1-4-14-7-12-6-9z" fill="#C0BFBD"/>
<path transform="translate(773,1145)" d="m0 0h1v20l-3 3-10 3-5 4-9 7v-3l10-8 10-5 3-1 1-2 1-17z" fill="#DCDCDA"/>
<path transform="translate(1108,748)" d="m0 0 5 2 7 7 3 8v17l-2 8-2-4 1-6v-13l-4-10-5-6z" fill="#B8B6B4"/>
<path transform="translate(1073,846)" d="m0 0h20l16 4-1 2-13-2-4-1h-15l-10 1-1-2z" fill="#B7B5B3"/>
<path transform="translate(419,520)" d="m0 0 40 2v1h-39l-1 1-3 17-2 3-1-4 4-19z" fill="#DBDAD9"/>
<path transform="translate(1270,480)" d="m0 0 8 6 3 7 1 4v16l-3 8-3 1 3-12v-11l-3-10-6-7z" fill="#BAB9B7"/>
<path transform="translate(603,494)" d="m0 0 5 1 12 11 6 6v2l4 2 4 4v2l-4-1v-2h-2l-5-5-6-7-6-5v-2l-5-2-3-3z" fill="#D0CFCD"/>
<path transform="translate(1246,433)" d="m0 0h9l8 1-2 2h-23l-8 1v2l-8 3h-6l4-3 12-4z" fill="#A09E9B"/>
<path transform="translate(1025,277)" d="m0 0h1v28l-1 14-2 1v-26l1-16z" fill="#D6D5D4"/>
<path transform="translate(506,618)" d="m0 0h5l-3 2-8 4-5 6-2 4-1 7 2 9 5 9-3-1-5-9-1-5v-8l3-9 8-7z" fill="#878480"/>
<path transform="translate(963,558)" d="m0 0 3 1-30 30-2-2z" fill="#C3C2C0"/>
<path transform="translate(1220,535)" d="m0 0 12 6 3 1h14l10-4h3l-4 2v2l-8 3h-16l-10-4z" fill="#CECECC"/>
<path transform="translate(1129,269)" d="m0 0 1 2-7 8-7 4-4 1h-12l-9-3v-3l10 3h11l7-3h3l2-4z" fill="#D6D6D4"/>
<path transform="translate(634,934)" d="m0 0h1l1 14 3 6v2l4 2 4 3v2l10 1v1h-8l-8-4-6-7-2-4v-13z" fill="#A2A09D"/>
<path transform="translate(1176,312)" d="m0 0h8l2 2-1 4-5 3-6-1-1-4 1-3z" fill="#878480"/>
<path transform="translate(668,263)" d="m0 0 6 2 8 9 3 8v12l-3 7h-2l2-8v-11l-3-7-5-6-6-4z" fill="#E4E4E3"/>
<path transform="translate(584,626)" d="m0 0h19l23 3 4 2-1 1-10-1-22-2v-2h-13z" fill="#C7C6C4"/>
<path transform="translate(822,489)" d="m0 0 4 2-9 3-1 17-1 36h-1v-54z" fill="#DEDEDD"/>
<path transform="translate(438,329)" d="m0 0 19 1v2l-18 1-11 12-4 1 2-4 7-6z" fill="#BAB9B7"/>
<path transform="translate(404,274)" d="m0 0m-5 1h5l-2 3-8 3-8 6-5 6-1 3-4 2 2-6 6-8 10-7z" fill="#C6C5C3"/>
<path transform="translate(650,884)" d="m0 0 2 1-5 5h-2l-2 4-8 7-14 14-2-1 11-12 13-13 5-3z" fill="#B5B4B1"/>
<path transform="translate(854,671)" d="m0 0v3l-28 28-2-2 27-27z" fill="#C1C0BD"/>
<path transform="translate(746,566)" d="m0 0 5 1 9 9 2 3 5 3 9 9-1 3-5-5-15-14-8-7z" fill="#BCBBB8"/>
<path transform="translate(915,552)" d="m0 0 1 4-14 14-8 7-6 7-1 2h-2v2l-2-1 2-4 29-29z" fill="#C1C0BD"/>
<path transform="translate(726,455)" d="m0 0 4 2v2h2l9 11 9 7 2 1v2l3 1v2l-5-2-11-9-10-11-3-4z" fill="#BCBBB9"/>
<path transform="translate(215,685)" d="m0 0 1 3-3 9v18l2 13-2 2-2-6-1-7v-17l4-13z" fill="#ABA9A6"/>
<path transform="translate(439,624)" d="m0 0 1 2v16l3 16 1 5-2 1-4-12-1-6v-18z" fill="#DBDBDA"/>
<path transform="translate(1e3 604)" d="m0 0h2l-2 9-3 9-2 2-22 3-3-2 25-4 3-12z" fill="#D2D1D0"/>
<path transform="translate(737,504)" d="m0 0 4 2 8 8 8 7 10 10-3 1-9-9-8-7-7-7z" fill="#B4B3B0"/>
<path transform="translate(741,227)" d="m0 0 5 3 6 7 8 7 7 5 5 3v2l-5-2-11-7-11-11-4-5z" fill="#BCBBB9"/>
<path transform="translate(813,758)" d="m0 0 5 1 7 8 15 15-1 2-7-7-8-7-8-9h-1l-1 7-2-1v-8z" fill="#DDDDDC"/>
<path transform="translate(1263,687)" d="m0 0 1 2-4 13-1 12 2 12 2 8-2 1-4-15v-18l4-13z" fill="#DBDBDA"/>
<path transform="translate(772,168)" d="m0 0 1 3-2 4-1 8v10l3 11-3-1-3-8-1-10 2-9 3-7z" fill="#C5C4C2"/>
<path transform="translate(1270,793)" d="m0 0 2 1 2 6 1 29v19h-1l-3-45z" fill="#E4E4E3"/>
<path transform="translate(572,679)" d="m0 0v3l-9 10-8 7-8 5h-2l2-4 9-6h2v-2l7-6 5-6z" fill="#B9B7B5"/>
<path transform="translate(1305,615)" d="m0 0h2l6 8 10 5h13l8-5 3-1-1 3-8 5-3 1h-11l-8-3-9-8z" fill="#878480"/>
<path transform="translate(1242,472)" d="m0 0h16l6 2 1 3-11-2-14 1-9 3 1-2h2v-2z" fill="#AEACA9"/>
<path transform="translate(1190,665)" d="m0 0h13l12 2-2 2-19-1-16 2-1-2z" fill="#C1C0BE"/>
<path transform="translate(562,920)" d="m0 0 11 1 28-1-3 2-6 1h-24l-9-1-2 6-2 5-2-3 4-9z" fill="#95938F"/>
<path transform="translate(1244,690)" d="m0 0 3 1 5 13v16l-3 10-2-4 2-6v-15l-3-9-2-3z" fill="#DBDAD9"/>
<path transform="translate(760,486)" d="m0 0 10 2 8 3 1 10-1 2-1 24h-1v-35l-9-2-7-3z" fill="#B2B1AE"/>
<path transform="translate(713,318)" d="m0 0h2l-2 5-10 13-13 9v-3l6-5h2v-2l8-7z" fill="#C5C4C2"/>
<path transform="translate(806,396)" d="m0 0 5 4 3 7v9l-4 8-5 5-5 2v-3l8-5 3-6 1-7-2-6-3 1v-6z" fill="#F6DDBB"/>
<path transform="translate(477,798)" d="m0 0 7 1 9 3h8l6-2 4 1-8 4h-13l-12-5z" fill="#B4B3B0"/>
<path transform="translate(372,607)" d="m0 0h12l10 5 6 5 3 8-1 10-2 1v-13l-4-7-8-5-7-2-11 1z" fill="#8D8B87"/>
<path transform="translate(777,503)" d="m0 0h2l-1 38-2 1-7-5-3-3v-2l4 2 4 3v2h2z" fill="#E4E4E3"/>
<path transform="translate(587,365)" d="m0 0 4 2 7 7 8 7 9 9-3 1v-2l-4-2-5-4v-2h-2l-14-14z" fill="#BDBCBA"/>
<path transform="translate(1036,245)" d="m0 0h2l-1 3-5 5-4 6-1 3-1 15-2 1v-17l4-9z" fill="#B2B1AE"/>
<path transform="translate(999,1010)" d="m0 0 2 1 4 11 1 4v14l-2 8-2-4 1-6v-10l-2-9-2-5z" fill="#B9B8B5"/>
<path transform="translate(290,712)" d="m0 0 1 3-4 6-7 6-3 1h-13l-7-3-6-7 1-2 6 7 4 2 11 1 9-3 7-9z" fill="#878480"/>
<path transform="translate(828,1175)" d="m0 0 4 2 6 5 8 11 5 10-1 3-8-14-9-10-5-6z" fill="#CDCCCB"/>
<path transform="translate(445,1024)" d="m0 0h7v1l-11 3-6 9-1 4-2 1-1 6 2 7 2 4h-2l-3-5-1-9 4-11 7-8z" fill="#9E9C99"/>
<path transform="translate(655,918)" d="m0 0 11 2 8 4 9 1-1 2h-9l-11-5h-13l-1-2z" fill="#C6C5C3"/>
<path transform="translate(871,262)" d="m0 0 1 4-3 9-2 18h2l1 14h2l-1 4-2-3-3-13v-16l4-15z" fill="#9D9A97"/>
<path transform="translate(995,661)" d="m0 0h9l1 4-2-2-11 1-17 4-13 5-3-1 4-1v-2l7-3z" fill="#979591"/>
<path transform="translate(867,449)" d="m0 0 1 3-7 12-8 10-7 6-2-1 9-10 9-12h2l2-6z" fill="#B3B1AF"/>
<path transform="translate(620,982)" d="m0 0 14 1 10 3-1 2-9-2-12-1-13 1-1-2z" fill="#DCDCDB"/>
<path transform="translate(1124,485)" d="m0 0h23l18 1v1l-8 1h-23v-2h-10z" fill="#B7B5B3"/>
<path transform="translate(697,467)" d="m0 0 4 2 10 10 8 7 5 6-4-1-8-8-8-7-7-6z" fill="#CAC9C7"/>
<path transform="translate(674,443)" d="m0 0 4 5 12 11 8 7-1 2-4-2-7-6v-2l-4-2-4-4v-2l-4-2-1-2z" fill="#BCBAB8"/>
<path transform="translate(1185,554)" d="m0 0 6 4 8 8v2l4 1 8 5v2l-6-2-13-10-7-8z" fill="#B9B7B5"/>
<path transform="translate(1070,347)" d="m0 0 2 1-22 22-8 7h-3l7-8 7-6 2-3 5-3z" fill="#B5B4B1"/>
<path transform="translate(966,717)" d="m0 0 3 1-8 5-11 7-8 10-3 5-1-2 7-11 7-7z" fill="#BCBBB8"/>
<path transform="translate(743,144)" d="m0 0v3l-6 10-6 1h-8l-6-1 1-2h18l2-5z" fill="#E2E2E1"/>
<path transform="translate(938,993)" d="m0 0h3l-1 3-10 6-7 6-1 3-3 3-2 5-3 1 2-6 7-9 7-7z" fill="#BBBAB8"/>
<path transform="translate(755,646)" d="m0 0 4 1 15 15 2-7h1v11l-4-1-2-4-4-2-10-10v-2z" fill="#E4E4E3"/>
<path transform="translate(1146,719)" d="m0 0 2 3 6 12 12 10 4 3v2l-5-2-10-8-7-11-2-5z" fill="#A8A6A3"/>
<path transform="translate(1036,567)" d="m0 0 2 1-11 9-9 9-1 2h-2l-1 4-4 2 2-5 11-12 11-9z" fill="#BFBDBB"/>
<path transform="translate(934,826)" d="m0 0 4 1 20 20-4 1-7-8-2-1v-2h-2l-7-8z" fill="#CBCAC8"/>
<path transform="translate(475,749)" d="m0 0 2 1-7 8-4 8-2 11-2 1v-10l3-8 6-8z" fill="#BDBCB9"/>
<path transform="translate(835,343)" d="m0 0 4 2 10 8 9 11v2l-4-2v-2h-2l-7-8-8-7z" fill="#BBBAB8"/>
<path transform="translate(571,1028)" d="m0 0h1v8h2l2 10 4 9 1 4h-3l-4-8-3-12z" fill="#BEBDBA"/>
<path transform="translate(1244,981)" d="m0 0h2l2 35 4 9 3 3-1 2-5-5-3-8-2-31-1-4z" fill="#E4E4E3"/>
<path transform="translate(634,811)" d="m0 0 3 2-12 6-10 2h-12v-1l9-1 1-1 10-2 10-4z" fill="#B2B0AE"/>
<path transform="translate(214,730)" d="m0 0 3 4 4 7 5 4 5 6 5 4 1 3-5-2-12-12-6-11z" fill="#ACABA8"/>
<path transform="translate(1311,656)" d="m0 0h10l15 3 9 2 3 3-7-1-9-3-6-1h-24l2-2z" fill="#E4E4E3"/>
<path transform="translate(874,542)" d="m0 0 3 1-5 6h-2l-2 4-7 6-4 5-5 2 2-4 4-4h2v-2h2l1-3 4-2 3-5z" fill="#C3C2C0"/>
<path transform="translate(1091,744)" d="m0 0h9l8 3-3 1-7-2-7 1-9 5-5 5h-2l2-5 8-6z" fill="#A8A6A3"/>
<path transform="translate(531,665)" d="m0 0 2 1-3 4-8 3-6 1h-8l-5-2v-1l18-1 7-3z" fill="#C0BEBC"/>
<path transform="translate(376,667)" d="m0 0h11l9 2 5 2v1l-9-1-5-1h-10l-10 2-1-2z" fill="#D6D6D4"/>
<path transform="translate(722,542)" d="m0 0 4 2 8 7 1 3 5 3 6 6-1 3-16-15-7-8z" fill="#B1B0AD"/>
<path transform="translate(288,459)" d="m0 0 2 1-2 4-5 7-8 16-1-3 5-12z" fill="#CAC9C7"/>
<path transform="translate(377,298)" d="m0 0 1 3-2 11 1 13-2 1-2-8v-10l2-9z" fill="#CECECC"/>
<path transform="translate(1168,273)" d="m0 0 4 1-2 2-12 4-7 5h-2l-2 4h-2l2-5 10-7z" fill="#D4D4D2"/>
<path transform="translate(538,182)" d="m0 0 13 2 3 2-4 1-3-1h-13l-8 3-4 2 5-6 5-2z" fill="#E1E1E0"/>
<path transform="translate(986,161)" d="m0 0 5 2 6 7 2 5v9l-2 5-2-3 1-9-3-8-6-5z" fill="#DBDBD9"/>
<path transform="translate(673,860)" d="m0 0h2l-2 4-20 20-1-3 14-14z" fill="#CBCAC9"/>
<path transform="translate(1015,800)" d="m0 0h2l-2 5-8 9-9 6h-2l1-3 9-7z" fill="#BAB8B6"/>
<path transform="translate(382,579)" d="m0 0 3 2-12 6-11 3h-7l4-2 15-5z" fill="#B6B4B2"/>
<path transform="translate(1202,278)" d="m0 0 5 2 9 8 7 11-1 3v-2l-3-1-5-8v-2h-2l-10-10z" fill="#C2C1BF"/>
<path transform="translate(580,1060)" d="m0 0 6 4 10 9v2l6 2 5 2-4 1-11-6-10-9z" fill="#AAA8A5"/>
<path transform="translate(954,922)" d="m0 0 4 4 2 4 1 11-2 9-3-1 1-3v-14l-3-6z" fill="#C5C4C2"/>
<path transform="translate(257,692)" d="m0 0 3 2-5 4-3 5v17l-3-3-1-3v-8l5-10z" fill="#C8C7C6"/>
<path transform="translate(928,688)" d="m0 0 4 1-16 13-8 7-2-1 4-5 11-9 2-2h3z" fill="#BFBDBB"/>
<path transform="translate(1088,616)" d="m0 0 4 2 6 7 2 7-1 10-5 8-1-2 4-8v-8l-3-8z" fill="#878480"/>
<path transform="translate(932,590)" d="m0 0h2l-2 4h-2l-2 4-16 16-2-2z" fill="#C8C7C5"/>
<path transform="translate(458,332)" d="m0 0h31l11 1 2 1-1 3-2-1-41-3z" fill="#A6A4A1"/>
<path transform="translate(328,688)" d="m0 0 2 3 2 18-2 14-2-2z" fill="#C2C1BF"/>
<path transform="translate(898,518)" d="m0 0 3 1-12 12-7 8-4 2 1-4 3-3h2v-2l5-5z" fill="#C5C4C2"/>
<path transform="translate(378,331)" d="m0 0 4 2 4 5 2 4 5 3 13 3v2h-7l-12-6-7-8z" fill="#ADACA9"/>
<path transform="translate(971,243)" d="m0 0 4 2 7 7 8 12v2l-3-1-8-11-5-5z" fill="#BBBAB8"/>
<path transform="translate(689,792)" d="m0 0 1 3-10 10-5 4-5 6-4 1 2-4 13-12z" fill="#C2C1BF"/>
<path transform="translate(306,660)" d="m0 0 4 2 5 4 8 10 4 8v2l-3-1v-5l-3-1-6-8v-2h-2l-7-8z" fill="#C2C1BF"/>
<path transform="translate(373,496)" d="m0 0 4 2 3 9 1 7v8l-2 5h-1v-13l-3-13z" fill="#C2C1BF"/>
<path transform="translate(862,211)" d="m0 0 1 4-5 12-7 10-2 1 2-6 9-17z" fill="#AFAEAB"/>
<path transform="translate(492,885)" d="m0 0h14l2 1v2h-15l-9 4-4 2 4-6 3-2z" fill="#B9B7B5"/>
<path transform="translate(1123,858)" d="m0 0 5 2 7 6 9 11v2l-4-2-7-8-9-8z" fill="#BDBCB9"/>
<path transform="translate(894,236)" d="m0 0 2 1-4 2-2 4-7 5-1 3-2 1-1 3h-2l-1 5-4 2 2-5 8-11 9-8z" fill="#B2B1AE"/>
<path transform="translate(913,1021)" d="m0 0h2l-2 13v18l-2-3-1-7v-10l2-9z" fill="#BFBEBC"/>
<path transform="translate(937,800)" d="m0 0 3 1 6 8v2l4 2 10 7v2l-6-2-10-9-7-9z" fill="#CACAC8"/>
<path transform="translate(266,649)" d="m0 0h10l9 1-3 2h-22l-8 1 2-2z" fill="#B5B4B1"/>
<path transform="translate(462,485)" d="m0 0h30l10 2v1h-21l-19-1z" fill="#E4E4E3"/>
<path transform="translate(925,265)" d="m0 0 11 1 5 2 1 3-8-2h-13l-5 1 1-3z" fill="#BCBBB9"/>
<path transform="translate(602,1077)" d="m0 0 10 2 3 2v11l-1 19h-1v-29l-6-1v-2l-5-1z" fill="#DBDAD9"/>
<path transform="translate(451,679)" d="m0 0 8 6 4 6 2 2 5 2 5 5-2 1-11-8-7-7-4-5z" fill="#A6A4A1"/>
<path transform="translate(985,479)" d="m0 0h20v1l-18 1-6 7-4 4-4-1 5-5 3-1 2-4z" fill="#B1AFAC"/>
<path transform="translate(772,252)" d="m0 0 3 2-1 29-1 16h-1z" fill="#E2E2E1"/>
<path transform="translate(968,858)" d="m0 0 7 6 5 6 8 7 2 2 4 2h-5l-6-6-5-3-4-4v-2l-3-1-3-5z" fill="#ACAAA7"/>
<path transform="translate(571,801)" d="m0 0 9 6 4 5 11 5 8 2v1l-10-1-11-6-10-9z" fill="#878480"/>
<path transform="translate(1e3 722)" d="m0 0 4 1 9 9 6 10v2l-3-1-6-10-1-3-4-2-5-4z" fill="#C2C1BF"/>
<path transform="translate(500,257)" d="m0 0 1 4-4 8-6 7-6 5h-2l2-4 3-1 1-3 3-3h2l2-5z" fill="#DEDEDC"/>
<path transform="translate(237,758)" d="m0 0h5l4 3 1 12v26h-1l-2-37-7-3z" fill="#E4E4E3"/>
<path transform="translate(689,342)" d="m0 0m-1 1v3l-9 4h-2v14l-2 2v-17l8-4z" fill="#E4E4E3"/>
<path transform="translate(1128,240)" d="m0 0h3l3 7v15l-3 7-2-3 2-5v-14z" fill="#D3D2D1"/>
<path transform="translate(924,914)" d="m0 0h13l9 2-1 2-8-1h-11l-8 1 3-3z" fill="#B5B4B1"/>
<path transform="translate(1174,272)" d="m0 0h11l13 3 4 3-4 1-9-3-8-1v-2h-7z" fill="#C5C4C2"/>
<path transform="translate(819,255)" d="m0 0h7l-2 2-7 2h-4l-2 21h-1v-20l2-3z" fill="#E4E4E3"/>
<path transform="translate(440,245)" d="m0 0 1 3-1 4v14l1 6-4-4-1-10 2-11z" fill="#DCDCDA"/>
<path transform="translate(913,1052)" d="m0 0 2 4 3 1 6 9 6 7h-3l-6-5-7-11z" fill="#A8A6A3"/>
<path transform="translate(314,525)" d="m0 0 3 4 7 10 8 6 2 2h-4l-6-4-6-6-3-7z" fill="#AFAEAB"/>
<path transform="translate(492,231)" d="m0 0 3 1 5 9 2 7v9h-2l-3-15-3-6v-2h-2z" fill="#E4E4E3"/>
<path transform="translate(874,688)" d="m0 0 1 2-2 5-4 4-4 9-3 7-3 1 3-9 8-14z" fill="#CCCBC9"/>
<path transform="translate(480,654)" d="m0 0h3l4 6 7 6 9 4v2l-6-1-10-7-7-9z" fill="#E0E0DF"/>
<path transform="translate(737,626)" d="m0 0 4 2 5 6 5 5 6 7-5-2v-2h-2v-2l-3-1v-2h-2l-4-4v-2l-3-1z" fill="#CBCBC9"/>
<path transform="translate(1026,480)" d="m0 0 27 1v1l-8 1h-24v-2z" fill="#CAC9C7"/>
<path transform="translate(554,331)" d="m0 0 4 5 13 13 4 3v2h-3v-2l-4-2-8-8-6-7z" fill="#B0AFAC"/>
<path transform="translate(875,319)" d="m0 0 4 2 3 5v3l4 2 5 5 3 5-4-2-9-9-6-9z" fill="#B8B7B4"/>
<path transform="translate(854,1234)" d="m0 0h1v12l-2-3-6 12-3 3-1-3 5-8 3-6z" fill="#B1AFAD"/>
<path transform="translate(462,857)" d="m0 0m-1 1m-2 1h2v2l-5 5-9 10-3 1 2-5 9-10z" fill="#BCBBB9"/>
<path transform="translate(667,645)" d="m0 0 6 2 12 8 6 5-3 1-8-6-12-7z" fill="#CECECC"/>
<path transform="translate(1231,643)" d="m0 0v3l-5 5-8 4h-10l-5-3 2-1 9 2 11-4z" fill="#888581"/>
<path transform="translate(357,478)" d="m0 0 5 2 8 7 4 6-1 3-4-4-7-8-7-4z" fill="#BDBCBA"/>
<path transform="translate(1153,687)" d="m0 0v3l-6 12-1 17h-1l-1-11 2-10 5-10z" fill="#A9A8A5"/>
<path transform="translate(1e3 659)" d="m0 0 5 2 3 9-2 1-3-9h-9l-14 3-4-1 16-4z" fill="#DAD9D8"/>
<path transform="translate(721,609)" d="m0 0 7 6 7 7v2l3 1-2 2-7-6v-2l-3-1v-2h-2l-4-6z" fill="#D1D1CF"/>
<path transform="translate(1123,571)" d="m0 0 4 2 8 7 7 8-1 3-12-13v-2l-4-1z" fill="#BAB9B6"/>
<path transform="translate(492,846)" d="m0 0h12v2l-18 2-6 1-2-2z" fill="#BDBBB9"/>
<path transform="translate(635,844)" d="m0 0 1 3-5 5-10 9-7 7-3-1 12-11z" fill="#B4B3B0"/>
<path transform="translate(502,561)" d="m0 0h14v1l-12 1-14 4-5-1 3-2z" fill="#AAA8A5"/>
<path transform="translate(321,480)" d="m0 0 4 1-8 7-4 10-1 5-2-2 1-7 4-8z" fill="#CFCFCD"/>
<path transform="translate(558,276)" d="m0 0h1v16l-1 16h-1l-1-5v-16l1-1z" fill="#B1AFAD"/>
<path transform="translate(990,266)" d="m0 0 3 4 4 13v7h-2l-5-19-1-3z" fill="#BEBDBB"/>
<path transform="translate(908,614)" d="m0 0 3 1-8 9-5 5-4 3 1-5 7-6z" fill="#B8B7B5"/>
<path transform="translate(310,393)" d="m0 0h1v5h2l4 8 2 1v2l5 2v2l-6-2-7-8-1-3z" fill="#C5C4C2"/>
<path transform="translate(621,234)" d="m0 0 2 1-7 8-5 3-3 5-4 2 2-4 7-8z" fill="#BAB9B7"/>
<path transform="translate(745,1182)" d="m0 0h2l-1 4h-2l-2 5-3 5-3-1v-10h2l1 5z" fill="#E2E2E1"/>
<path transform="translate(928,1070)" d="m0 0 9 5 1 2v15l-2 1-1-15-5-3z" fill="#DEDEDD"/>
<path transform="translate(549,939)" d="m0 0v3l-6 7-10 7h-2l1-3 9-7z" fill="#B2B1AE"/>
<path transform="translate(531,855)" d="m0 0 5 2 12 11 2 4-4-1-7-8-6-4z" fill="#C4C3C1"/>
<path transform="translate(674,499)" d="m0 0 4 2 5 3 7 6 2 3-1 3-17-16z" fill="#B1AFAC"/>
<path transform="translate(635,299)" d="m0 0 4 5 8 6 7 2-3 2-6-1-9-8-2-4z" fill="#C0BFBD"/>
<path transform="translate(944,270)" d="m0 0 6 4 5 6 3 6v3h-2l-4-8-4-5-6-4z" fill="#BFBDBB"/>
<path transform="translate(1119,790)" d="m0 0 1 2-5 8-7 5-3 1h-12v-1l11-1 5-2 9-11z" fill="#A7A5A2"/>
<path transform="translate(602,719)" d="m0 0h18l4 2-5 1h-19l-2-2z" fill="#CCCCCA"/>
<path transform="translate(239,658)" d="m0 0 2 1-2 3-4 2-3 3-5 4-3 5-4 2 2-4 7-8z" fill="#B9B7B5"/>
<path transform="translate(1156,622)" d="m0 0h1v25l-1 5-2-2 1-20z" fill="#C3C2C0"/>
<path transform="translate(553,576)" d="m0 0 4 2 8 7 5 7-2 1-13-13z" fill="#BCBBB9"/>
<path transform="translate(725,360)" d="m0 0 1 3-8 17-3 2 1-6 8-15z" fill="#BCBBB9"/>
<path transform="translate(1e3 363)" d="m0 0v3l-15 15-2-1 6-8 4-4 5-3z" fill="#D5D4D3"/>
<path transform="translate(653,261)" d="m0 0h11l4 2v2l-13-1-10 2 4-4z" fill="#D7D7D5"/>
<path transform="translate(654,790)" d="m0 0 1 2-7 11-8 8-2-1 9-10 6-9z" fill="#BBBAB8"/>
<path transform="translate(1239,790)" d="m0 0 1 4-2 3-2 16-2 1v-14l4-9z" fill="#BAB8B6"/>
<path transform="translate(1286,760)" d="m0 0 4 1 8 5 1 6v16h-1l-1-8v-13l-4-1v-2l-6-2z" fill="#DEDEDD"/>
<path transform="translate(511,618)" d="m0 0h7l4 2 5 6v2l-3-1-5-5-12-1 1-2z" fill="#DDCAB0"/>
<path transform="translate(985,537)" d="m0 0v3l-18 18-1-4 4-4 5-3z" fill="#9C9A97"/>
<path transform="translate(654,478)" d="m0 0 7 6 12 13 1 2-4-2-18-18z" fill="#A9A7A4"/>
<path transform="translate(856,366)" d="m0 0 4 1 6 10 3 9-3-1-7-14z" fill="#CECDCB"/>
<path transform="translate(422,704)" d="m0 0h2l1 7-2 11-2 5-2-3 2-7z" fill="#D3D2D1"/>
<path transform="translate(712,681)" d="m0 0 4 5 7 10 2 6-3-1-7-12-4-6z" fill="#CBCBC9"/>
<path transform="translate(960,402)" d="m0 0 3 1-5 5-6 7h-2l-1 3h-4l1-8 3 4 8-9z" fill="#D3D2D1"/>
<path transform="translate(987,328)" d="m0 0v3l-8 10-14 9-3-1 12-7 10-10z" fill="#878480"/>
<path transform="translate(825,185)" d="m0 0 2 1 1 11-3 10-3 1 2-6z" fill="#BCBBB9"/>
<path transform="translate(1242,952)" d="m0 0h1v12h2v17l-2 1-1-16z" fill="#BCBAB8"/>
<path transform="translate(1049,246)" d="m0 0 4 1 6 4 4 7v3h-2l-5-8-6-4z" fill="#BEBCBA"/>
<path transform="translate(525,186)" d="m0 0m-1 1m-1 1m-2 1 2 1-7 8-6 8-1-3 4-6z" fill="#D2D2D0"/>
<path transform="translate(767,1166)" d="m0 0 3 1-4 3-6 2-12 9-2 1 2-4 12-9z" fill="#AFAEAB"/>
<path transform="translate(671,1022)" d="m0 0 3 1v18l-1 5-2-2z" fill="#D2D2D0"/>
<path transform="translate(931,778)" d="m0 0 1 4h2l3 12 1 5-2 1-4-11-1-4z" fill="#B9B8B5"/>
<path transform="translate(296,568)" d="m0 0 6 2 12 9v2l-6-2-12-10z" fill="#B1B0AD"/>
<path transform="translate(504,562)" d="m0 0h18l5 1-1 2-24-1z" fill="#D2D2D0"/>
<path transform="translate(357,438)" d="m0 0 7 1 10 4 3 3-3 1-14-6v-2z" fill="#B1B0AD"/>
<path transform="translate(1297,406)" d="m0 0h2l-2 4-6 5-9 2 1-3 9-4z" fill="#C1C0BD"/>
<path transform="translate(1027,694)" d="m0 0 5 1 6 4 7 4v1l-7-1-11-8z" fill="#BCBBB8"/>
<path transform="translate(1206,447)" d="m0 0 2 1-12 12-7 5 2-4 5-6z" fill="#B6B5B2"/>
<path transform="translate(867,386)" d="m0 0 3 1 4 13v6h-2z" fill="#C2C1BF"/>
<path transform="translate(714,382)" d="m0 0 2 3-2 15-1 13h-1v-22z" fill="#D8D7D6"/>
<path transform="translate(1067,225)" d="m0 0 2 2-6 11-8 6v-3l3-3h2v-2h2l2-5z" fill="#E0DFDE"/>
<path transform="translate(663,1062)" d="m0 0v3l-8 7h-2l-1 16h-1v-15l5-6 5-3z" fill="#BFBEBC"/>
<path transform="translate(936,747)" d="m0 0h2l-1 5-4 16-2 1 1-10 3-10z" fill="#CDCDCB"/>
<path transform="translate(908,708)" d="m0 0v3l-7 10-3 6-2-3 5-9 4-5z" fill="#B9B8B5"/>
<path transform="translate(334,547)" d="m0 0 8 2 14 1v2h-15l-6-2z" fill="#B9B8B5"/>
<path transform="translate(922,494)" d="m0 0 3 1-15 15-2-2z" fill="#C3C2C0"/>
<path transform="translate(483,278)" d="m0 0m-1 1 1 3-10 5-12 1-1-2 13-2 8-4z" fill="#E4E4E3"/>
<path transform="translate(614,915)" d="m0 0h5l-3 3-7 2h-8v-2l2-1 9-1z" fill="#B8B7B4"/>
<path transform="translate(265,688)" d="m0 0 13 1 6 3-2 1-5-2h-11l-4 2-4-1 4-3z" fill="#A8A6A3"/>
<path transform="translate(1032,192)" d="m0 0 2 1-5 5-5 6-2 5-3 1 2-6 7-9z" fill="#BCBBB9"/>
<path transform="translate(452,1025)" d="m0 0 6 1 6 7 1 4-3-1-3-4v-2l-6-2z" fill="#C6C5C3"/>
<path transform="translate(478,894)" d="m0 0h2l-2 5-1 1v14l-3-1v-13z" fill="#BBBAB8"/>
<path transform="translate(659,762)" d="m0 0h1v14l-4 14-2-3 3-12 1-1z" fill="#C0BEBC"/>
<path transform="translate(1108,748)" d="m0 0 5 2 7 7 2 5v3h-2l-5-9-4-5z" fill="#BBBAB8"/>
<path transform="translate(1111,654)" d="m0 0 1 2-2 5-5 5-9 3 4-4 5-4h2l2-4z" fill="#A6A4A1"/>
<path transform="translate(252,583)" d="m0 0h10l5 2-1 2-12-1-9 3 4-4h3z" fill="#D7D6D5"/>
<path transform="translate(374,535)" d="m0 0 2 2-4 6-11 8-4-1 12-8z" fill="#C2C1BF"/>
<path transform="translate(320,376)" d="m0 0 2 1-5 5-4 8h-2l-1 2 1-7 7-8z" fill="#CCCCCA"/>
<path transform="translate(443,291)" d="m0 0 22 1-4 2-3 1-16-2z" fill="#D0D0CE"/>
<path transform="translate(449,229)" d="m0 0 2 1-1 3-5 5-5 8-1-3 6-10z" fill="#C6C5C3"/>
<path transform="translate(864,197)" d="m0 0h11v2h-10l-1 12-2-2 1-9z" fill="#C8C7C5"/>
<path transform="translate(525,1168)" d="m0 0h1v11l-2 10-2 1-1-3 2-5 1-13z" fill="#D2D2D0"/>
<path transform="translate(634,934)" d="m0 0h1l1 14 3 6-1 2-5-6v-13z" fill="#B8B7B4"/>
<path transform="translate(418,727)" d="m0 0h2l-2 5-6 7-6 3 2-4 4-4h2l2-5z" fill="#C3C2C0"/>
<path transform="translate(1135,687)" d="m0 0v3l-12 10-4 1 6-7 6-5z" fill="#ABA9A7"/>
<path transform="translate(649,680)" d="m0 0 7 1 11 8 1 2-5-1-9-6z" fill="#B4B2B0"/>
<path transform="translate(1219,486)" d="m0 0h3l-9 18-1-6z" fill="#BDBBB9"/>
<path transform="translate(1246,433)" d="m0 0h9l8 1-2 2h-17l2-1z" fill="#BFBEBB"/>
<path transform="translate(745,1253)" d="m0 0 5 3 7 7 2 4-4-2-6-5-4-5z" fill="#B1AFAC"/>
<path transform="translate(585,726)" d="m0 0 2 1-8 8-5 4-5 5 2-5 11-11z" fill="#B9B8B6"/>
<path transform="translate(820,705)" d="m0 0 2 1-1 4 8 7 3 4-4-1-10-10 1-4z" fill="#C9C8C6"/>
<path transform="translate(630,631)" d="m0 0 8 1 12 4-1 2-9-2-7-2v-2z" fill="#B7B6B3"/>
<path transform="translate(638,465)" d="m0 0 4 2 7 5 3 7-4-2-7-7z" fill="#B9B8B6"/>
<path transform="translate(510,205)" d="m0 0 1 2-1 9 1 9h-2l-2-7v-7l2-5z" fill="#DFDFDE"/>
<path transform="translate(602,155)" d="m0 0h7v1l-9 2-10 10-1-2 7-8z" fill="#B5B4B1"/>
<path transform="translate(665 1e3)" d="m0 0 4 5 4 10v3h-2l-6-14-1-2z" fill="#BBB9B7"/>
<path transform="translate(1146,671)" d="m0 0h2l-2 5-7 9-3 2 1-4z" fill="#C1C0BE"/>
<path transform="translate(1102,602)" d="m0 0 7 6 5 6-1 3-4-5-9-8z" fill="#C1C0BE"/>
<path transform="translate(746,566)" d="m0 0 5 1 9 9-3 1-11-10z" fill="#B8B7B5"/>
<path transform="translate(559,254)" d="m0 0h1v22h-1l-2-9 1-12z" fill="#BFBEBC"/>
<path transform="translate(588,179)" d="m0 0 1 2 3 1 4 6 4 3v2l-5-2-5-5-2-4z" fill="#BFBEBC"/>
<path transform="translate(1020,926)" d="m0 0 1 2h2l3 6 2 7 3 4-1 2-6-9-4-9z" fill="#A7A5A2"/>
<path transform="translate(840,729)" d="m0 0 12 12 3-2v5h-4v-2h-2l-6-7-2-1z" fill="#D8D8D6"/>
<path transform="translate(1e3 604)" d="m0 0h2l-2 9-3 9-2 1 3-14z" fill="#DADAD9"/>
<path transform="translate(407,555)" d="m0 0h2l-2 5-8 10-1-4h2l2-5z" fill="#BEBDBB"/>
<path transform="translate(634,521)" d="m0 0 6 5 7 8 1 2-4-1v-2l-3-1v-2l-3-1v-2h-2l-3-3z" fill="#E1E1E0"/>
<path transform="translate(377,446)" d="m0 0 5 2 9 7 1 2-6-2-8-6z" fill="#B0AFAC"/>
<path transform="translate(606,436)" d="m0 0 6 2 9 9-3 1-12-11z" fill="#B5B4B1"/>
<path transform="translate(501,337)" d="m0 0 6 4 11 12 1 2-4-2-14-14z" fill="#9E9C98"/>
<path transform="translate(1058,191)" d="m0 0 4 1 8 7 1 4-4-2-7-8z" fill="#B0AFAC"/>
<path transform="translate(822,125)" d="m0 0 6 2 9 6-1 2-5-2-8-5z" fill="#D3D3D1"/>
<path transform="translate(692,842)" d="m0 0m-1 1m-1 1v3l-14 14-1-2 4-5 7-6z" fill="#E1E1E0"/>
<path transform="translate(487,745)" d="m0 0h10l-3 2-11 2h-6l2-2z" fill="#B6B5B2"/>
<path transform="translate(459,581)" d="m0 0v3l-3 5-8 9v-3l8-11z" fill="#B6B5B2"/>
<path transform="translate(326,374)" d="m0 0h8l7 1v1l-13 1-8 2 2-4z" fill="#DADAD8"/>
<path transform="translate(1117,229)" d="m0 0 5 1 6 5 2 5-4-2v-2l-5-2v-2h-3z" fill="#C0BFBC"/>
<path transform="translate(787,157)" d="m0 0m-4 1h4v2l-8 4-6 5v-3l5-5z" fill="#DFDFDD"/>
<path transform="translate(671,1046)" d="m0 0 1 3-6 12-2 1-1-3 5-8z" fill="#B7B6B4"/>
<path transform="translate(655,918)" d="m0 0 8 1 2 3h-16l-1-2z" fill="#D0CFCE"/>
<path transform="translate(1058,897)" d="m0 0 1 4-1 10v4h-2l-1-3v-8z" fill="#C6C5C3"/>
<path transform="translate(1068,847)" d="m0 0h23v1l-25 2-1-2z" fill="#D2D2D0"/>
<path transform="translate(1174,669)" d="m0 0 3 1h-2v2l-10 5-3 3-3-1 9-7z" fill="#CBCAC8"/>
<path transform="translate(1154,652)" d="m0 0 1 4-5 13-2 2-1-3 3-4 2-9z" fill="#B3B1AE"/>
<path transform="translate(1348,664)" d="m0 0 5 2 8 6v2l-4-1-8-6z" fill="#BCBBB9"/>
<path transform="translate(857,614)" d="m0 0v3l-7 7-5 3-2 1 2-4 6-6 5-3z" fill="#C3C2C0"/>
<path transform="translate(867,449)" d="m0 0 1 3-7 12-4 3-2-1 4-5 3-4h2l2-6z" fill="#B0AEAC"/>
<path transform="translate(1050,964)" d="m0 0h5l5 3 1 6-1 7h-1l-1-10-8-5z" fill="#D2D1D0"/>
<path transform="translate(518,914)" d="m0 0 1 3-3 5-5 3h-6l12-9z" fill="#B1B0AD"/>
<path transform="translate(479,618)" d="m0 0 1 4-3 8-1 10h-1v-12l3-9z" fill="#DCDCDA"/>
<path transform="translate(828,588)" d="m0 0h2l-1 4-7 7h-2v-3h2l2-4z" fill="#BEBDBA"/>
<path transform="translate(273,487)" d="m0 0 2 3-2 14-2 1v-10z" fill="#BBBAB8"/>
<path transform="translate(1314,475)" d="m0 0 2 3 3 9v4l-3-1-3-13z" fill="#C5C4C2"/>
<path transform="translate(711,397)" d="m0 0h1v16h2v8l-2 2-1-7z" fill="#AAA8A5"/>
<path transform="translate(914,228)" d="m0 0h5l-4 2-10 3-6 4-3-1 4-3 10-4z" fill="#A2A09D"/>
<path transform="translate(954,674)" d="m0 0 3 1-15 8-2-1 3-4z" fill="#ABA9A6"/>
<path transform="translate(364,671)" d="m0 0 2 1-5 5-8 6-2 1 2-4 9-8z" fill="#BFBEBC"/>
<path transform="translate(273,616)" d="m0 0h2l-2 5-5 4-6 2 1-3 7-4z" fill="#C7C6C4"/>
<path transform="translate(248,584)" d="m0 0 4 1-6 3-5 7-3 1 2-6z" fill="#B2B1AE"/>
<path transform="translate(598,312)" d="m0 0 3 4v2l3 1 4 6-1 3-4-4-5-9z" fill="#ABA9A6"/>
<path transform="translate(591,166)" d="m0 0 1 2-1 2-1 11-1-2h-2v-7l1-4z" fill="#E4E4E3"/>
<path transform="translate(781,119)" d="m0 0m-4 1 4 1-2 2-9 3-4-1 2-2z" fill="#CFCECD"/>
<path transform="translate(508,888)" d="m0 0 7 1 5 5 1 8-2-3-5-7-6-3z" fill="#A9A7A4"/>
<path transform="translate(339,791)" d="m0 0 4 2 4 6 1 6-3-1-5-11z" fill="#B9B8B5"/>
<path transform="translate(466,787)" d="m0 0 5 3 6 6v2l-4-2-6-5z" fill="#B6B5B2"/>
<path transform="translate(966,717)" d="m0 0 3 1-8 5-5 3h-2l1-3z" fill="#CECECC"/>
<path transform="translate(350,684)" d="m0 0 1 2-4 14-2 1 1-9z" fill="#B9B8B5"/>
<path transform="translate(1326,657)" d="m0 0 10 2 9 2 3 3-7-1-9-3-6-1z" fill="#D1D0CF"/>
<path transform="translate(686,456)" d="m0 0 7 6 5 5h-4l-8-7z" fill="#BEBDBB"/>
<path transform="translate(587,365)" d="m0 0 4 2 7 7 2 4-4-2-9-9z" fill="#CCCBC9"/>
<path transform="translate(435,334)" d="m0 0 1 3-8 8-4 1 2-4 8-7z" fill="#C6C5C3"/>
<path transform="translate(1083,333)" d="m0 0h5l-4 2-9 10-3 2 2-4 7-8z" fill="#BEBDBB"/>
<path transform="translate(1129,269)" d="m0 0 1 2-7 8-5 3h-2l1-3 5-1 2-4z" fill="#ACAAA7"/>
<path transform="translate(758,243)" d="m0 0 9 6 5 3v2l-5-2-8-5z" fill="#C9C8C6"/>
<path transform="translate(1016,218)" d="m0 0 2 4 1 6h2l1 5 4 3-1 3-5-5-4-11z" fill="#A4A29F"/>
<path transform="translate(738,1245)" d="m0 0h1l-1 11-3 6-2-3 2-3 1-8z" fill="#C8C7C5"/>
<path transform="translate(571,1028)" d="m0 0h1v8h2l1 10-2 2-2-9z" fill="#ADABA8"/>
<path transform="translate(725,702)" d="m0 0 3 4 3 8v3h-2l-5-13z" fill="#BDBCBA"/>
<path transform="translate(874,542)" d="m0 0 3 1-5 6h-2l-2 4h-3l6-8z" fill="#B0AEAB"/>
<path transform="translate(1220,535)" d="m0 0 12 6 3 2-4 1-8-4z" fill="#B5B4B1"/>
<path transform="translate(692,516)" d="m0 0 6 2 7 6 1 3-4-1-10-9z" fill="#BAB9B7"/>
<path transform="translate(711,480)" d="m0 0 4 2 9 9-3 1-9-9z" fill="#C3C2C0"/>
<path transform="translate(679,301)" d="m0 0h2l-2 5-9 7-4-2 6-3 5-5z" fill="#BDBCBA"/>
<path transform="translate(463,1037)" d="m0 0h3l2 6v10l-2-2-2-11z" fill="#D5D5D4"/>
<path transform="translate(1058,850)" d="m0 0 3 1h-2v2l-5 2-8 4h-3l5-4z" fill="#BCBBB9"/>
<path transform="translate(1019,792)" d="m0 0h16v1h-14l-2 6-2 1-1-3z" fill="#D0CFCE"/>
<path transform="translate(990,716)" d="m0 0 6 1 8 4-1 2-6-2-5-2v-2z" fill="#BCBBB9"/>
<path transform="translate(1200,665)" d="m0 0 15 2-2 2-12-1-2-2z" fill="#CDCCCB"/>
<path transform="translate(579,665)" d="m0 0h5l-4 2-6 12-2-3 6-10z" fill="#CAC9C8"/>
<path transform="translate(396,570)" d="m0 0 2 1-11 9h-2l2-4 6-5z" fill="#B4B2B0"/>
<path transform="translate(545,488)" d="m0 0 8 1 13 1v1h-19l-3-2z" fill="#E4E4E3"/>
<path transform="translate(575,354)" d="m0 0 4 2 8 8-2 1-9-7v-2l-2-1z" fill="#C7C6C5"/>
<path transform="translate(867,293)" d="m0 0h2l1 14h2l-1 4-2-3-2-7z" fill="#B6B5B3"/>
<path transform="translate(999,1010)" d="m0 0 2 1 4 11v4h-2l-4-12z" fill="#B8B7B4"/>
<path transform="translate(605,985)" d="m0 0 3 1-5 3-7 4-2-1 4-4z" fill="#CFCFCD"/>
<path transform="translate(1080,885)" d="m0 0h13l2 1v2l-13-1-10 1 3-2z" fill="#92908C"/>
<path transform="translate(1109,851)" d="m0 0 9 3 5 3v1h-5l-8-4z" fill="#BEBDBA"/>
<path transform="translate(958,848)" d="m0 0 7 6 3 4h-4v-2h-2v-2l-4-2z" fill="#B8B7B4"/>
<path transform="translate(1270,793)" d="m0 0 2 1 2 6v8h-2l-2-11z" fill="#B5B4B1"/>
<path transform="translate(438,646)" d="m0 0h1l1 8h2l2 9-2 1-4-12z" fill="#A9A8A5"/>
<path transform="translate(1279,572)" d="m0 0 2 1-12 6-6 1v-2l12-4z" fill="#A19F9B"/>
<path transform="translate(1270,480)" d="m0 0 8 6 2 3-1 5-2-3-6-8z" fill="#B2B1AE"/>
<path transform="translate(624,341)" d="m0 0 10 5 1 3-6-2-7-4z" fill="#C6C6C4"/>
<path transform="translate(957,290)" d="m0 0h1l1 12-2 5-5 3 4-8z" fill="#A6A5A2"/>
<path transform="translate(840,245)" d="m0 0 2 1-8 6-6 3h-2l1-3 9-4z" fill="#A4A29E"/>
<path transform="translate(304,1007)" d="m0 0 1 3 3 1 5 8-4-1-4-5z" fill="#BDBBB9"/>
<path transform="translate(571,801)" d="m0 0 9 6 3 4-5-1-7-7z" fill="#AEACA9"/>
<path transform="translate(465,760)" d="m0 0 1 2-1 7-1 8-2 1v-10z" fill="#B1AFAC"/>
<path transform="translate(1377,707)" d="m0 0h3v14l-2-2z" fill="#BAB8B6"/>
<path transform="translate(1263,687)" d="m0 0 1 2-4 13h-2l1-8 3-6z" fill="#E4E4E3"/>
<path transform="translate(1066,616)" d="m0 0 2 1-5 5-4 8-2 1 2-7z" fill="#F7DDB9"/>
<path transform="translate(1142,589)" d="m0 0 3 3 5 8-1 3-1-4-4-2-2-3z" fill="#B1AFAC"/>
<path transform="translate(722,542)" d="m0 0 4 2 8 7v2l-4-1-8-9z" fill="#CFCECC"/>
<path transform="translate(726,494)" d="m0 0 4 2 7 7-3 1-8-7z" fill="#C9C8C6"/>
<path transform="translate(314,440)" d="m0 0 3 1h-2l-1 3-8 4-2-1 4-4z" fill="#C9C8C6"/>
<path transform="translate(806,396)" d="m0 0 5 4 2 4v6h-1l-2-6-3 1v-6z" fill="#FBDAAD"/>
<path transform="translate(809,121)" d="m0 0 7 1 6 2 1 3-5-1-9-3z" fill="#E1E0DF"/>
<path transform="translate(518,850)" d="m0 0 7 1 6 3-1 2-4-1-8-3z" fill="#C5C4C2"/>
<path transform="translate(960,820)" d="m0 0 12 3v2h-7l-5-2z" fill="#B8B7B4"/>
<path transform="translate(1080,799)" d="m0 0h5l8 4v2l-6-1-7-4z" fill="#B5B4B1"/>
<path transform="translate(624,720)" d="m0 0 11 4 1 3-9-3-4-2z" fill="#DADAD9"/>
<path transform="translate(887,673)" d="m0 0v3l-4 6-8 6 2-4z" fill="#9F9D9A"/>
<path transform="translate(672,616)" d="m0 0 5 1v2h2l4 6v3l-11-11z" fill="#A2A09D"/>
<path transform="translate(818,598)" d="m0 0h2l-3 6h-2v10l-2-3 1-8 1-2h2z" fill="#E4E4E3"/>
<path transform="translate(1086,557)" d="m0 0 10 1 7 2-1 2-11-2v-2h-5z" fill="#AFADAA"/>
<path transform="translate(755,522)" d="m0 0 4 1 8 8-3 1-9-9z" fill="#C5C4C2"/>
<path transform="translate(288,459)" d="m0 0 2 1-2 4-5 7-1-4z" fill="#E0E0DF"/>
<path transform="translate(961,348)" d="m0 0 1 3-10 4h-2l1-3z" fill="#D1D0CF"/>
<path transform="translate(492,271)" d="m0 0h2l-2 4-7 6h-2l2-4 3-1 1-3z" fill="#C1C0BE"/>
<path transform="translate(921,227)" d="m0 0h13l7 1-1 2h-8v-2h-11z" fill="#ACAAA7"/>
<path transform="translate(954,922)" d="m0 0 4 4 2 4v4h-2l-4-8z" fill="#BAB8B6"/>
<path transform="translate(1078,884)" d="m0 0h10v1l-16 2v2l-4 1 2-4z" fill="#D3D3D1"/>
<path transform="translate(237,758)" d="m0 0h5l4 3 1 11-2 1-1-11-7-3z" fill="#D0D0CE"/>
<path transform="translate(713,421)" d="m0 0h2l3 12-1 3-1-5h-2l-1-3z" fill="#CAC9C7"/>
<path transform="translate(912,270)" d="m0 0 4 1-6 5-2 5-2-1 2-6z" fill="#C3C2C0"/>
<path transform="translate(881,249)" d="m0 0 1 2-2 1-1 3h-2l-1 5-4 2 2-5 5-7z" fill="#C7C6C4"/>
<path transform="translate(732,208)" d="m0 0 2 2 1 3 2 1 2 7h-3l-4-9z" fill="#A7A5A2"/>
<path transform="translate(815,1168)" d="m0 0 5 1 8 5v1h-5l-4-3v-2z" fill="#AEADAA"/>
<path transform="translate(913,1052)" d="m0 0 2 4 3 1 4 6-1 2-5-4-3-6z" fill="#B5B4B1"/>
<path transform="translate(1060,920)" d="m0 0 10 10-5-1-5-5z" fill="#B8B7B5"/>
<path transform="translate(534,707)" d="m0 0 4 1-11 3h-6v-2z" fill="#A8A6A3"/>
<path transform="translate(951,633)" d="m0 0 2 1-5 3-8 3-1-2z" fill="#C6C5C3"/>
<path transform="translate(501,600)" d="m0 0h17l2 1v2h-4v-2l-17 1z" fill="#D6D6D4"/>
<path transform="translate(887,531)" d="m0 0 1 2-5 5-5 3 1-4 3-3h2v-2z" fill="#B5B4B1"/>
<path transform="translate(366,485)" d="m0 0 4 2 4 6-1 3-4-4-3-4z" fill="#BFBEBC"/>
<path transform="translate(1119,484)" d="m0 0 15 2v1h-18v-2z" fill="#E4E4E3"/>
<path transform="translate(1140,339)" d="m0 0 4 2 5 7-4-1-5-5z" fill="#C2C1BF"/>
<path transform="translate(770,328)" d="m0 0 2 1-1 3-10 3-2-2 9-3h2z" fill="#D0CFCD"/>
<path transform="translate(1168,273)" d="m0 0 4 1-2 2-10 2-1-2z" fill="#BFBEBC"/>
<path transform="translate(712,256)" d="m0 0 4 2 4 9v2h-2z" fill="#DAD9D8"/>
<path transform="translate(462,223)" d="m0 0m-4 1 4 1-10 6-2-1 4-4z" fill="#D0CFCD"/>
<path transform="translate(475,850)" d="m0 0 3 1h-2v2l-8 4-3-1 4-3z" fill="#BEBCBA"/>
<path transform="translate(937,800)" d="m0 0 3 1 6 8-1 3-6-7z" fill="#BAB9B7"/>
<path transform="translate(570,743)" d="m0 0 1 2-5 9-2 1 1-5 3-6z" fill="#CFCECD"/>
<path transform="translate(257,692)" d="m0 0 3 2-5 4-4 5-1-2 4-6z" fill="#C1C0BE"/>
<path transform="translate(874,688)" d="m0 0 1 2-2 5-8 8 2-5z" fill="#B7B5B3"/>
<path transform="translate(970,626)" d="m0 0 4 1-12 5-4-1 3-2z" fill="#A6A4A1"/>
<path transform="translate(239,595)" d="m0 0 1 2-1 2-1 9-2 1v-11z" fill="#D9D9D8"/>
<path transform="translate(1290,564)" d="m0 0 2 1-9 7-2-1 5-5z" fill="#ACABA8"/>
<path transform="translate(1048,561)" d="m0 0 3 1-10 6-3-1 4-3z" fill="#B7B5B3"/>
<path transform="translate(373,496)" d="m0 0 4 2 2 5-1 5-5-10z" fill="#BEBCBA"/>
<path transform="translate(896,340)" d="m0 0 9 6v2l-5-2-6-4z" fill="#BAB9B7"/>
<path transform="translate(996,304)" d="m0 0 1 4-3 10-1-3 1-9z" fill="#ACABA8"/>
<path transform="translate(819,255)" d="m0 0h7l-2 2-12 3 1-3z" fill="#CBCBC9"/>
<path transform="translate(986,161)" d="m0 0 5 2 5 5v2l-4-2-5-4z" fill="#C5C4C2"/>
<path transform="translate(447,1025)" d="m0 0h5l1 2-11 2-4 2 5-5z" fill="#E4E4E3"/>
<path transform="translate(1e3 722)" d="m0 0 4 1 6 7-4-1-6-5z" fill="#D2D1CF"/>
<path transform="translate(771,715)" d="m0 0 5 3 1 2v13h-1l-1-14-4-2z" fill="#D5D5D3"/>
<path transform="translate(1215,668)" d="m0 0 6 1 6 3-1 2-4-1-5-2v-2z" fill="#BCBBB9"/>
<path transform="translate(923,646)" d="m0 0 2 1-2 3-7 4-2-1 4-4z" fill="#C0BFBC"/>
<path transform="translate(936,639)" d="m0 0 3 1-7 4-4 3-3-1 4-3z" fill="#B9B7B5"/>
<path transform="translate(262,624)" d="m0 0m-12 1h12v2l-3 1h-7l-2-1z" fill="#E4E4E3"/>
<path transform="translate(266,586)" d="m0 0 4 2 5 6v2l-3-1-2-5-4-2z" fill="#DCDCDB"/>
<path transform="translate(286,556)" d="m0 0 7 5 3 5-1 2-9-10z" fill="#A09D9A"/>
<path transform="translate(1191,463)" d="m0 0v3l-7 8-1-2 5-7z" fill="#CECDCC"/>
<path transform="translate(756,334)" d="m0 0 3 1-5 3-2 2-6 1 4-4z" fill="#AAA8A6"/>
<path transform="translate(1026,238)" d="m0 0 12 6-4 1-7-4z" fill="#DCDCDB"/>
<path transform="translate(1193,704)" d="m0 0" fill="#878480"/>
</svg>
