<?xml version="1.0" encoding="UTF-8"?>
<svg version="1.1" viewBox="0 0 1280 1280" width="1280" height="1280" xmlns="http://www.w3.org/2000/svg">
<path transform="translate(713,123)" d="m0 0 14 4 21 12 15 11 16 12 11 10 8 7 5 4 7 8 12 12 8 10 13 18 8 15 2 4 9-1h27l27 2 22 5 20 6 8 4 7 3 16 8 11 7 11 8 13 11 15 15 4 5v2h2l12 17 5 9 8 16 7 19 5 23 2 14v27l-3 21-6 22-8 20-7 13-1 4 4 2 11 9 11 11 11 14 7 10 8 14 9 21 6 22 3 20v28l-3 20-5 19-7 18-8 16-8 12-7 9-9 10-14 14-13 10-13 8-9 5-6 2 3 20v27l-5 26-4 12-7 16-8 14-13 17-14 14-13 10-16 10-16 8-15 6-23 6-26 4-26 1-3 10-8 15-8 12-8 10-5 6h-2l-2 4-16 15-11 9-13 10-11 7-18 11-23 12-16 7-18 7-20 6-12 3-20 4-20 2-5-6-1-24v-61l-1-303-1-503v-97l1-16-24 2-21 4-15 4-21 8-16 8-16 9-14 10-11 9-3 3h-2l-2 4-11 11-8 11-8 12-8 19-3 11 9 3 10 5 5 8v9l-5 8-7 3h-7l-9-4-15-6-15-4-12-2h-25l-25 5-17 7-16 9-9 7h-2v2l-8 6-9 11-9 12-7 12-6 15-6 20-2 18v21l3 22 8 24 5 9 2 5v9l-5 8-6 3-6 1-8-4-5-5-8-17-2-9-7 4-15 14-9 9-13 17-10 18-8 21-5 21-1 8v37l5 21 6 16 8 16 12 17 13 14 17 13 17 10 11 5 18 6 25 5 1 1 1 7v27l1 46 6 1 4 4 9 12 5 12 1 5v10l-3 11-6 10-7 7-6 4-8 3-13 1-12-3-9-5-9-8-5-8-3-7-1-5v-17l4-11 8-10 10-7 2-1v-53l-8-1-12-4-11-5-8-4h-2l-9 25-5 25v36l4 20 5 17 9 20 14 21 9 10 4 5 8 7 15 11 17 10 19 8 20 6 20 3 11 1h19l24-3 21-5 17-6 9-3 8 1 5 3 4 6 1 8-3 7-7 6-22 8-6 1 3 9 7 14 8 11 9 11 2 4 3 1 6 7 8 7 11 10 17 12 13 8 4 2-1-10-2-171v-14l-16 3-8 1h-40l-21-4-21-7-16-8-11-7-11-8-12-12-10-14-9-17-4-13-3-19-1-5 1-19 4-17 6-16 2-4-11-2-12-5-9-7-14-14-9-16-5-11-6-25v-43l5-21 6-18 8-16 9-14 10-11 5-5 12-9 6-3h2l-5-19-1-6v-19l3-17 5-18 5-11 6-11 7-12 11-13 13-13 16-10 9-4 14-3h7l3-9 8-16 7-11 4-5 6-5 5-5 10-9 14-8 11-4 11-2h11l12 3 8 5 4 8 1 3 1 60 1 304 1 58 10 9 6 9 3 9v15l-4 11-9 10-11 6-10 2-12-1-10-4-9-6-7-8-5-10-2-8v-8l2-9 6-10 7-7 8-4 3-1v-404l-11 3-12 6-12 11-7 8-8 14-3 8-1 13 1 44 2 51v14l3 77 1 18 6 4 5 4 6 8 4 8 2 10-1 14-4 10-9 10-12 6-10 2-13-1-10-4-9-6-7-7-6-10-3-11v-9l4-13 4-6 5-6 10-6 5-1-2-48-1-34v-15l-1-5v-21l-3-66-10 3-10 6-5 4h-2l-2 4-5 5-7 8-5 8-8 17-5 17-1 6v22l4 13 3 3 16 3 13 5 5 4 3 6v9l-3 6-5 4-6 2h-19l-12-4-1-1h-7l-10 5-11 9-8 10-6 9-6 13-7 25-1 6v31l5 21 8 16 9 10 8 5 5 2h16l9-4 10-9 9-7 3-1h8l6 3 4 5 2 4v7l-6 12-14 11-8 7-11 17-7 17-2 14v19l3 14 7 14 9 12 12 12 13 8 12 6 20 6 16 3h24l20-2 15-4 4-6 6-4 7-1 9 4 4 6 2 8v32l1 154v68l-3 7-2 1h-8l-14-3-15-7-17-9-12-8-17-13-10-9-9-8-7-8-9-9-9-12-10-15-6-12-4-10-1-5-13 1h-34l-26-4-16-4-18-6-16-7-17-10-12-8-4-3v-2l-4-2-11-9-7-8-3-3v-2l-3-1-8-11-7-10-9-16-10-25-6-23-1-6-1-17v-26l2-19 5-21 7-20 4-9-1-5-11-10-6-5-7-8-11-14-8-13-7-13-6-16-5-17-3-17-1-10v-24l3-23 4-16 7-20 8-17 11-18 14-18 4-5h2l2-4 8-8 14-11 11-8 3-2v-40l3-20 6-21 4-11 6-12 9-15 11-14 9-10 9-9 13-10 11-7 17-9 13-5 25-6 14-1 4-1 31 2 4 2 2-10 4-11 9-19 8-12 11-14 17-17 11-10 13-10 17-11 15-8 18-8 15-6 31-8 12-2 18-1h18l19 2 4 4 1 2 1 56 2 730v212l27-7 23-8 9-4 30-15 19-12 14-10 16-13 12-11 11-13 7-10 6-10 2-7h-7l-11-3-5-4-3-7v-7l3-6 6-5 3-1h7l21 4 13 1h25l22-3 17-4 15-5 16-8 16-10 14-12 8-9 9-13 6-10 6-16 4-18 1-11v-11l-2-17-4-17-5-14-8-16-6-11v-10l6-8 8-3 9 2 5 4 6 10 11 22 12-7 10-7 11-9 13-13 11-15 8-14 7-17 5-21 2-17v-12l-2-18-5-21-7-17-9-16-9-12-11-12-12-11-20-12-10-5-11-4-17-5-11-2-11-1-7-4-2-3v-37l-1-39-10-4-11-10-5-9-3-10v-11l4-13 7-11 10-8 11-5 7-2h15l10 3 9 2 7 7 8 16 2 6v12l-4 13-6 9-8 8-11 6 1 4v51l8 1 18 5 19 8h2l6-12 6-16 4-13 3-17v-32l-3-17-5-17-7-17-9-15-10-13-9-10-7-7-14-11-11-7-21-11-16-6-19-5-17-3-34-1-3 1-15 1-20 4-8 3-11 4-14 6h-9l-6-4-4-5-1-2v-9l3-5 7-6 12-5 7-3 10-3h4l-6-11-8-11-6-8-13-13-7-8-7-6v-2l-4-2-11-10-2-1v-2l-4-2-10-7-11-8-5-3 3 101 2 65v22l-1 10 21-3h37l24 4 17 5 10 3 19 10 11 7 11 9 11 11 7 10 6 10 7 17 2 6 2 12v21l-3 19-5 13-5 11 17 5 10 5 14 11 10 11 7 10 7 15 4 11 4 19 1 13-1 26-4 20-7 19-9 17-9 12-9 10-13 10-16 8-6 1 5 16 2 12v23l-3 16-4 13-7 16-9 14-12 14-16 12-14 7-14 4-14 1h-1l-4 17-4 9-4 8-9 12-12 12-13 9-13 7-19 5-16 1-12-2-6-3-1-1-1-429-8-4-6-5-6-8-4-12v-12l2-8 5-10 8-9 14-8 14-2 13 2 8 4 8 6 7 10 3 12v9l-3 13-7 11-9 7-6 3-1 403 13-4 12-7 13-12 7-11 4-11v-85l-3-118-1-16-10-6-8-9-5-11-1-4v-14l4-11 6-8 9-8 8-4 9-2h14l11 3 9 5 6 5 6 9 4 11v16l-4 10-7 10-9 7-8 3v29l1 46 1 71 1 36h11l13-5 8-6 10-9 7-10 7-14 4-13 2-13v-11l-3-16-5-10-4-5-16-6-9-7-5-5-1-3v-7l3-7 6-5 9-1 12 3 12 6h13l9-3 8-4 9-7 7-7 9-14 5-11 5-16 2-11 1-17-2-17-3-13-6-14-7-10-6-7-11-7-9-3h-18l-9 4-13 11-6 3-10-1-7-6-2-4v-10l3-8 5-5 9-6 7-5 11-15 7-14 4-12 1-6 1-21-6-21-7-11-9-10-9-8-12-8-16-7-16-5-17-3-9-1h-26l-20 2-18 4-15 2-3-3-1-46-6-193v-24l6-7z" fill="#FDF0E4"/>
<path transform="translate(499,308)" d="m0 0h11l12 3 8 5 4 8 1 3 1 60 1 304 1 58 10 9 6 9 3 9v15l-4 11-9 10-11 6-10 2-12-1-10-4-9-6-7-8-5-10-2-8v-8l2-9 6-10 7-7 8-4 3-1v-404l-11 3-12 6-12 11-7 8-8 14-3 8-1 13 1 44 2 51v14l3 77 1 18 6 4 5 4 6 8 4 8 2 10-1 14-4 10-9 10-12 6-10 2-13-1-10-4-9-6-7-7-6-10-3-11v-9l4-13 4-6 5-6 10-6 5-1-2-48-1-34v-15l-1-5v-21l-3-66-10 3-10 6-5 4h-2l-2 4-5 5-7 8-5 8-8 17-5 17-1 6v22l4 13 3 3 16 3 13 5 5 4 3 6v9l-3 6-5 4-6 2h-19l-12-4-1-1h-7l-10 5-11 9-8 10-6 9-6 13-7 25-1 6v31l5 21 8 16 9 10 8 5 5 2h16l9-4 10-9 9-7 3-1h8l6 3 4 5 2 4v7l-6 12-14 11-8 7-11 17-7 17-2 14v19l3 14 7 14 9 12 12 12 13 8 12 6 20 6 16 3h24l20-2 15-4 4-6 6-4 7-1 9 4 4 6 2 8v32l1 154v68l-3 7-2 1h-8l-14-3-15-7-17-9-12-8-17-13-10-9-9-8-7-8-9-9-9-12-10-15-6-12-4-10-1-5-13 1h-34l-26-4-16-4-18-6-16-7-17-10-12-8-4-3v-2l-4-2-11-9-7-8-3-3v-2l-3-1-8-11-7-10-9-16-10-25-6-23-1-6-1-17v-26l2-19 5-21 7-20 4-9-1-5-11-10-6-5-7-8-11-14-8-13-7-13-6-16-3-12v-12l-3-7v-14l2-1 13-1 5 2 3-7h2l2 14-1 9 4 1 2 2 6 20 8 18 12 18 12 14 10 9 13 9 10 6 11 6 16 6 15 4 17 3 1 1 1 7v27l1 46 6 1 4 4 9 12 5 12 1 5v10l-3 11-6 10-7 7-6 4-8 3-13 1-12-3-9-5-9-8-5-8-3-7-1-5v-17l4-11 8-10 10-7 2-1v-53l-8-1-12-4-11-5-8-4h-2l-9 25-5 25v36l4 20 5 17 9 20 14 21 9 10 4 5 8 7 15 11 17 10 19 8 20 6 20 3 11 1h19l24-3 21-5 17-6 9-3 8 1 5 3 4 6 1 8-3 7-7 6-22 8-6 1 3 9 7 14 8 11 9 11 2 4 3 1 6 7 8 7 11 10 17 12 13 8 4 2-1-10-2-171v-14l-16 3-8 1h-40l-21-4-21-7-16-8-11-7-11-8-12-12-10-14-9-17-4-13-3-19-1-5 1-19 4-17 6-16 2-4-11-2-12-5-9-7-14-14-9-16-5-11-6-25v-43l5-21 6-18 8-16 9-14 10-11 5-5 12-9 6-3h2l-5-19-1-6v-19l3-17 5-18 5-11 6-11 7-12 11-13 13-13 16-10 9-4 14-3h7l3-9 8-16 7-11 4-5 6-5 5-5 10-9 14-8 11-4z" fill="#FCB16D"/>
<path transform="translate(591,124)" d="m0 0h18l19 2 4 4 1 2 1 56 2 730v212l27-7 23-8 9-4 30-15 19-12 14-10 16-13 12-11 11-13 7-10 6-10 2-7h-7l-11-3-5-4-3-7v-7l3-6 6-5 3-1h7l21 4 13 1h25l22-3 17-4 15-5 16-8 16-10 14-12 8-9 9-13 6-10 6-16 4-18 1-11v-11l-2-17-4-17-5-14-8-16-6-11v-10l6-8 8-3 9 2 5 4 6 10 11 22 12-7 10-7 11-9 13-13 11-15 8-14 7-17 5-21 2-17v-12l-2-18-5-21-6-15 1-3-3-9h-2l-3-9-4-2-1-4-3-1-1-3 1-2 5 1v2l9 2 3 3 5-1h12l5 7 1 6h2l4 8 3 3 5 16 3 11 3 20v28l-3 20-5 19-7 18-8 16-8 12-7 9-9 10-14 14-13 10-13 8-9 5-6 2 3 20v27l-5 26-4 12-7 16-8 14-13 17-14 14-13 10-16 10-16 8-15 6-23 6-26 4-26 1-3 10-8 15-8 12-8 10-5 6h-2l-2 4-16 15-11 9-13 10-11 7-18 11-23 12-16 7-18 7-20 6-12 3-20 4-20 2-5-6-1-24v-61l-1-303-1-503v-97l1-16-24 2-21 4-15 4-21 8-16 8-16 9-14 10-11 9-3 3h-2l-2 4-11 11-8 11-8 12-8 19-3 11 9 3 10 5 5 8v9l-5 8-7 3h-7l-9-4-15-6-15-4-12-2h-25l-25 5-17 7-16 9-9 7h-2v2l-8 6-9 11-9 12-7 12-6 15-6 20-2 18v21l3 22 8 24 5 9 2 5v9l-5 8-6 3-6 1-8-4-5-5-8-17-2-9-7 4-15 14-9 9-13 17-10 18-8 21-5 21-1 8v37l2 10-2 1-2-4h-2v-10l-1-9v-4h-2l-1 5-3 3-6-2-13 1 1 14 3 7v12l-2-1-4-21-1-10v-24l3-23 4-16 7-20 8-17 11-18 14-18 4-5h2l2-4 8-8 14-11 11-8 3-2v-40l3-20 6-21 4-11 6-12 9-15 11-14 9-10 9-9 13-10 11-7 17-9 13-5 25-6 14-1 4-1 31 2 4 2 2-10 4-11 9-19 8-12 11-14 17-17 11-10 13-10 17-11 15-8 18-8 15-6 31-8 12-2z" fill="#FCB16C"/>
<path transform="translate(720,465)" d="m0 0 14 2 8 4 8 6 7 10 3 12v9l-3 13-7 11-9 7-6 3-1 403 13-4 12-7 13-12 7-11 4-11v-85l-3-118-1-16-10-6-8-9-5-11-1-4v-14l4-11 6-8 9-8 8-4 9-2h14l11 3 9 5 6 5 6 9 4 11v16l-4 10-7 10-9 7-8 3v29l1 46 1 71 1 36h11l13-5 8-6 10-9 7-10 7-14 4-13 2-13v-11l-3-16-5-10-4-5-16-6-9-7-5-5-1-3v-7l3-7 6-5 9-1 12 3 12 6h13l9-3 8-4 9-7 7-7 9-14 5-11 5-16 2-11 1-17-2-17-3-18-3-8-5-8 1-3 9 6h2l2-1 15-1 4 2 4 10 1 5h1v7l2 7 2 3h1l1 12-1 26-4 20-7 19-9 17-9 12-9 10-13 10-16 8-6 1 5 16 2 12v23l-3 16-4 13-7 16-9 14-12 14-16 12-14 7-14 4-14 1h-1l-4 17-4 9-4 8-9 12-12 12-13 9-13 7-19 5-16 1-12-2-6-3-1-1-1-429-8-4-6-5-6-8-4-12v-12l2-8 5-10 8-9 14-8z" fill="#FCB16D"/>
<path transform="translate(499,308)" d="m0 0h11l12 3 8 5 4 8 1 3 1 60 1 304 1 58 10 9 6 9 3 9v15l-4 11-9 10-11 6-10 2-12-1-10-4-9-6-7-8-5-10-2-8v-8l2-9 6-10 7-7 8-4 3-1v-404l-11 3-12 6-12 11-7 8-8 14-3 8-1 13 1 44 2 51v14l3 77 1 18 6 4 5 4 6 8 4 8 2 10-1 14-4 10-9 10-12 6-10 2-13-1-10-4-9-6-7-7-6-10-3-11v-9l4-13 4-6 5-6 10-6 5-1-2-48-1-34v-15l-1-5v-21l-3-66-10 3-10 6-5 4h-2l-2 4-5 5-7 8-5 8-8 17-5 17-1 6v22l4 13 3 3 16 3 13 5 5 4 3 6v9l-3 6-5 4-6 2h-19l-12-4-1-1h-7l-10 5-11 9-8 10-6 9-6 13-7 25-1 6v38l-5 1-2-1v-2h2l1-2 2-1v-9l-2-1 1-25h2l-1-6 1-7v-5l2-3 1-3-1-1h-5l-4 5-5 2h-7l-6-2-1 8-2 1-1-3 6-21 5-13 10-18 10-13 7-8 15-11 6-3h2l-5-19-1-6v-19l3-17 5-18 5-11 6-11 7-12 11-13 13-13 16-10 9-4 14-3h7l3-9 8-16 7-11 4-5 6-5 5-5 10-9 14-8 11-4z" fill="#FDDBBD"/>
<path transform="translate(591,124)" d="m0 0h18l19 2 4 4 1 2 1 56 1 353v194l-1 17h-1l-1-64v-31h1v-17l-1-48-1-13h-3l-1 9-2 3h-13l-4-3v-4h-2v126l-1 40v20h-2l-1-502v-97l1-16-24 2-21 4-15 4-21 8-16 8-16 9-14 10-11 9-3 3h-2l-2 4-11 11-8 11-8 12-8 19-3 11 9 3 10 5 5 8v9l-5 8-7 3h-7l-9-4-15-6-15-4-12-2h-25l-25 5-17 7-16 9-9 7h-2v2l-8 6-9 11-9 12-7 12-6 15-6 20-2 18v21l3 22 8 24 5 9 2 5v9l-5 8-6 3-6 1-8-4-5-5-8-17-2-9-7 4-15 14-9 9-13 17-10 18-8 21-5 21-1 8v37l2 10-2 1-2-4h-2v-10l-1-9v-4h-2l-1 5-3 3-6-2-13 1 1 14 3 7v12l-2-1-4-21-1-10v-24l3-23 4-16 7-20 8-17 11-18 14-18 4-5h2l2-4 8-8 14-11 11-8 3-2v-40l3-20 6-21 4-11 6-12 9-15 11-14 9-10 9-9 13-10 11-7 17-9 13-5 25-6 14-1 4-1 31 2 4 2 2-10 4-11 9-19 8-12 11-14 17-17 11-10 13-10 17-11 15-8 18-8 15-6 31-8 12-2z" fill="#FDF1E5"/>
<path transform="translate(1025,346)" d="m0 0 4 1-1 6h2l1-3 1 2 4-1 4 1 9-2 1-1h7l2 9h2l1-2 4 8 2-1 6 14 6 21 4 25v27l-3 21-6 22-8 20-7 13-1 4 4 2 11 9 11 11 11 14 7 10 8 14 5 12-1 2-4-6v-3h-2l-4-9-2-3h-12l-5 1-5-4-7-2v-2l-5-1 1 5 3 3v2h4l3 7v4h2l3 7v2l2 1-5-1-6-12-11-15-11-12-12-11-20-12-10-5-11-4-17-5-11-2-11-1-7-4-2-3v-37l-1-39-10-4-11-10-5-9-3-10v-11l4-13 7-11 10-8 11-5 7-2h15l10 3 9 2 7 7 8 16 2 6v12l-4 13-6 9-8 8-11 6 1 4v51l8 1 18 5 19 8h2l6-12 6-16 4-13 3-17v-32l-3-17-5-17-7-17-9-15-2-5z" fill="#FDDBBD"/>
<path transform="translate(705,358)" d="m0 0 2 1h11l4-1v2h7 1l1 2 21-3h37l24 4 17 5 10 3 19 10 11 7 11 9 11 11 7 10 6 10 7 17 2 6 2 12v21l-3 19-5 13-5 11 17 5 10 5 14 11 10 11 7 10 7 15 4 11 4 20h-3l-2-9-1-3-1-8-3-7-1-5-10-1-11 1-1 3-3-4-5-3-2-1v2l2 2 5 10 2 8-1 4-6-15-7-11-7-8-11-7-9-3h-18l-9 4-13 11-6 3-10-1-7-6-2-4v-10l3-8 5-5 9-6 7-5 11-15 7-14 4-12 1-6 1-21-6-21-7-11-9-10-9-8-12-8-16-7-16-5-17-3-9-1h-26l-20 2-18 4-15 2-3-3v-18l1-1v-5l1-2v-10z" fill="#FDDBBD"/>
<path transform="translate(235,376)" d="m0 0h6v5l1 2-7 23-2 18v21l3 22 8 24 5 9 2 5v9l-5 8-6 3-6 1-8-4-5-5-8-17-2-9-7 4-15 14-9 9-13 17-10 18-8 21-5 21-1 8v37l2 10-2 1-2-4h-2v-10l-1-9v-4h-2l-1 5-3 3-6-2-13 1 1 14 3 7v12l-2-1-4-21-1-10v-24l3-23 4-16 7-20 8-17 11-18 14-18 4-5h2l2-4 8-8 14-11 11-8 3-2v-40l3-20 1-4 3 1v4l7 2h6v-3l1-6 9-3 3 1v4l1-4 2-4-1-2-4-1 1-5z" fill="#FDDBBD"/>
<path transform="translate(505,589)" d="m0 0h1l1 22 1-5h2v-9l5-3h14l4-1 2 37 1 49 1 12 1 58 10 9 6 9 3 9v15l-4 11-9 10-11 6-10 2-12-1-10-4-9-6-7-8-5-10-2-8v-8l2-9 6-10 7-7 8-4 3-1z" fill="#FCB26E"/>
<path transform="translate(611,368)" d="m0 0 5 1h10l5 2 2-1v22l2 149v194l-1 17h-1l-1-64v-31h1v-17l-1-48-1-13h-3l-1 9-2 3h-13l-4-3v-4h-2v126l-1 40v20h-2v-349l1-44 1-6z" fill="#FCDBBD"/>
<path transform="translate(504,338)" d="m0 0 2 2v14l1 6v14l4-1h4l1 2 9 1 3-12 2-1v13h2l2 8 2 3v292h-1l-1-52-2-30-3-2h-15l-3 2-1 9h-2l-1 54h-1l-1-71-1-4v-245h-5v-1z" fill="#FCDBBC"/>
<path transform="translate(720,465)" d="m0 0 14 2 8 4 8 6 7 10 3 12v9l-3 13-7 11-9 7-6 3-1 178h-1l-1-29v-75l-1-25v-15l-3 1-2 4-1 10-2 1-2-8-14 1-2-1v137h-1l-1-28-1-150-8-4-6-5-6-8-4-12v-12l2-8 5-10 8-9 14-8z" fill="#FCDBBD"/>
<path transform="translate(451,596)" d="m0 0h1l1 9 4 4 2 6 3-1 5 3 2 5 4 2 4 4 2 6 1 13-2 11-4 8-8 9-12 6-10 2-13-1-10-4-9-6-7-7-6-10-3-11v-9l4-13 4-1 2 1-1-4 2-3h2v-2h3l2-4 6-2 2 1 1-2 3-1-1-3 3-5h4v6h-1l-1 5 5-3h11l2-5 2 1z" fill="#FCB16D"/>
<path transform="translate(499,308)" d="m0 0h11l12 3 8 5 4 8 1 3v58l-3-3v-6h-2l-1-12-3 13-10-1-1-3h-2l-1 3-1-2-4 1-1-1v-16l-1-4v-15h-6v2l-13 5-11 8-10 10-9 14-4 10-3-1 4-11-3 1-2 2v-2h-16l-1 5-3 1v-5l-2 3-2-1v2l-5 2 2-6 7-16 8-13 6-8 6-5 5-5 10-9 14-8 11-4z" fill="#FDF0E3"/>
<path transform="translate(591,124)" d="m0 0h18l19 2 4 4v17l-2-3-2-8-4-1 1-5-1 1-8 1-4 2-12 1-2 1h-19l-2 5-3 3v3l-3 1h-10l-3-3-5 1-9 2-1-1v-6l6-4v-1h-5l-1-3 6-1v-2l18-4 6-1z" fill="#FDFBFA"/>
<path transform="translate(711,125)" d="m0 0h4v2l2-1h8l18 10 7 5v3h-8v-2h-3l-1-4-2 4v-3l-13-1-3 1-15 1-9 2v6h-1v-14l6-4 3-4 4 1h-3l2 3 7-1v-2h-3z" fill="#FDFAF8"/>
<path transform="translate(604,646)" d="m0 0h1l1 25v39l-1 40v20h-2v-123z" fill="#FCD3AC"/>
<path transform="translate(707,326)" d="m0 0h20l2 5-4 4-7 1h-11l-3-2 1-6z" fill="#FDDCBE"/>
<path transform="translate(299,618)" d="m0 0h5l-4 17-1 6v38l-5 1-2-1v-2h2l1-2 2-1v-9l-2-1 1-25h2l-1-6 1-7v-5z" fill="#FCD8B8"/>
<path transform="translate(510,143)" d="m0 0 4 1-2 4-1 3h-2l-12 2-3 4-1 3-3-1-6 1-1-2 3-3 15-8z" fill="#FDF3EA"/>
<path transform="translate(1127,651)" d="m0 0 2 2v28l-3 20h-2v2l-2-1 3-15 1-15v-15z" fill="#FCCB9F"/>
<path transform="translate(450,339)" d="m0 0 3 1v1l3 1 2 1 5 3v4l-1 2h-10l-3-3-1-9z" fill="#FDDCBE"/>
<path transform="translate(1009,320)" d="m0 0h14l2 4-1 4-7 2v-2l-7-1-3-2z" fill="#FDDCBE"/>
<path transform="translate(235,376)" d="m0 0h6v5l1 2-8 25-2-1v-8l3-3 1-10 2 2-2-4-4-1 1-5z" fill="#FDDCBF"/>
<path transform="translate(707,344)" d="m0 0h15v8l-2 2-3-2-13-2v-3z" fill="#FDDCBE"/>
<path transform="translate(713,123)" d="m0 0 7 2-3 2h-2v-2l-4 2h3v2l-3 2-5-1-2-3v2l-6 4-2 1-1 23h-1v-24l6-7z" fill="#FDE7D3"/>
<path transform="translate(763,152)" d="m0 0 7 3 10 8-1 4h-3l-2-3-3 1-1-4-5-2-4-1-1-5z" fill="#FDF7F2"/>
<path transform="translate(424,581)" d="m0 0h1l1 24h-2l-1 2-9 3-2 3h-3v2h-2l-1 7h-2l-2 2-1-4 8-10 10-6 5-1z" fill="#FCDABB"/>
<path transform="translate(177,716)" d="m0 0 4 2 12 11 13 9 4 3v2l-4-1v-2l-3 1-2-3-5-3v-2l-5-2v-2l-5-1-4-4v-2l-5-4z" fill="#FCCFA5"/>
<path transform="translate(728,648)" d="m0 0h1v32l-1 8-2-2v-30z" fill="#FDDCBE"/>
<path transform="translate(622,126)" d="m0 0h6l4 4v17l-2-3-2-8-4-1 1-5v-2z" fill="#FDF7F2"/>
<path transform="translate(269,629)" d="m0 0 2 1-2 26v22h-2v-43z" fill="#FCD8B6"/>
<path transform="translate(513,356)" d="m0 0 7 3 3 3 2 1v2l-12 2h-1v-10z" fill="#FDDCBE"/>
<path transform="translate(527,663)" d="m0 0 3 1v8l-1 3-12-1-4 1 1-3h2v-2l8 1z" fill="#FDDCBE"/>
<path transform="translate(945,637)" d="m0 0h1l1 10-1 3-1 12-2 4-2 7-1 3h-2l-1 4-1-2 6-19 2-11z" fill="#FCD8B7"/>
<path transform="translate(975,620)" d="m0 0 2 1-1 29-3-3-1 1h1l-1 12h-1l-2-14-1-2h2l1-3v4h2l1-2v-20z" fill="#FCD9B9"/>
<path transform="translate(967,584)" d="m0 0 2 3 5 16 2 12h-3l-2-9-1-3-1-8-3-7z" fill="#FCD3AD"/>
<path transform="translate(811,681)" d="m0 0 2 2v30l-3 3-1-34z" fill="#FCCDA1"/>
<path transform="translate(456,677)" d="m0 0 1 3-6 2-12 1-11-2-1-2h25z" fill="#FCCFA5"/>
<path transform="translate(1059,347)" d="m0 0 2 1 6 13-1 5h-1v-5l-2-1-1-2-1 2h-3l-1-10z" fill="#FDEAD9"/>
<path transform="translate(128,694)" d="m0 0 3 1 1 5 3 1 5-3h1v5l-3 3-1 2-4-1-6-12z" fill="#FCD8B7"/>
<path transform="translate(279,605)" d="m0 0 5 5v8l-5 1-1-9-1-3h2z" fill="#FCB36F"/>
<path transform="translate(475,163)" d="m0 0 4 2-1 3h-7l-1 4-4 2-1 2h-2l-1-3 8-7z" fill="#FDFAF7"/>
<path transform="translate(243,359)" d="m0 0h5l2 7-2 2v-2l-7 1-1-4z" fill="#FDDCBE"/>
<path transform="translate(504,338)" d="m0 0 2 2v14l1 6-1 14h-1l-1-6v-28h-5v-1z" fill="#FDDCBE"/>
<path transform="translate(299,680)" d="m0 0 2 2 4 13 1 6h-2l-1-6-4-1-2-3 1-3 1-4z" fill="#FCD0A8"/>
<path transform="translate(494,152)" d="m0 0 3 1-3 4-1 3-3-1-6 1-1-2 3-3z" fill="#FDF9F5"/>
<path transform="translate(713,123)" d="m0 0 7 2-3 2h-2v-2l-4 2h3v2l-3 2-5-1-1-3-3-2z" fill="#FDE9D7"/>
<path transform="translate(156,733)" d="m0 0 4 3 1 3 5 4v2l5 2 1 4-4-2-10-9-3-4z" fill="#FCD1A9"/>
<path transform="translate(557,151)" d="m0 0 6 2-4 4-6 1 1-6zm0 6 4 2-3 2h-5v-2z" fill="#FDF8F3"/>
<path transform="translate(970,669)" d="m0 0 2 4-6 17h-3l2-6 1-5z" fill="#FCD3AD"/>
<path transform="translate(112,643)" d="m0 0 4 5 1 9v7l-2-1-3-16z" fill="#FCD7B5"/>
<path transform="translate(424,581)" d="m0 0h1l1 24h-2l-1 2-5 1-2-1 3-3 5-1z" fill="#FCC796"/>
<path transform="translate(458,367)" d="m0 0 1 2 2 1-7 12-2 6-3-1 5-12z" fill="#FDE5D0"/>
<path transform="translate(297,659)" d="m0 0h1l1 20-5 1-2-1v-2h2l1-2 2-1v-9l-2-1z" fill="#FCD5B2"/>
<path transform="translate(401,654)" d="m0 0 2 3 2-3 1 3v3l3 5h3l1 4h-4l-6-7-2-3z" fill="#FCD4B0"/>
<path transform="translate(329,725)" d="m0 0 5 1h17l1 3h-19l-4-2z" fill="#FCD3AC"/>
<path transform="translate(464,666)" d="m0 0h2v2l3-1v2l-7 4-4 4-1-2 2-5z" fill="#FCD9B8"/>
<path transform="translate(973,646)" d="m0 0 2 1 1 6-2 10h-3l1-12-1-4z" fill="#FCC089"/>
<path transform="translate(791,604)" d="m0 0h12v2l-13 1-6 2h-5v-2z" fill="#FCD8B7"/>
<path transform="translate(531,164)" d="m0 0h5l-3 2 4 1-17 7-2-1 3-1v-4h2v2h3v-2h2v-2z" fill="#FDEEE0"/>
<path transform="translate(721,648)" d="m0 0h1v22l-2 1-1-18h1z" fill="#FDDCBE"/>
<path transform="translate(756,636)" d="m0 0 1 4v9h2l2 7h-2v2h-2l-2-7v-14z" fill="#FCD5B1"/>
<path transform="translate(817,609)" d="m0 0 5 1 9 7 5 7-2 1-3-3-6-7h-2v-2l-6-2z" fill="#FCD4AF"/>
<path transform="translate(737,361)" d="m0 0 2 1v3h-2l-1 2-5 1-3-2 2-1v-3z" fill="#FDE8D4"/>
<path transform="translate(744,170)" d="m0 0 6 1 1 3 1 5-5-1-5-5z" fill="#FDF6F1"/>
<path transform="translate(529,137)" d="m0 0 3 1-4 1-1 2h-1l-1 3-2-1-1 1-5-1 1-3 5-2z" fill="#FDF6F0"/>
<path transform="translate(848,712)" d="m0 0 11 1v2l3 1-14-1-5 2 1-4z" fill="#FCD7B4"/>
<path transform="translate(1095,698)" d="m0 0 1 4-5 15-2 3-2-1 4-11 3-8z" fill="#FCD1A9"/>
<path transform="translate(516,168)" d="m0 0 5 1v3l-4 3-6 1 1-5h3z" fill="#FDFAF7"/>
<path transform="translate(955,362)" d="m0 0h5l4 5h-7l-5 1-1-3 4-1z" fill="#FDEDDD"/>
<path transform="translate(601,152)" d="m0 0 4 2 3 1-2 5-1 15h-1l-2-21z" fill="#FDFCFB"/>
<path transform="translate(934,682)" d="m0 0 2 3-2 7-2 2h-3l1-5z" fill="#FCDABB"/>
<path transform="translate(446,360)" d="m0 0h8l3 1-1 5-6-2z" fill="#FDDCBE"/>
<path transform="translate(212,744)" d="m0 0 6 1 10 6-4 1-7-4-5-2z" fill="#FCD0A7"/>
<path transform="translate(941,663)" d="m0 0h3l-2 9-2 4h-2l-1 4-1-2z" fill="#FCD3AE"/>
<path transform="translate(1098,661)" d="m0 0 2 3v15l-3 3z" fill="#FCD8B7"/>
<path transform="translate(971,602)" d="m0 0 3 1 2 12h-3l-2-9z" fill="#FCD6B2"/>
<path transform="translate(198,733)" d="m0 0 11 7 1 3-4-1v-2l-3 1-2-3-4-2z" fill="#FCD4AF"/>
<path transform="translate(839,636)" d="m0 0 2 1v16l-4 1 1-6h1z" fill="#FCD5B1"/>
<path transform="translate(166,702)" d="m0 0 3 1 4 6-1 4-4-4-2-4z" fill="#FCCDA2"/>
<path transform="translate(957,648)" d="m0 0 1 2h4l-2 4-3 1-5-1-1-3h5z" fill="#FDDCBE"/>
<path transform="translate(269,629)" d="m0 0 2 1-1 10-3 3v-8z" fill="#FCD2AC"/>
<path transform="translate(1025,346)" d="m0 0 4 1-1 6h2l1-3v5l-1 2h-2l-3-5z" fill="#FDE2CA"/>
<path transform="translate(627,344)" d="m0 0 3 2v7l-6-3 1-4z" fill="#FDDCBE"/>
<path transform="translate(950,565)" d="m0 0h3v2l3 1v2h-2l1 4-4-2-1-1z" fill="#FCB573"/>
<path transform="translate(752,359)" d="m0 0 3 1-1 3-9-1-1 2-3-2 3-2z" fill="#FDE9D7"/>
<path transform="translate(139,709)" d="m0 0 3 4 1 6 2 1v2l-3-1-4-6z" fill="#FCD5B0"/>
<path transform="translate(1094,571)" d="m0 0h3l2 5-3 1-4-1v-4z" fill="#FCB371"/>
<path transform="translate(240,372)" d="m0 0h4l1 4-4 6-1-4z" fill="#FDEAD8"/>
<path transform="translate(606,340)" d="m0 0 2 4 1 6-4 1v-10z" fill="#FDDCBE"/>
<path transform="translate(548,160)" d="m0 0 6 1-4 2-9 3-3-1 1-3 6 1 1-2 2 1z" fill="#FDE3CC"/>
<path transform="translate(1089,617)" d="m0 0 3 1 2 2v9l-2 1-3-10z" fill="#FCD9B8"/>
<path transform="translate(774,610)" d="m0 0 3 1-6 5-5 4-2-1 7-7z" fill="#FCDABB"/>
<path transform="translate(510,143)" d="m0 0 4 1-2 4-1 3-4-4 1-3z" fill="#FDF8F4"/>
<path transform="translate(474,626)" d="m0 0 3 2 2 6v7l-4-8z" fill="#FCD1A9"/>
<path transform="translate(235,396)" d="m0 0h1l-1 10-2 2-1-5v-4z" fill="#FDEDDE"/>
<path transform="translate(467,168)" d="m0 0 3 2-2 4-3 1-2 1-1-3z" fill="#FDF8F4"/>
<path transform="translate(546,158)" d="m0 0 6 2-4 2-5 1-4-2z" fill="#FDFCFC"/>
<path transform="translate(365,717)" d="m0 0 3 1-2 3h-2l-1 2-5 2 2-4z" fill="#FCCFA5"/>
<path transform="translate(1126,691)" d="m0 0h1l-1 10h-2v2l-2-1 3-9z" fill="#FCCDA2"/>
<path transform="translate(272,693)" d="m0 0 4 1 2 4-4 2-1-4-2-1z" fill="#FCDABA"/>
<path transform="translate(465,672)" d="m0 0h2l-1 3-7 4h-2l1-3z" fill="#FCC08A"/>
<path transform="translate(144,652)" d="m0 0 2 2 3 10v4h-2l-2-6z" fill="#FCDABA"/>
<path transform="translate(835,626)" d="m0 0h2l3 8h-3l1-2h-6z" fill="#FCD4AE"/>
<path transform="translate(826,368)" d="m0 0 7 1 1 5-2-1 1-2h-2v2l-5-2z" fill="#FDE9D6"/>
<path transform="translate(708,126)" d="m0 0 1 2 5-1v2l-3 2-5-1-1-3z" fill="#FEF2E7"/>
<path transform="translate(479,643)" d="m0 0 1 4-2 11-2 2v-9h2z" fill="#FCD7B4"/>
<path transform="translate(403,384)" d="m0 0h5l-1 4-1 3h-2v-2l-2-1z" fill="#FDE5CF"/>
<path transform="translate(724,162)" d="m0 0 2 1v9l-4-2 1-5z" fill="#FDF7F2"/>
</svg>
